OxygenSans-Bold.ufo
<glyph name="exclam" format="1">
  <advance width="629"/>
  <unicode hex="0021"/>
  <outline>
    <contour>
      <point x="321" y="-7" type="curve" smooth="yes"/>
      <point x="237" y="-7"/>
      <point x="174" y="61"/>
      <point x="174" y="139" type="curve" smooth="yes"/>
      <point x="174" y="218"/>
      <point x="237" y="286"/>
      <point x="321" y="286" type="curve" smooth="yes"/>
      <point x="404" y="286"/>
      <point x="467" y="218"/>
      <point x="467" y="139" type="curve" smooth="yes"/>
      <point x="467" y="61"/>
      <point x="404" y="-7"/>
    </contour>
    <contour>
      <point x="442" y="1127" type="line"/>
      <point x="385" y="418" type="line"/>
      <point x="272" y="418" type="line"/>
      <point x="208" y="1127" type="line"/>
      <point x="208" y="1335" type="line"/>
      <point x="442" y="1335" type="line"/>
    </contour>
  </outline>
</glyph>
<glyph name="quotedbl" format="1">
  <advance width="762"/>
  <unicode hex="0022"/>
  <outline>
    <contour>
      <point x="516" y="837" type="line"/>
      <point x="484" y="1336" type="line"/>
      <point x="705" y="1336" type="line"/>
      <point x="677" y="837" type="line"/>
    </contour>
    <contour>
      <point x="138" y="837" type="line"/>
      <point x="106" y="1336" type="line"/>
      <point x="327" y="1336" type="line"/>
      <point x="299" y="837" type="line"/>
    </contour>
  </outline>
</glyph>
<glyph name="numbersign" format="1">
  <advance width="1212"/>
  <unicode hex="0023"/>
  <outline>
    <contour>
      <point x="512" y="550" type="line"/>
      <point x="560" y="808" type="line"/>
      <point x="751" y="808" type="line"/>
      <point x="704" y="550" type="line"/>
    </contour>
    <contour>
      <point x="349" y="550" type="line"/>
      <point x="152" y="550" type="line"/>
      <point x="143" y="375" type="line"/>
      <point x="316" y="375" type="line"/>
      <point x="251" y="0" type="line"/>
      <point x="413" y="0" type="line"/>
      <point x="481" y="375" type="line"/>
      <point x="669" y="375" type="line"/>
      <point x="602" y="0" type="line"/>
      <point x="760" y="0" type="line"/>
      <point x="829" y="375" type="line"/>
      <point x="1016" y="375" type="line"/>
      <point x="1025" y="550" type="line"/>
      <point x="857" y="550" type="line"/>
      <point x="905" y="808" type="line"/>
      <point x="1082" y="808" type="line"/>
      <point x="1094" y="985" type="line"/>
      <point x="938" y="985" type="line"/>
      <point x="1002" y="1326" type="line"/>
      <point x="847" y="1326" type="line"/>
      <point x="784" y="985" type="line"/>
      <point x="593" y="985" type="line"/>
      <point x="657" y="1326" type="line"/>
      <point x="491" y="1326" type="line"/>
      <point x="423" y="985" type="line"/>
      <point x="219" y="985" type="line"/>
      <point x="212" y="807" type="line"/>
      <point x="392" y="807" type="line"/>
    </contour>
  </outline>
</glyph>
<glyph name="dollar" format="1">
  <advance width="1174"/>
  <unicode hex="0024"/>
  <outline>
    <contour>
      <point x="663" y="-148" type="line"/>
      <point x="544" y="-148" type="line"/>
      <point x="544" y="-17" type="line"/>
      <point x="376" y="-15"/>
      <point x="237" y="18"/>
      <point x="125" y="82" type="curve"/>
      <point x="190" y="300" type="line"/>
      <point x="266" y="254"/>
      <point x="417" y="216"/>
      <point x="544" y="211" type="curve"/>
      <point x="544" y="572" type="line"/>
      <point x="406" y="617" type="line" smooth="yes"/>
      <point x="244" y="670"/>
      <point x="140" y="785"/>
      <point x="140" y="975" type="curve" smooth="yes"/>
      <point x="140" y="1207"/>
      <point x="308" y="1337"/>
      <point x="544" y="1356" type="curve"/>
      <point x="544" y="1480" type="line"/>
      <point x="663" y="1480" type="line"/>
      <point x="663" y="1356" type="line"/>
      <point x="798" y="1349"/>
      <point x="914" y="1315"/>
      <point x="1020" y="1255" type="curve"/>
      <point x="939" y="1048" type="line"/>
      <point x="859" y="1083"/>
      <point x="764" y="1118"/>
      <point x="663" y="1126" type="curve"/>
      <point x="663" y="801" type="line"/>
      <point x="715" y="783" type="line"/>
      <point x="950" y="705"/>
      <point x="1055" y="598"/>
      <point x="1055" y="381" type="curve" smooth="yes"/>
      <point x="1055" y="151"/>
      <point x="897" y="18"/>
      <point x="663" y="-11" type="curve"/>
    </contour>
    <contour>
      <point x="663" y="220" type="line"/>
      <point x="666" y="220" type="line"/>
      <point x="744" y="241"/>
      <point x="782" y="293"/>
      <point x="782" y="385" type="curve" smooth="yes"/>
      <point x="782" y="454"/>
      <point x="739" y="500"/>
      <point x="663" y="532" type="curve"/>
    </contour>
    <contour>
      <point x="544" y="841" type="line"/>
      <point x="544" y="1123" type="line"/>
      <point x="457" y="1109"/>
      <point x="409" y="1066"/>
      <point x="409" y="980" type="curve" smooth="yes"/>
      <point x="409" y="915"/>
      <point x="446" y="873"/>
      <point x="507" y="853" type="curve" smooth="yes"/>
    </contour>
  </outline>
</glyph>
<glyph name="parenleft" format="1">
  <advance width="721"/>
  <unicode hex="0028"/>
  <outline>
    <contour>
      <point x="169" y="319"/>
      <point x="273" y="76"/>
      <point x="426" y="-140" type="curve"/>
      <point x="658" y="-140" type="line"/>
      <point x="520" y="94"/>
      <point x="410" y="341"/>
      <point x="410" y="637" type="curve" smooth="yes"/>
      <point x="410" y="953"/>
      <point x="555" y="1276"/>
      <point x="659" y="1427" type="curve"/>
      <point x="425" y="1427" type="line"/>
      <point x="284" y="1238"/>
      <point x="169" y="954"/>
      <point x="169" y="635" type="curve" smooth="yes"/>
    </contour>
  </outline>
</glyph>
<glyph name="parenright" format="1">
  <advance width="732"/>
  <unicode hex="0029"/>
  <outline>
    <contour>
      <point x="337" y="334"/>
      <point x="192" y="11"/>
      <point x="88" y="-140" type="curve"/>
      <point x="322" y="-140" type="line"/>
      <point x="463" y="49"/>
      <point x="578" y="333"/>
      <point x="578" y="652" type="curve" smooth="yes"/>
      <point x="578" y="968"/>
      <point x="474" y="1211"/>
      <point x="321" y="1427" type="curve"/>
      <point x="89" y="1427" type="line"/>
      <point x="227" y="1193"/>
      <point x="337" y="946"/>
      <point x="337" y="650" type="curve" smooth="yes"/>
    </contour>
  </outline>
</glyph>
<glyph name="asterisk" format="1">
  <advance width="965"/>
  <unicode hex="002A"/>
  <outline>
    <contour>
      <point x="112" y="1159" type="line"/>
      <point x="411" y="1035" type="line"/>
      <point x="380" y="1378" type="line"/>
      <point x="601" y="1378" type="line"/>
      <point x="572" y="1035" type="line"/>
      <point x="874" y="1159" type="line"/>
      <point x="935" y="946" type="line"/>
      <point x="628" y="878" type="line"/>
      <point x="666" y="830"/>
      <point x="841" y="610"/>
      <point x="841" y="610" type="curve"/>
      <point x="645" y="498" type="line"/>
      <point x="490" y="783" type="line"/>
      <point x="342" y="500" type="line"/>
      <point x="141" y="610" type="line"/>
      <point x="354" y="878" type="line"/>
      <point x="48" y="946" type="line"/>
    </contour>
  </outline>
</glyph>
<glyph name="plus" format="1">
  <advance width="1035"/>
  <unicode hex="002B"/>
  <outline>
    <contour>
      <point x="430" y="692" type="line"/>
      <point x="68" y="692" type="line"/>
      <point x="68" y="502" type="line"/>
      <point x="429" y="502" type="line"/>
      <point x="429" y="130" type="line"/>
      <point x="622" y="130" type="line"/>
      <point x="622" y="502" type="line"/>
      <point x="983" y="502" type="line"/>
      <point x="983" y="692" type="line"/>
      <point x="623" y="692" type="line"/>
      <point x="623" y="1065" type="line"/>
      <point x="430" y="1065" type="line"/>
    </contour>
  </outline>
</glyph>
<glyph name="comma" format="1">
  <advance width="443"/>
  <unicode hex="002C"/>
  <outline>
    <contour>
      <point x="226" y="-233" type="line"/>
      <point x="49" y="-233" type="line"/>
      <point x="137" y="245" type="line"/>
      <point x="374" y="245" type="line"/>
      <point x="369" y="190" type="line"/>
    </contour>
  </outline>
</glyph>
<glyph name="hyphen" format="1">
  <advance width="848"/>
  <unicode hex="002D"/>
  <outline>
    <contour>
      <point x="176" y="406" type="line"/>
      <point x="672" y="406" type="line"/>
      <point x="672" y="606" type="line"/>
      <point x="176" y="606" type="line"/>
    </contour>
  </outline>
</glyph>
<glyph name="period" format="1">
  <advance width="558"/>
  <unicode hex="002E"/>
  <outline>
    <contour>
      <point x="181" y="0" type="line"/>
      <point x="420" y="0" type="line"/>
      <point x="420" y="229" type="line"/>
      <point x="181" y="229" type="line"/>
    </contour>
  </outline>
</glyph>
<glyph name="slash" format="1">
  <advance width="881"/>
  <unicode hex="002F"/>
  <outline>
    <contour>
      <point x="56" y="-167" type="line"/>
      <point x="609" y="1364" type="line"/>
      <point x="823" y="1364" type="line"/>
      <point x="267" y="-167" type="line"/>
    </contour>
  </outline>
</glyph>
<glyph name="one" format="1">
  <advance width="1117"/>
  <unicode hex="0031"/>
  <outline>
    <contour>
      <point x="997" y="0" type="line"/>
      <point x="997" y="200" type="line"/>
      <point x="740" y="200" type="line"/>
      <point x="740" y="1336" type="line"/>
      <point x="519" y="1336" type="line"/>
      <point x="441" y="1280"/>
      <point x="313" y="1232"/>
      <point x="196" y="1200" type="curve"/>
      <point x="196" y="999" type="line"/>
      <point x="335" y="1021"/>
      <point x="444" y="1068"/>
      <point x="484" y="1096" type="curve"/>
      <point x="484" y="200" type="line"/>
      <point x="196" y="200" type="line"/>
      <point x="196" y="0" type="line"/>
    </contour>
  </outline>
</glyph>
<glyph name="two" format="1">
  <advance width="1141"/>
  <unicode hex="0032"/>
  <outline>
    <contour>
      <point x="167" y="0" type="line"/>
      <point x="161" y="207" type="line"/>
      <point x="578" y="674" type="line"/>
      <point x="659" y="763"/>
      <point x="719" y="879"/>
      <point x="719" y="964" type="curve" smooth="yes"/>
      <point x="719" y="1071"/>
      <point x="638" y="1152"/>
      <point x="528" y="1152" type="curve" smooth="yes"/>
      <point x="405" y="1152"/>
      <point x="281" y="1069"/>
      <point x="244" y="1040" type="curve"/>
      <point x="169" y="1226" type="line"/>
      <point x="246" y="1293"/>
      <point x="378" y="1357"/>
      <point x="541" y="1357" type="curve" smooth="yes"/>
      <point x="788" y="1357"/>
      <point x="978" y="1214"/>
      <point x="978" y="966" type="curve" smooth="yes"/>
      <point x="978" y="807"/>
      <point x="843" y="608"/>
      <point x="729" y="488" type="curve"/>
      <point x="464" y="200" type="line"/>
      <point x="970" y="200" type="line"/>
      <point x="953" y="0" type="line"/>
    </contour>
  </outline>
</glyph>
<glyph name="three" format="1">
  <advance width="1188"/>
  <unicode hex="0033"/>
  <outline>
    <contour>
      <point x="755" y="379" type="curve" smooth="yes"/>
      <point x="755" y="267"/>
      <point x="674" y="187"/>
      <point x="544" y="187" type="curve" smooth="yes"/>
      <point x="426" y="187"/>
      <point x="302" y="226"/>
      <point x="239" y="278" type="curve"/>
      <point x="162" y="94" type="line"/>
      <point x="244" y="24"/>
      <point x="391" y="-18"/>
      <point x="543" y="-18" type="curve" smooth="yes"/>
      <point x="799" y="-18"/>
      <point x="1013" y="116"/>
      <point x="1013" y="367" type="curve" smooth="yes"/>
      <point x="1013" y="522"/>
      <point x="932" y="663"/>
      <point x="786" y="707" type="curve"/>
      <point x="911" y="760"/>
      <point x="977" y="857"/>
      <point x="977" y="994" type="curve" smooth="yes"/>
      <point x="977" y="1209"/>
      <point x="797" y="1357"/>
      <point x="550" y="1357" type="curve" smooth="yes"/>
      <point x="385" y="1357"/>
      <point x="266" y="1321"/>
      <point x="164" y="1258" type="curve"/>
      <point x="238" y="1071" type="line"/>
      <point x="312" y="1119"/>
      <point x="414" y="1153"/>
      <point x="528" y="1153" type="curve" smooth="yes"/>
      <point x="665" y="1153"/>
      <point x="731" y="1065"/>
      <point x="731" y="975" type="curve" smooth="yes"/>
      <point x="731" y="827"/>
      <point x="602" y="800"/>
      <point x="415" y="799" type="curve" smooth="yes"/>
      <point x="355" y="799" type="line"/>
      <point x="355" y="599" type="line"/>
      <point x="415" y="599" type="line" smooth="yes"/>
      <point x="626" y="594"/>
      <point x="755" y="558"/>
    </contour>
  </outline>
</glyph>
<glyph name="four" format="1">
  <advance width="1085"/>
  <unicode hex="0034"/>
  <outline>
    <contour>
      <point x="620" y="494" type="line"/>
      <point x="622" y="1055" type="line"/>
      <point x="297" y="494" type="line"/>
    </contour>
    <contour>
      <point x="566" y="1335" type="line"/>
      <point x="876" y="1335" type="line"/>
      <point x="876" y="498" type="line"/>
      <point x="1037" y="498" type="line"/>
      <point x="1023" y="296" type="line"/>
      <point x="876" y="296" type="line"/>
      <point x="876" y="8" type="line"/>
      <point x="619" y="8" type="line"/>
      <point x="619" y="296" type="line"/>
      <point x="38" y="296" type="line"/>
      <point x="38" y="473" type="line"/>
    </contour>
  </outline>
</glyph>
<glyph name="five" format="1">
  <advance width="1003"/>
  <unicode hex="0035"/>
  <outline>
    <contour>
      <point x="444" y="-9" type="curve" smooth="yes"/>
      <point x="249" y="-9"/>
      <point x="71" y="99"/>
      <point x="50" y="118" type="curve"/>
      <point x="134" y="300" type="line"/>
      <point x="148" y="289"/>
      <point x="277" y="198"/>
      <point x="420" y="198" type="curve" smooth="yes"/>
      <point x="584" y="198"/>
      <point x="657" y="300"/>
      <point x="657" y="438" type="curve" smooth="yes"/>
      <point x="657" y="577"/>
      <point x="576" y="662"/>
      <point x="463" y="662" type="curve" smooth="yes"/>
      <point x="400" y="662"/>
      <point x="333" y="633"/>
      <point x="276" y="569" type="curve"/>
      <point x="102" y="598" type="line"/>
      <point x="137" y="1335" type="line"/>
      <point x="859" y="1335" type="line"/>
      <point x="843" y="1128" type="line"/>
      <point x="362" y="1128" type="line"/>
      <point x="360" y="1080"/>
      <point x="341" y="870"/>
      <point x="339" y="807" type="curve"/>
      <point x="387" y="830"/>
      <point x="451" y="863"/>
      <point x="500" y="863" type="curve" smooth="yes"/>
      <point x="742" y="863"/>
      <point x="907" y="687"/>
      <point x="907" y="436" type="curve" smooth="yes"/>
      <point x="907" y="173"/>
      <point x="739" y="-9"/>
    </contour>
  </outline>
</glyph>
<glyph name="six" format="1">
  <advance width="1255"/>
  <unicode hex="0036"/>
  <outline>
    <contour>
      <point x="623" y="180" type="curve" smooth="yes"/>
      <point x="475" y="180"/>
      <point x="398" y="272"/>
      <point x="398" y="411" type="curve" smooth="yes"/>
      <point x="398" y="552"/>
      <point x="461" y="650"/>
      <point x="626" y="650" type="curve" smooth="yes"/>
      <point x="787" y="650"/>
      <point x="859" y="557"/>
      <point x="859" y="413" type="curve" smooth="yes"/>
      <point x="859" y="274"/>
      <point x="775" y="180"/>
    </contour>
    <contour>
      <point x="633" y="-18" type="curve" smooth="yes"/>
      <point x="911" y="-18"/>
      <point x="1123" y="154"/>
      <point x="1123" y="417" type="curve" smooth="yes"/>
      <point x="1123" y="667"/>
      <point x="930" y="838"/>
      <point x="674" y="838" type="curve" smooth="yes"/>
      <point x="644" y="838"/>
      <point x="619" y="832"/>
      <point x="597" y="826" type="curve"/>
      <point x="987" y="1336" type="line"/>
      <point x="671" y="1336" type="line"/>
      <point x="671" y="1336"/>
      <point x="337" y="876"/>
      <point x="319" y="853" type="curve" smooth="yes"/>
      <point x="221" y="723"/>
      <point x="137" y="598"/>
      <point x="137" y="422" type="curve" smooth="yes"/>
      <point x="137" y="156"/>
      <point x="344" y="-18"/>
    </contour>
  </outline>
</glyph>
<glyph name="seven" format="1">
  <advance width="1021"/>
  <unicode hex="0037"/>
  <outline>
    <contour>
      <point x="937" y="1342" type="line"/>
      <point x="937" y="1178" type="line"/>
      <point x="485" y="-1" type="line"/>
      <point x="229" y="-1" type="line"/>
      <point x="648" y="1138" type="line"/>
      <point x="88" y="1138" type="line"/>
      <point x="100" y="1342" type="line"/>
    </contour>
  </outline>
</glyph>
<glyph name="nine" format="1">
  <advance width="1228"/>
  <unicode hex="0039"/>
  <outline>
    <contour>
      <point x="634" y="681" type="curve" smooth="yes"/>
      <point x="473" y="681"/>
      <point x="399" y="777"/>
      <point x="399" y="924" type="curve" smooth="yes"/>
      <point x="399" y="1065"/>
      <point x="486" y="1160"/>
      <point x="638" y="1160" type="curve" smooth="yes"/>
      <point x="786" y="1160"/>
      <point x="862" y="1068"/>
      <point x="862" y="928" type="curve" smooth="yes"/>
      <point x="862" y="783"/>
      <point x="798" y="681"/>
    </contour>
    <contour>
      <point x="583" y="0" type="line"/>
      <point x="583" y="0"/>
      <point x="931" y="469"/>
      <point x="952" y="497" type="curve" smooth="yes"/>
      <point x="1041" y="620"/>
      <point x="1122" y="744"/>
      <point x="1122" y="916" type="curve" smooth="yes"/>
      <point x="1122" y="1184"/>
      <point x="915" y="1357"/>
      <point x="626" y="1357" type="curve" smooth="yes"/>
      <point x="347" y="1357"/>
      <point x="136" y="1184"/>
      <point x="136" y="918" type="curve" smooth="yes"/>
      <point x="136" y="665"/>
      <point x="328" y="496"/>
      <point x="584" y="496" type="curve" smooth="yes"/>
      <point x="614" y="496"/>
      <point x="638" y="502"/>
      <point x="661" y="509" type="curve"/>
      <point x="270" y="0" type="line"/>
    </contour>
  </outline>
</glyph>
<glyph name="colon" format="1">
  <advance width="638"/>
  <unicode hex="003A"/>
  <outline>
    <contour>
      <point x="191" y="0" type="line"/>
      <point x="447" y="0" type="line"/>
      <point x="447" y="266" type="line"/>
      <point x="191" y="266" type="line"/>
    </contour>
    <contour>
      <point x="191" y="761" type="line"/>
      <point x="447" y="761" type="line"/>
      <point x="447" y="1016" type="line"/>
      <point x="191" y="1016" type="line"/>
    </contour>
  </outline>
</glyph>
<glyph name="semicolon" format="1">
  <advance width="636"/>
  <unicode hex="003B"/>
  <outline>
    <contour>
      <point x="207" y="767" type="line"/>
      <point x="462" y="767" type="line"/>
      <point x="462" y="1022" type="line"/>
      <point x="207" y="1022" type="line"/>
    </contour>
    <contour>
      <point x="191" y="-287" type="line"/>
      <point x="349" y="-287" type="line"/>
      <point x="465" y="248" type="line"/>
      <point x="241" y="248" type="line"/>
    </contour>
  </outline>
</glyph>
<glyph name="less" format="1">
  <advance width="1314"/>
  <unicode hex="003C"/>
  <outline>
    <contour>
      <point x="1103" y="952" type="line"/>
      <point x="1103" y="1157" type="line"/>
      <point x="230" y="710" type="line"/>
      <point x="230" y="588" type="line"/>
      <point x="1103" y="169" type="line"/>
      <point x="1103" y="169"/>
      <point x="1102" y="383"/>
      <point x="1101" y="384" type="curve"/>
      <point x="498" y="654" type="line"/>
    </contour>
  </outline>
</glyph>
<glyph name="equal" format="1">
  <advance width="1179"/>
  <unicode hex="003D"/>
  <outline>
    <contour>
      <point x="130" y="680" type="line"/>
      <point x="130" y="881" type="line"/>
      <point x="1049" y="881" type="line"/>
      <point x="1049" y="680" type="line"/>
    </contour>
    <contour>
      <point x="130" y="326" type="line"/>
      <point x="130" y="518" type="line"/>
      <point x="1049" y="518" type="line"/>
      <point x="1049" y="326" type="line"/>
    </contour>
  </outline>
</glyph>
<glyph name="greater" format="1">
  <advance width="1310"/>
  <unicode hex="003E"/>
  <outline>
    <contour>
      <point x="241" y="1158" type="line"/>
      <point x="241" y="953" type="line"/>
      <point x="845" y="654" type="line"/>
      <point x="241" y="386" type="line"/>
      <point x="241" y="171" type="line"/>
      <point x="1114" y="588" type="line"/>
      <point x="1114" y="709" type="line"/>
    </contour>
  </outline>
</glyph>
<glyph name="question" format="1">
  <advance width="1074"/>
  <unicode hex="003F"/>
  <outline>
    <contour>
      <point x="486" y="-7" type="curve" smooth="yes"/>
      <point x="566" y="-7"/>
      <point x="626" y="61"/>
      <point x="626" y="139" type="curve" smooth="yes"/>
      <point x="626" y="218"/>
      <point x="566" y="286"/>
      <point x="486" y="286" type="curve" smooth="yes"/>
      <point x="404" y="286"/>
      <point x="339" y="218"/>
      <point x="339" y="139" type="curve" smooth="yes"/>
      <point x="339" y="60"/>
      <point x="405" y="-7"/>
    </contour>
    <contour>
      <point x="543" y="423" type="line"/>
      <point x="676" y="691"/>
      <point x="880" y="830"/>
      <point x="880" y="1050" type="curve" smooth="yes"/>
      <point x="880" y="1265"/>
      <point x="691" y="1363"/>
      <point x="529" y="1363" type="curve" smooth="yes"/>
      <point x="383" y="1363"/>
      <point x="283" y="1327"/>
      <point x="193" y="1267" type="curve"/>
      <point x="265" y="1103" type="line"/>
      <point x="317" y="1135"/>
      <point x="390" y="1177"/>
      <point x="505" y="1177" type="curve" smooth="yes"/>
      <point x="612" y="1177"/>
      <point x="674" y="1116"/>
      <point x="675" y="1019" type="curve" smooth="yes"/>
      <point x="675" y="861"/>
      <point x="464" y="688"/>
      <point x="431" y="429" type="curve"/>
    </contour>
  </outline>
</glyph>
<glyph name="at" format="1">
  <advance width="1742"/>
  <unicode hex="0040"/>
  <outline>
    <contour>
      <point x="813.0" y="360.0" type="curve" smooth="yes"/>
      <point x="717.574996948" y="360"/>
      <point x="675.296005249" y="445.92199707"/>
      <point x="675.296005249" y="548.574005127" type="curve" smooth="yes"/>
      <point x="675.296005249" y="722.608001709"/>
      <point x="775.143997192" y="889.98399353"/>
      <point x="941.604003906" y="889.98399353" type="curve" smooth="yes"/>
      <point x="972.218994141" y="889.98399353"/>
      <point x="1005.08999634" y="884.322006226"/>
      <point x="1040.0" y="872.0" type="curve"/>
      <point x="1033.0" y="803.0"/>
      <point x="1025.0" y="732.0"/>
      <point x="1016.0" y="664.0" type="curve" smooth="yes"/>
      <point x="994.0" y="487.0"/>
      <point x="949.0" y="360.0"/>
    </contour>
    <contour>
      <point x="855.0" y="-119.0" type="curve" smooth="yes"/>
      <point x="1026.0" y="-119.0"/>
      <point x="1210.0" y="-80.0"/>
      <point x="1325.0" y="-3.0" type="curve"/>
      <point x="1283.0" y="118.0" type="line"/>
      <point x="1164.0" y="50.0"/>
      <point x="1003.0" y="15.0"/>
      <point x="856.0" y="15.0" type="curve" smooth="yes"/>
      <point x="481.304992676" y="15.0"/>
      <point x="299.692001343" y="297.975006104"/>
      <point x="299.692001343" y="590.233001709" type="curve" smooth="yes"/>
      <point x="299.692001343" y="902.322998047"/>
      <point x="506.785003662" y="1225.0"/>
      <point x="907.0" y="1225.0" type="curve" smooth="yes"/>
      <point x="1316.61999512" y="1225.0"/>
      <point x="1460.50999451" y="959.574996948"/>
      <point x="1460.50999451" y="720.598999023" type="curve" smooth="yes"/>
      <point x="1460.50999451" y="464.934997559"/>
      <point x="1351.77000427" y="367.947998047"/>
      <point x="1265.55000305" y="367.947998047" type="curve" smooth="yes"/>
      <point x="1208.91999817" y="367.947998047"/>
      <point x="1162.0" y="409.794006348"/>
      <point x="1162.0" y="476.0" type="curve" smooth="yes"/>
      <point x="1162.0" y="586.0"/>
      <point x="1196.0" y="750.0"/>
      <point x="1221.0" y="930.0" type="curve"/>
      <point x="1144.0" y="975.0"/>
      <point x="1004.0" y="1000.0"/>
      <point x="918.0" y="1000.0" type="curve" smooth="yes"/>
      <point x="659.089004517" y="1000.0"/>
      <point x="514.496994019" y="762.567993164"/>
      <point x="514.496994019" y="553.824005127" type="curve" smooth="yes"/>
      <point x="514.496994019" y="390.087005615"/>
      <point x="603.460998535" y="244.0"/>
      <point x="796.0" y="244.0" type="curve" smooth="yes"/>
      <point x="914.0" y="244.0"/>
      <point x="1029.0" y="352.0"/>
      <point x="1051.0" y="440.0" type="curve"/>
      <point x="1074.94000244" y="308.533996582"/>
      <point x="1164.63999939" y="242.983001709"/>
      <point x="1264.80000305" y="242.983001709" type="curve" smooth="yes"/>
      <point x="1419.86000061" y="242.983001709"/>
      <point x="1610.0" y="400.104003906"/>
      <point x="1610.0" y="713.0" type="curve" smooth="yes"/>
      <point x="1610.0" y="1106.0"/>
      <point x="1304.0" y="1358.0"/>
      <point x="915.0" y="1358.0" type="curve" smooth="yes"/>
      <point x="466.0" y="1358.0"/>
      <point x="132.0" y="1034.0"/>
      <point x="132.0" y="596.0" type="curve" smooth="yes"/>
      <point x="132.0" y="157.0"/>
      <point x="434.0" y="-119.0"/>
    </contour>
  </outline>
</glyph>
<glyph name="A" format="1">
  <advance width="1477"/>
  <unicode hex="0041"/>
  <outline>
    <contour>
      <point x="83" y="0" type="line"/>
      <point x="562" y="1336" type="line"/>
      <point x="917" y="1336" type="line"/>
      <point x="1394" y="0" type="line"/>
      <point x="1098" y="0" type="line"/>
      <point x="964" y="365" type="line"/>
      <point x="508" y="365" type="line"/>
      <point x="382" y="0" type="line"/>
    </contour>
    <contour>
      <point x="569" y="555" type="line"/>
      <point x="905" y="555" type="line"/>
      <point x="743" y="1093" type="line"/>
    </contour>
  </outline>
</glyph>
<glyph name="B" format="1">
  <advance width="1376"/>
  <unicode hex="0042"/>
  <outline>
    <contour>
      <point x="468" y="793" type="line"/>
      <point x="674" y="793" type="line" smooth="yes"/>
      <point x="825" y="793"/>
      <point x="899" y="834"/>
      <point x="899" y="956" type="curve" smooth="yes"/>
      <point x="899" y="1093"/>
      <point x="812" y="1126"/>
      <point x="626" y="1126" type="curve" smooth="yes"/>
      <point x="468" y="1126" type="line"/>
    </contour>
    <contour>
      <point x="468" y="216" type="line"/>
      <point x="677" y="216" type="line" smooth="yes"/>
      <point x="854" y="216"/>
      <point x="939" y="270"/>
      <point x="939" y="412" type="curve" smooth="yes"/>
      <point x="939" y="554"/>
      <point x="856" y="604"/>
      <point x="671" y="604" type="curve" smooth="yes"/>
      <point x="468" y="604" type="line"/>
    </contour>
    <contour>
      <point x="180" y="0" type="line"/>
      <point x="180" y="1336" type="line"/>
      <point x="660" y="1336" type="line" smooth="yes"/>
      <point x="990" y="1336"/>
      <point x="1179" y="1254"/>
      <point x="1179" y="1000" type="curve" smooth="yes"/>
      <point x="1179" y="919"/>
      <point x="1136" y="783"/>
      <point x="992" y="715" type="curve"/>
      <point x="1135" y="665"/>
      <point x="1227" y="551"/>
      <point x="1227" y="393" type="curve" smooth="yes"/>
      <point x="1227" y="133"/>
      <point x="1030" y="0"/>
      <point x="729" y="0" type="curve" smooth="yes"/>
    </contour>
  </outline>
</glyph>
<glyph name="C" format="1">
  <advance width="1238"/>
  <unicode hex="0043"/>
  <outline>
    <contour>
      <point x="110" y="236"/>
      <point x="381" y="-18"/>
      <point x="763" y="-18" type="curve" smooth="yes"/>
      <point x="908" y="-18"/>
      <point x="1003" y="13"/>
      <point x="1127" y="75" type="curve"/>
      <point x="1072" y="293" type="line"/>
      <point x="972" y="236"/>
      <point x="881" y="210"/>
      <point x="782" y="213" type="curve" smooth="yes"/>
      <point x="547" y="220"/>
      <point x="398" y="380"/>
      <point x="398" y="671" type="curve" smooth="yes"/>
      <point x="398" y="963"/>
      <point x="573" y="1110"/>
      <point x="740" y="1123" type="curve" smooth="yes"/>
      <point x="858" y="1132"/>
      <point x="974" y="1088"/>
      <point x="1070" y="1033" type="curve"/>
      <point x="1153" y="1247" type="line"/>
      <point x="1031" y="1318"/>
      <point x="893" y="1357"/>
      <point x="754" y="1357" type="curve" smooth="yes"/>
      <point x="379" y="1357"/>
      <point x="110" y="1114"/>
      <point x="110" y="677" type="curve" smooth="yes"/>
    </contour>
    <contour>
      <point x="636" y="0" type="move" name="top"/>
    </contour>
    <contour>
      <point x="636" y="0" type="move" name="bottom"/>
    </contour>
  </outline>
</glyph>
<glyph name="D" format="1">
  <advance width="1432"/>
  <unicode hex="0044"/>
  <outline>
    <contour>
      <point x="164" y="0" type="line"/>
      <point x="164" y="1336" type="line"/>
      <point x="562" y="1336" type="line" smooth="yes"/>
      <point x="1011" y="1336"/>
      <point x="1316" y="1130"/>
      <point x="1316" y="676" type="curve" smooth="yes"/>
      <point x="1316" y="238"/>
      <point x="1028" y="0"/>
      <point x="585" y="0" type="curve" smooth="yes"/>
    </contour>
    <contour>
      <point x="452" y="1126" type="line"/>
      <point x="452" y="216" type="line"/>
      <point x="599" y="216" type="line" smooth="yes"/>
      <point x="889" y="216"/>
      <point x="1029" y="377"/>
      <point x="1029" y="671" type="curve" smooth="yes"/>
      <point x="1029" y="992"/>
      <point x="881" y="1126"/>
      <point x="573" y="1126" type="curve" smooth="yes"/>
    </contour>
  </outline>
</glyph>
<glyph name="E" format="1">
  <advance width="1164"/>
  <unicode hex="0045"/>
  <outline>
    <contour>
      <point x="490" y="1126" type="line"/>
      <point x="490" y="805" type="line"/>
      <point x="994" y="805" type="line"/>
      <point x="994" y="595" type="line"/>
      <point x="490" y="595" type="line"/>
      <point x="490" y="216" type="line"/>
      <point x="1042" y="216" type="line"/>
      <point x="1025" y="0" type="line"/>
      <point x="202" y="0" type="line"/>
      <point x="202" y="1336" type="line"/>
      <point x="1032" y="1336" type="line"/>
      <point x="1021" y="1126" type="line"/>
    </contour>
  </outline>
</glyph>
<glyph name="F" format="1">
  <advance width="1147"/>
  <unicode hex="0046"/>
  <outline>
    <contour>
      <point x="490" y="1116" type="line"/>
      <point x="1019" y="1116" type="line"/>
      <point x="1031" y="1336" type="line"/>
      <point x="202" y="1336" type="line"/>
      <point x="202" y="0" type="line"/>
      <point x="490" y="0" type="line"/>
      <point x="490" y="556" type="line"/>
      <point x="986" y="556" type="line"/>
      <point x="986" y="765" type="line"/>
      <point x="490" y="765" type="line"/>
    </contour>
  </outline>
</glyph>
<glyph name="G" format="1">
  <advance width="1437"/>
  <unicode hex="0047"/>
  <outline>
    <contour>
      <point x="784" y="-18" type="curve" smooth="yes"/>
      <point x="384" y="-18"/>
      <point x="138" y="248"/>
      <point x="138" y="672" type="curve" smooth="yes"/>
      <point x="138" y="1105"/>
      <point x="388" y="1357"/>
      <point x="810" y="1357" type="curve" smooth="yes"/>
      <point x="974" y="1357"/>
      <point x="1118" y="1317"/>
      <point x="1246" y="1253" type="curve"/>
      <point x="1157" y="1042" type="line"/>
      <point x="1060" y="1090"/>
      <point x="939" y="1124"/>
      <point x="815" y="1129" type="curve" smooth="yes"/>
      <point x="553" y="1139"/>
      <point x="426" y="964"/>
      <point x="426" y="670" type="curve" smooth="yes"/>
      <point x="426" y="383"/>
      <point x="540" y="213"/>
      <point x="795" y="213" type="curve" smooth="yes"/>
      <point x="874" y="213"/>
      <point x="954" y="222"/>
      <point x="1017" y="245" type="curve"/>
      <point x="1017" y="519" type="line"/>
      <point x="731" y="519" type="line"/>
      <point x="731" y="727" type="line"/>
      <point x="1264" y="727" type="line"/>
      <point x="1264" y="82" type="line"/>
      <point x="1116" y="17"/>
      <point x="967" y="-18"/>
    </contour>
  </outline>
</glyph>
<glyph name="H" format="1">
  <advance width="1503"/>
  <unicode hex="0048"/>
  <outline>
    <contour>
      <point x="468" y="793" type="line"/>
      <point x="1035" y="793" type="line"/>
      <point x="1035" y="1336" type="line"/>
      <point x="1323" y="1336" type="line"/>
      <point x="1323" y="0" type="line"/>
      <point x="1035" y="0" type="line"/>
      <point x="1035" y="578" type="line"/>
      <point x="468" y="578" type="line"/>
      <point x="468" y="0" type="line"/>
      <point x="180" y="0" type="line"/>
      <point x="180" y="1336" type="line"/>
      <point x="468" y="1336" type="line"/>
    </contour>
  </outline>
</glyph>
<glyph name="I" format="1">
  <advance width="647"/>
  <unicode hex="0049"/>
  <outline>
    <contour>
      <point x="180" y="0" type="line"/>
      <point x="468" y="0" type="line"/>
      <point x="468" y="1336" type="line"/>
      <point x="180" y="1336" type="line"/>
    </contour>
  </outline>
</glyph>
<glyph name="J" format="1">
  <advance width="780"/>
  <unicode hex="004A"/>
  <outline>
    <contour>
      <point x="40" y="-285" type="curve"/>
      <point x="28" y="-75" type="line"/>
      <point x="207" y="-69"/>
      <point x="290" y="-21"/>
      <point x="290" y="126" type="curve" smooth="yes"/>
      <point x="290" y="1336" type="line"/>
      <point x="578" y="1336" type="line"/>
      <point x="578" y="144" type="line" smooth="yes"/>
      <point x="578" y="-153"/>
      <point x="401" y="-282"/>
    </contour>
  </outline>
</glyph>
<glyph name="K" format="1">
  <advance width="1361"/>
  <unicode hex="004B"/>
  <outline>
    <contour>
      <point x="958" y="1336" type="line"/>
      <point x="1290" y="1336" type="line"/>
      <point x="798" y="732" type="line"/>
      <point x="1300" y="0" type="line"/>
      <point x="974" y="0" type="line"/>
      <point x="561" y="611" type="line"/>
      <point x="490" y="537" type="line"/>
      <point x="490" y="0" type="line"/>
      <point x="202" y="0" type="line"/>
      <point x="202" y="1336" type="line"/>
      <point x="490" y="1336" type="line"/>
      <point x="490" y="775" type="line"/>
    </contour>
  </outline>
</glyph>
<glyph name="L" format="1">
  <advance width="1090"/>
  <unicode hex="004C"/>
  <outline>
    <contour>
      <point x="156" y="0" type="line"/>
      <point x="1035" y="0" type="line"/>
      <point x="1049" y="216" type="line"/>
      <point x="350" y="216" type="line"/>
      <point x="444" y="122" type="line"/>
      <point x="444" y="1336" type="line"/>
      <point x="156" y="1336" type="line"/>
    </contour>
    <contour>
      <point x="553" y="0" type="move" name="top"/>
    </contour>
    <contour>
      <point x="553" y="0" type="move" name="bottom"/>
    </contour>
  </outline>
</glyph>
<glyph name="M" format="1">
  <advance width="1838"/>
  <unicode hex="004D"/>
  <outline>
    <contour>
      <point x="1359" y="1336" type="line"/>
      <point x="919" y="508" type="line"/>
      <point x="484" y="1336" type="line"/>
      <point x="200" y="1336" type="line"/>
      <point x="180" y="0" type="line"/>
      <point x="454" y="0" type="line"/>
      <point x="464" y="484" type="line"/>
      <point x="448" y="882" type="line"/>
      <point x="811" y="196" type="line"/>
      <point x="1018" y="196" type="line"/>
      <point x="1390" y="876" type="line"/>
      <point x="1375" y="487" type="line"/>
      <point x="1385" y="0" type="line"/>
      <point x="1658" y="0" type="line"/>
      <point x="1638" y="1336" type="line"/>
    </contour>
  </outline>
</glyph>
<glyph name="N" format="1">
  <advance width="1541"/>
  <unicode hex="004E"/>
  <outline>
    <contour>
      <point x="1087" y="350" type="line"/>
      <point x="1087" y="350"/>
      <point x="1068" y="787"/>
      <point x="1068" y="795" type="curve" smooth="yes"/>
      <point x="1068" y="1336" type="line"/>
      <point x="1339" y="1336" type="line"/>
      <point x="1339" y="0" type="line"/>
      <point x="1036" y="0" type="line"/>
      <point x="451" y="961" type="line"/>
      <point x="451" y="961"/>
      <point x="479" y="430"/>
      <point x="479" y="409" type="curve" smooth="yes"/>
      <point x="479" y="0" type="line"/>
      <point x="202" y="0" type="line"/>
      <point x="202" y="1336" type="line"/>
      <point x="494" y="1336" type="line"/>
    </contour>
  </outline>
</glyph>
<glyph name="O" format="1">
  <advance width="1566"/>
  <unicode hex="004F"/>
  <outline>
    <contour>
      <point x="784" y="1127" type="curve" smooth="yes"/>
      <point x="557" y="1127"/>
      <point x="420" y="946"/>
      <point x="420" y="667" type="curve" smooth="yes"/>
      <point x="420" y="393"/>
      <point x="556" y="210"/>
      <point x="784" y="210" type="curve" smooth="yes"/>
      <point x="1012" y="210"/>
      <point x="1146" y="393"/>
      <point x="1146" y="667" type="curve" smooth="yes"/>
      <point x="1146" y="946"/>
      <point x="1011" y="1127"/>
    </contour>
    <contour>
      <point x="784" y="-18" type="curve" smooth="yes"/>
      <point x="391" y="-18"/>
      <point x="132" y="237"/>
      <point x="132" y="669" type="curve" smooth="yes"/>
      <point x="132" y="1105"/>
      <point x="393" y="1357"/>
      <point x="784" y="1357" type="curve" smooth="yes"/>
      <point x="1175" y="1357"/>
      <point x="1434" y="1105"/>
      <point x="1434" y="669" type="curve" smooth="yes"/>
      <point x="1434" y="237"/>
      <point x="1177" y="-18"/>
    </contour>
  </outline>
</glyph>
<glyph name="P" format="1">
  <advance width="1218"/>
  <unicode hex="0050"/>
  <outline>
    <contour>
      <point x="609" y="677" type="curve" smooth="yes"/>
      <point x="854" y="677"/>
      <point x="868" y="798"/>
      <point x="868" y="911" type="curve" smooth="yes"/>
      <point x="868" y="1053"/>
      <point x="797" y="1126"/>
      <point x="636" y="1126" type="curve" smooth="yes"/>
      <point x="452" y="1126" type="line"/>
      <point x="452" y="678" type="line"/>
      <point x="480" y="677"/>
      <point x="563" y="677"/>
    </contour>
    <contour>
      <point x="164" y="0" type="line"/>
      <point x="164" y="1336" type="line"/>
      <point x="635" y="1336" type="line" smooth="yes"/>
      <point x="934" y="1336"/>
      <point x="1156" y="1205"/>
      <point x="1156" y="919" type="curve" smooth="yes"/>
      <point x="1156" y="677"/>
      <point x="1024" y="482"/>
      <point x="635" y="482" type="curve" smooth="yes"/>
      <point x="583" y="482"/>
      <point x="519" y="483"/>
      <point x="452" y="489" type="curve"/>
      <point x="452" y="0" type="line"/>
    </contour>
  </outline>
</glyph>
<glyph name="Q" format="1">
  <advance width="1530"/>
  <unicode hex="0051"/>
  <outline>
    <contour>
      <point x="764" y="213" type="curve" smooth="yes"/>
      <point x="1012" y="213"/>
      <point x="1126" y="393"/>
      <point x="1126" y="669" type="curve" smooth="yes"/>
      <point x="1126" y="949"/>
      <point x="1011" y="1129"/>
      <point x="765" y="1129" type="curve" smooth="yes"/>
      <point x="518" y="1129"/>
      <point x="404" y="947"/>
      <point x="404" y="669" type="curve" smooth="yes"/>
      <point x="404" y="395"/>
      <point x="516" y="213"/>
    </contour>
    <contour>
      <point x="1313" y="-313" type="curve"/>
      <point x="1144" y="-460" type="line"/>
      <point x="1034" y="-382"/>
      <point x="899" y="-156"/>
      <point x="822" y="-14" type="curve"/>
      <point x="803" y="-15"/>
      <point x="783" y="-16"/>
      <point x="763" y="-16" type="curve" smooth="yes"/>
      <point x="370" y="-16"/>
      <point x="116" y="239"/>
      <point x="116" y="671" type="curve" smooth="yes"/>
      <point x="116" y="1107"/>
      <point x="373" y="1358"/>
      <point x="764" y="1358" type="curve" smooth="yes"/>
      <point x="1155" y="1358"/>
      <point x="1414" y="1105"/>
      <point x="1414" y="671" type="curve" smooth="yes"/>
      <point x="1414" y="363"/>
      <point x="1281" y="143"/>
      <point x="1061" y="43" type="curve"/>
      <point x="1106" y="-32"/>
      <point x="1202" y="-202"/>
    </contour>
  </outline>
</glyph>
<glyph name="R" format="1">
  <advance width="1366"/>
  <unicode hex="0052"/>
  <outline>
    <contour>
      <point x="180" y="0" type="line"/>
      <point x="468" y="0" type="line"/>
      <point x="468" y="531" type="line"/>
      <point x="639" y="531" type="line" smooth="yes"/>
      <point x="672" y="531"/>
      <point x="694" y="531"/>
      <point x="711" y="530" type="curve"/>
      <point x="726" y="501"/>
      <point x="781" y="395"/>
      <point x="811" y="331" type="curve" smooth="yes"/>
      <point x="974" y="0" type="line"/>
      <point x="1277" y="0" type="line"/>
      <point x="1080" y="391" type="line" smooth="yes"/>
      <point x="1044" y="465"/>
      <point x="1007" y="539"/>
      <point x="970" y="587" type="curve"/>
      <point x="1117" y="646"/>
      <point x="1227" y="770"/>
      <point x="1227" y="947" type="curve" smooth="yes"/>
      <point x="1227" y="1258"/>
      <point x="996" y="1336"/>
      <point x="690" y="1336" type="curve" smooth="yes"/>
      <point x="180" y="1336" type="line"/>
    </contour>
    <contour>
      <point x="693" y="742" type="curve" smooth="yes"/>
      <point x="468" y="742" type="line"/>
      <point x="468" y="1126" type="line"/>
      <point x="703" y="1126" type="line" smooth="yes"/>
      <point x="867" y="1126"/>
      <point x="939" y="1064"/>
      <point x="939" y="943" type="curve" smooth="yes"/>
      <point x="939" y="804"/>
      <point x="874" y="742"/>
    </contour>
  </outline>
</glyph>
<glyph name="S" format="1">
  <advance width="1191"/>
  <unicode hex="0053"/>
  <outline>
    <contour>
      <point x="580" y="-18" type="curve" smooth="yes"/>
      <point x="404" y="-18"/>
      <point x="251" y="21"/>
      <point x="135" y="87" type="curve"/>
      <point x="218" y="303" type="line"/>
      <point x="295" y="253"/>
      <point x="458" y="210"/>
      <point x="590" y="210" type="curve" smooth="yes"/>
      <point x="731" y="210"/>
      <point x="800" y="262"/>
      <point x="800" y="385" type="curve" smooth="yes"/>
      <point x="800" y="464"/>
      <point x="745" y="512"/>
      <point x="648" y="544" type="curve" smooth="yes"/>
      <point x="424" y="617" type="line" smooth="yes"/>
      <point x="262" y="670"/>
      <point x="158" y="785"/>
      <point x="158" y="975" type="curve" smooth="yes"/>
      <point x="158" y="1227"/>
      <point x="355" y="1358"/>
      <point x="623" y="1358" type="curve" smooth="yes"/>
      <point x="783" y="1358"/>
      <point x="933" y="1320"/>
      <point x="1054" y="1251" type="curve"/>
      <point x="972" y="1035" type="line"/>
      <point x="880" y="1075"/>
      <point x="753" y="1128"/>
      <point x="634" y="1128" type="curve" smooth="yes"/>
      <point x="501" y="1128"/>
      <point x="427" y="1087"/>
      <point x="427" y="980" type="curve" smooth="yes"/>
      <point x="427" y="915"/>
      <point x="464" y="873"/>
      <point x="525" y="853" type="curve" smooth="yes"/>
      <point x="733" y="783" type="line" smooth="yes"/>
      <point x="968" y="705"/>
      <point x="1073" y="598"/>
      <point x="1073" y="381" type="curve" smooth="yes"/>
      <point x="1073" y="119"/>
      <point x="869" y="-18"/>
    </contour>
  </outline>
</glyph>
<glyph name="T" format="1">
  <advance width="1150"/>
  <unicode hex="0054"/>
  <outline>
    <contour>
      <point x="433" y="0" type="line"/>
      <point x="721" y="0" type="line"/>
      <point x="721" y="1198" type="line"/>
      <point x="648" y="1126" type="line"/>
      <point x="1092" y="1126" type="line"/>
      <point x="1092" y="1336" type="line"/>
      <point x="58" y="1336" type="line"/>
      <point x="58" y="1126" type="line"/>
      <point x="506" y="1126" type="line"/>
      <point x="433" y="1199" type="line"/>
    </contour>
    <contour>
      <point x="575" y="0" type="move" name="center"/>
    </contour>
    <contour>
      <point x="575" y="0" type="move" name="bottom"/>
    </contour>
    <contour>
      <point x="575" y="0" type="move" name="top"/>
    </contour>
  </outline>
</glyph>
<glyph name="U" format="1">
  <advance width="1448"/>
  <unicode hex="0055"/>
  <outline>
    <contour>
      <point x="724" y="-18" type="curve" smooth="yes"/>
      <point x="1071" y="-18"/>
      <point x="1280" y="172"/>
      <point x="1280" y="484" type="curve" smooth="yes"/>
      <point x="1280" y="1336" type="line"/>
      <point x="992" y="1336" type="line"/>
      <point x="992" y="505" type="line" smooth="yes"/>
      <point x="992" y="310"/>
      <point x="906" y="213"/>
      <point x="724" y="213" type="curve" smooth="yes"/>
      <point x="548" y="213"/>
      <point x="456" y="309"/>
      <point x="456" y="504" type="curve" smooth="yes"/>
      <point x="456" y="1336" type="line"/>
      <point x="168" y="1336" type="line"/>
      <point x="168" y="485" type="line" smooth="yes"/>
      <point x="168" y="170"/>
      <point x="376" y="-18"/>
    </contour>
  </outline>
</glyph>
<glyph name="V" format="1">
  <advance width="1284"/>
  <unicode hex="0056"/>
  <outline>
    <contour>
      <point x="809.5" y="0" type="line"/>
      <point x="1237.5" y="1336" type="line"/>
      <point x="931.5" y="1336" type="line"/>
      <point x="729.5" y="608" type="line"/>
      <point x="649.5" y="328" type="line"/>
      <point x="567.5" y="607" type="line"/>
      <point x="354.5" y="1336" type="line"/>
      <point x="46.5" y="1336" type="line"/>
      <point x="481.5" y="0" type="line"/>
    </contour>
  </outline>
</glyph>
<glyph name="W" format="1">
  <advance width="1942"/>
  <unicode hex="0057"/>
  <outline>
    <contour>
      <point x="842" y="1330" type="line"/>
      <point x="563" y="376" type="line"/>
      <point x="332" y="1336" type="line"/>
      <point x="50" y="1336" type="line"/>
      <point x="416" y="0" type="line"/>
      <point x="686" y="0" type="line"/>
      <point x="972" y="963" type="line"/>
      <point x="1237" y="0" type="line"/>
      <point x="1509" y="0" type="line"/>
      <point x="1892" y="1336" type="line"/>
      <point x="1611" y="1336" type="line"/>
      <point x="1367" y="373" type="line"/>
      <point x="1101" y="1330" type="line"/>
    </contour>
  </outline>
</glyph>
<glyph name="X" format="1">
  <advance width="1382"/>
  <unicode hex="0058"/>
  <outline>
    <contour>
      <point x="851" y="682" type="line"/>
      <point x="1309" y="0" type="line"/>
      <point x="997" y="0" type="line"/>
      <point x="687" y="456" type="line"/>
      <point x="369" y="0" type="line"/>
      <point x="73" y="0" type="line"/>
      <point x="532" y="687" type="line"/>
      <point x="105" y="1336" type="line"/>
      <point x="410" y="1336" type="line"/>
      <point x="699" y="880" type="line"/>
      <point x="996" y="1336" type="line"/>
      <point x="1287" y="1336" type="line"/>
    </contour>
  </outline>
</glyph>
<glyph name="Y" format="1">
  <advance width="1183"/>
  <unicode hex="0059"/>
  <outline>
    <contour>
      <point x="594" y="749" type="line"/>
      <point x="881" y="1336" type="line"/>
      <point x="1179" y="1336" type="line"/>
      <point x="735" y="499" type="line"/>
      <point x="735" y="0" type="line"/>
      <point x="453" y="0" type="line"/>
      <point x="453" y="495" type="line"/>
      <point x="10" y="1336" type="line"/>
      <point x="313" y="1336" type="line"/>
    </contour>
  </outline>
</glyph>
<glyph name="Z" format="1">
  <advance width="1109"/>
  <unicode hex="005A"/>
  <outline>
    <contour>
      <point x="99" y="1336" type="line"/>
      <point x="99" y="1126" type="line"/>
      <point x="681" y="1126" type="line"/>
      <point x="92" y="172" type="line"/>
      <point x="92" y="0" type="line"/>
      <point x="1030" y="0" type="line"/>
      <point x="1030" y="216" type="line"/>
      <point x="462" y="216" type="line"/>
      <point x="1021" y="1150" type="line"/>
      <point x="1021" y="1336" type="line"/>
    </contour>
  </outline>
</glyph>
<glyph name="bracketleft" format="1">
  <advance width="702"/>
  <unicode hex="005B"/>
  <outline>
    <contour>
      <point x="419" y="1200" type="line"/>
      <point x="419" y="-56" type="line"/>
      <point x="606" y="-56" type="line"/>
      <point x="606" y="-237" type="line"/>
      <point x="174" y="-237" type="line"/>
      <point x="174" y="1380" type="line"/>
      <point x="606" y="1380" type="line"/>
      <point x="606" y="1200" type="line"/>
    </contour>
  </outline>
</glyph>
<glyph name="a" format="1">
  <advance width="1132"/>
  <unicode hex="0061"/>
  <outline>
    <contour>
      <point x="535" y="162" type="curve" smooth="yes"/>
      <point x="643" y="162"/>
      <point x="721" y="243"/>
      <point x="738" y="281" type="curve"/>
      <point x="738" y="482" type="line"/>
      <point x="718" y="480"/>
      <point x="659" y="473"/>
      <point x="659" y="473" type="curve"/>
      <point x="487" y="458"/>
      <point x="410" y="404"/>
      <point x="410" y="287" type="curve" smooth="yes"/>
      <point x="410" y="208"/>
      <point x="451" y="162"/>
    </contour>
    <contour>
      <point x="473" y="-18" type="curve" smooth="yes"/>
      <point x="297" y="-18"/>
      <point x="154" y="77"/>
      <point x="154" y="284" type="curve" smooth="yes"/>
      <point x="154" y="508"/>
      <point x="311" y="595"/>
      <point x="564" y="621" type="curve" smooth="yes"/>
      <point x="624" y="628"/>
      <point x="674" y="633"/>
      <point x="739" y="641" type="curve"/>
      <point x="739" y="689" type="line" smooth="yes"/>
      <point x="739" y="807"/>
      <point x="685" y="852"/>
      <point x="583" y="852" type="curve" smooth="yes"/>
      <point x="496" y="852"/>
      <point x="353" y="817"/>
      <point x="252" y="776" type="curve"/>
      <point x="192" y="953" type="line"/>
      <point x="313" y="1004"/>
      <point x="467" y="1041"/>
      <point x="614" y="1041" type="curve" smooth="yes"/>
      <point x="879" y="1041"/>
      <point x="994" y="927"/>
      <point x="994" y="660" type="curve" smooth="yes"/>
      <point x="994" y="0" type="line"/>
      <point x="804" y="0" type="line"/>
      <point x="801" y="12"/>
      <point x="778" y="118"/>
      <point x="769" y="153" type="curve"/>
      <point x="706" y="60"/>
      <point x="616" y="-18"/>
    </contour>
  </outline>
</glyph>
<glyph name="b" format="1">
  <advance width="1221"/>
  <unicode hex="0062"/>
  <outline>
    <contour>
      <point x="634" y="179" type="curve" smooth="yes"/>
      <point x="759" y="179"/>
      <point x="846" y="290"/>
      <point x="846" y="516" type="curve" smooth="yes"/>
      <point x="846" y="744"/>
      <point x="762" y="845"/>
      <point x="637" y="845" type="curve" smooth="yes"/>
      <point x="502" y="845"/>
      <point x="414" y="757"/>
      <point x="412" y="527" type="curve"/>
      <point x="412" y="277"/>
      <point x="492" y="179"/>
    </contour>
    <contour>
      <point x="691" y="-18" type="curve" smooth="yes"/>
      <point x="558" y="-18"/>
      <point x="456" y="50"/>
      <point x="402" y="127" type="curve"/>
      <point x="382" y="1" type="line"/>
      <point x="161" y="1" type="line"/>
      <point x="161" y="1376" type="line"/>
      <point x="417" y="1393" type="line"/>
      <point x="417" y="1079" type="line" smooth="yes"/>
      <point x="417" y="1028"/>
      <point x="413" y="974"/>
      <point x="411" y="908" type="curve"/>
      <point x="462" y="969"/>
      <point x="551" y="1041"/>
      <point x="695" y="1041" type="curve" smooth="yes"/>
      <point x="954" y="1041"/>
      <point x="1102" y="819"/>
      <point x="1102" y="519" type="curve" smooth="yes"/>
      <point x="1102" y="202"/>
      <point x="944" y="-18"/>
    </contour>
  </outline>
</glyph>
<glyph name="c" format="1">
  <advance width="987"/>
  <unicode hex="0063"/>
  <outline>
    <contour>
      <point x="598" y="-18" type="curve" smooth="yes"/>
      <point x="789" y="-18"/>
      <point x="856" y="45"/>
      <point x="892" y="64" type="curve"/>
      <point x="859" y="247" type="line"/>
      <point x="788" y="207"/>
      <point x="714" y="178"/>
      <point x="624" y="183" type="curve" smooth="yes"/>
      <point x="479" y="190"/>
      <point x="372" y="292"/>
      <point x="372" y="513" type="curve" smooth="yes"/>
      <point x="372" y="735"/>
      <point x="487" y="833"/>
      <point x="631" y="840" type="curve" smooth="yes"/>
      <point x="765" y="840"/>
      <point x="804" y="797"/>
      <point x="842" y="781" type="curve"/>
      <point x="902" y="959" type="line"/>
      <point x="816" y="1013"/>
      <point x="719" y="1041"/>
      <point x="601" y="1041" type="curve" smooth="yes"/>
      <point x="324" y="1041"/>
      <point x="116" y="856"/>
      <point x="116" y="516" type="curve" smooth="yes"/>
      <point x="116" y="170"/>
      <point x="303" y="-18"/>
    </contour>
  </outline>
</glyph>
<glyph name="d" format="1">
  <advance width="1236"/>
  <unicode hex="0064"/>
  <outline>
    <contour>
      <point x="595" y="179" type="curve" smooth="yes"/>
      <point x="734" y="179"/>
      <point x="813" y="267"/>
      <point x="815" y="497" type="curve" smooth="yes"/>
      <point x="815" y="748"/>
      <point x="738" y="843"/>
      <point x="593" y="843" type="curve" smooth="yes"/>
      <point x="468" y="843"/>
      <point x="374" y="742"/>
      <point x="374" y="512" type="curve" smooth="yes"/>
      <point x="374" y="285"/>
      <point x="467" y="179"/>
    </contour>
    <contour>
      <point x="539" y="-17" type="curve" smooth="yes"/>
      <point x="278" y="-17"/>
      <point x="118" y="200"/>
      <point x="118" y="517" type="curve" smooth="yes"/>
      <point x="118" y="826"/>
      <point x="277" y="1041"/>
      <point x="539" y="1041" type="curve" smooth="yes"/>
      <point x="691" y="1041"/>
      <point x="768" y="978"/>
      <point x="812" y="920" type="curve"/>
      <point x="808" y="963"/>
      <point x="804" y="1017"/>
      <point x="804" y="1052" type="curve" smooth="yes"/>
      <point x="804" y="1376" type="line"/>
      <point x="1060" y="1393" type="line"/>
      <point x="1060" y="0" type="line"/>
      <point x="840" y="0" type="line"/>
      <point x="816" y="117" type="line"/>
      <point x="776" y="55"/>
      <point x="708" y="-17"/>
    </contour>
  </outline>
</glyph>
<glyph name="e" format="1">
  <advance width="1196"/>
  <unicode hex="0065"/>
  <outline>
    <contour>
      <point x="657" y="-18" type="curve" smooth="yes"/>
      <point x="342" y="-18"/>
      <point x="118" y="183"/>
      <point x="118" y="512" type="curve" smooth="yes"/>
      <point x="118" y="830"/>
      <point x="330" y="1040"/>
      <point x="619" y="1041" type="curve" smooth="yes"/>
      <point x="898" y="1041"/>
      <point x="1064" y="840"/>
      <point x="1064" y="558" type="curve" smooth="yes"/>
      <point x="1064" y="543"/>
      <point x="1057" y="448"/>
      <point x="1057" y="448" type="curve"/>
      <point x="377" y="448" type="line"/>
      <point x="390" y="273"/>
      <point x="508" y="174"/>
      <point x="681" y="174" type="curve" smooth="yes"/>
      <point x="844" y="174"/>
      <point x="960" y="231"/>
      <point x="1002" y="250" type="curve"/>
      <point x="1037" y="70" type="line"/>
      <point x="941" y="9"/>
      <point x="813" y="-18"/>
    </contour>
    <contour>
      <point x="383" y="613" type="curve"/>
      <point x="824" y="613" type="line"/>
      <point x="820" y="760"/>
      <point x="738" y="854"/>
      <point x="621" y="854" type="curve" smooth="yes"/>
      <point x="518" y="854"/>
      <point x="402" y="774"/>
    </contour>
  </outline>
</glyph>
<glyph name="f" format="1">
  <advance width="787"/>
  <unicode hex="0066"/>
  <outline>
    <contour>
      <point x="226" y="0" type="line"/>
      <point x="226" y="839" type="line"/>
      <point x="80" y="839" type="line"/>
      <point x="85" y="998" type="line"/>
      <point x="226" y="1015" type="line"/>
      <point x="226" y="1061" type="line" smooth="yes"/>
      <point x="226" y="1350"/>
      <point x="372" y="1420"/>
      <point x="567" y="1420" type="curve" smooth="yes"/>
      <point x="626" y="1420"/>
      <point x="688" y="1414"/>
      <point x="755" y="1401" type="curve"/>
      <point x="732" y="1208" type="line"/>
      <point x="702" y="1213"/>
      <point x="653" y="1219"/>
      <point x="613" y="1219" type="curve" smooth="yes"/>
      <point x="531" y="1219"/>
      <point x="482" y="1201"/>
      <point x="482" y="1074" type="curve" smooth="yes"/>
      <point x="482" y="1016" type="line"/>
      <point x="710" y="1016" type="line"/>
      <point x="710" y="839" type="line"/>
      <point x="482" y="839" type="line"/>
      <point x="482" y="0" type="line"/>
    </contour>
  </outline>
</glyph>
<glyph name="g" format="1">
  <advance width="1216"/>
  <unicode hex="0067"/>
  <outline>
    <contour>
      <point x="526" y="-439" type="curve" smooth="yes"/>
      <point x="379" y="-439"/>
      <point x="282" y="-405"/>
      <point x="274" y="-402" type="curve"/>
      <point x="290" y="-207" type="line"/>
      <point x="347" y="-215"/>
      <point x="399" y="-237"/>
      <point x="501" y="-237" type="curve" smooth="yes"/>
      <point x="719" y="-237"/>
      <point x="801" y="-85"/>
      <point x="801" y="87" type="curve" smooth="yes"/>
      <point x="801" y="103"/>
      <point x="800" y="139"/>
      <point x="798" y="156" type="curve"/>
      <point x="760" y="70"/>
      <point x="666" y="0"/>
      <point x="528" y="0" type="curve" smooth="yes"/>
      <point x="268" y="0"/>
      <point x="118" y="213"/>
      <point x="118" y="519" type="curve" smooth="yes"/>
      <point x="118" y="854"/>
      <point x="302" y="1041"/>
      <point x="537" y="1041" type="curve" smooth="yes"/>
      <point x="669" y="1041"/>
      <point x="753" y="1005"/>
      <point x="809" y="893" type="curve"/>
      <point x="822" y="1017" type="line"/>
      <point x="1049" y="1017" type="line"/>
      <point x="1049" y="185" type="line" smooth="yes"/>
      <point x="1049" y="-166"/>
      <point x="906" y="-439"/>
    </contour>
    <contour>
      <point x="589" y="195" type="curve" smooth="yes"/>
      <point x="759" y="195"/>
      <point x="802" y="323"/>
      <point x="804" y="508" type="curve" smooth="yes"/>
      <point x="804" y="536" type="line" smooth="yes"/>
      <point x="804" y="733"/>
      <point x="745" y="841"/>
      <point x="602" y="843" type="curve" smooth="yes"/>
      <point x="436" y="843"/>
      <point x="374" y="716"/>
      <point x="374" y="526" type="curve" smooth="yes"/>
      <point x="374" y="343"/>
      <point x="440" y="195"/>
    </contour>
  </outline>
</glyph>
<glyph name="h" format="1">
  <advance width="1200"/>
  <unicode hex="0068"/>
  <outline>
    <contour>
      <point x="159" y="1376" type="line"/>
      <point x="159" y="0" type="line"/>
      <point x="412" y="0" type="line"/>
      <point x="412" y="491" type="line" smooth="yes"/>
      <point x="412" y="699.135"/>
      <point x="459.085" y="844"/>
      <point x="648" y="844" type="curve" smooth="yes"/>
      <point x="763" y="844"/>
      <point x="801" y="775"/>
      <point x="801" y="618" type="curve" smooth="yes"/>
      <point x="801" y="0" type="line"/>
      <point x="1057" y="0" type="line"/>
      <point x="1057" y="641" type="line" smooth="yes"/>
      <point x="1057" y="918"/>
      <point x="918" y="1041"/>
      <point x="704" y="1041" type="curve" smooth="yes"/>
      <point x="560" y="1041"/>
      <point x="466" y="979"/>
      <point x="408" y="918" type="curve"/>
      <point x="410" y="970"/>
      <point x="415" y="1074"/>
      <point x="415" y="1102" type="curve" smooth="yes"/>
      <point x="415" y="1393" type="line"/>
    </contour>
  </outline>
</glyph>
<glyph name="i" format="1">
  <advance width="592"/>
  <unicode hex="0069"/>
  <outline>
    <contour>
      <point x="168" y="1157" type="line"/>
      <point x="424" y="1157" type="line"/>
      <point x="424" y="1375" type="line"/>
      <point x="168" y="1375" type="line"/>
    </contour>
    <contour>
      <point x="168" y="0" type="line"/>
      <point x="424" y="0" type="line"/>
      <point x="424" y="1016" type="line"/>
      <point x="168" y="1016" type="line"/>
    </contour>
  </outline>
</glyph>
<glyph name="j" format="1">
  <advance width="629"/>
  <unicode hex="006A"/>
  <outline>
    <contour>
      <point x="30" y="-379" type="line"/>
      <point x="90" y="-379" type="line" smooth="yes"/>
      <point x="408" y="-379"/>
      <point x="470" y="-240"/>
      <point x="470" y="40" type="curve" smooth="yes"/>
      <point x="470" y="1017" type="line"/>
      <point x="217" y="1017" type="line"/>
      <point x="217" y="-4" type="line" smooth="yes"/>
      <point x="217" y="-149"/>
      <point x="204" y="-187"/>
      <point x="63" y="-187" type="curve" smooth="yes"/>
      <point x="1" y="-187" type="line"/>
    </contour>
    <contour>
      <point x="217" y="1157" type="line"/>
      <point x="470" y="1157" type="line"/>
      <point x="470" y="1375" type="line"/>
      <point x="217" y="1375" type="line"/>
    </contour>
  </outline>
</glyph>
<glyph name="k" format="1">
  <advance width="1156"/>
  <unicode hex="006B"/>
  <outline>
    <contour>
      <point x="160" y="1376" type="line"/>
      <point x="160" y="0" type="line"/>
      <point x="416" y="0" type="line"/>
      <point x="416" y="354" type="line"/>
      <point x="500" y="432" type="line"/>
      <point x="819" y="0" type="line"/>
      <point x="1120" y="0" type="line"/>
      <point x="707" y="555" type="line"/>
      <point x="1096" y="1016" type="line"/>
      <point x="773" y="1016" type="line"/>
      <point x="411" y="582" type="line"/>
      <point x="416" y="785" type="line"/>
      <point x="416" y="1392" type="line"/>
    </contour>
  </outline>
</glyph>
<glyph name="l" format="1">
  <advance width="717"/>
  <unicode hex="006C"/>
  <outline>
    <contour>
      <point x="128" y="124"/>
      <point x="208" y="-13"/>
      <point x="485" y="-13" type="curve" smooth="yes"/>
      <point x="560" y="-13"/>
      <point x="672" y="5"/>
      <point x="686" y="8" type="curve"/>
      <point x="686" y="188" type="line"/>
      <point x="665" y="186"/>
      <point x="579" y="178"/>
      <point x="550" y="178" type="curve" smooth="yes"/>
      <point x="450" y="178"/>
      <point x="384" y="221"/>
      <point x="384" y="404" type="curve" smooth="yes"/>
      <point x="384" y="1393" type="line"/>
      <point x="128" y="1376" type="line"/>
      <point x="128" y="401" type="line" smooth="yes"/>
    </contour>
    <contour>
      <point x="278" y="0" type="move" name="top"/>
    </contour>
    <contour>
      <point x="278" y="0" type="move" name="bottom"/>
    </contour>
    <contour>
      <point x="581" y="0" type="move" name="topright"/>
    </contour>
  </outline>
</glyph>
<glyph name="m" format="1">
  <advance width="1765"/>
  <unicode hex="006D"/>
  <outline>
    <contour>
      <point x="432" y="494" type="curve" smooth="yes"/>
      <point x="432" y="0" type="line"/>
      <point x="176" y="0" type="line"/>
      <point x="176" y="1016" type="line"/>
      <point x="384" y="1016" type="line"/>
      <point x="408" y="903" type="line"/>
      <point x="458" y="962"/>
      <point x="535" y="1041"/>
      <point x="714" y="1041" type="curve" smooth="yes"/>
      <point x="877" y="1041"/>
      <point x="950" y="962"/>
      <point x="988" y="892" type="curve"/>
      <point x="1060" y="986"/>
      <point x="1155" y="1041"/>
      <point x="1289" y="1041" type="curve" smooth="yes"/>
      <point x="1523" y="1041"/>
      <point x="1627" y="897"/>
      <point x="1627" y="646" type="curve" smooth="yes"/>
      <point x="1627" y="0" type="line"/>
      <point x="1371" y="0" type="line"/>
      <point x="1371" y="579" type="line" smooth="yes"/>
      <point x="1371" y="762"/>
      <point x="1344" y="844"/>
      <point x="1229" y="844" type="curve" smooth="yes"/>
      <point x="1088" y="844"/>
      <point x="1049" y="738"/>
      <point x="1032" y="596" type="curve"/>
      <point x="1032" y="0" type="line"/>
      <point x="776" y="0" type="line"/>
      <point x="776" y="590" type="line" smooth="yes"/>
      <point x="776" y="754"/>
      <point x="756" y="844"/>
      <point x="639" y="844" type="curve" smooth="yes"/>
      <point x="455" y="844"/>
      <point x="432" y="694"/>
    </contour>
  </outline>
</glyph>
<glyph name="n" format="1">
  <advance width="1202"/>
  <unicode hex="006E"/>
  <outline>
    <contour>
      <point x="158" y="0" type="line"/>
      <point x="158" y="1016" type="line"/>
      <point x="366" y="1016" type="line"/>
      <point x="390" y="902" type="line"/>
      <point x="470" y="979"/>
      <point x="570" y="1041"/>
      <point x="711" y="1041" type="curve" smooth="yes"/>
      <point x="946" y="1041"/>
      <point x="1059" y="891"/>
      <point x="1059" y="640" type="curve" smooth="yes"/>
      <point x="1059" y="0" type="line"/>
      <point x="803" y="0" type="line"/>
      <point x="803" y="612" type="line" smooth="yes"/>
      <point x="802" y="761"/>
      <point x="772" y="844"/>
      <point x="646" y="844" type="curve" smooth="yes"/>
      <point x="450.960998535" y="844"/>
      <point x="414.0" y="708.945983887"/>
      <point x="414.0" y="496.0" type="curve" smooth="yes"/>
      <point x="414.0" y="0.0" type="line"/>
    </contour>
  </outline>
</glyph>
<glyph name="o" format="1">
  <advance width="1192"/>
  <unicode hex="006F"/>
  <outline>
    <contour>
      <point x="596" y="178" type="curve" smooth="yes"/>
      <point x="746" y="178"/>
      <point x="820" y="289"/>
      <point x="820" y="512" type="curve" smooth="yes"/>
      <point x="820" y="730"/>
      <point x="747" y="844"/>
      <point x="596" y="844" type="curve" smooth="yes"/>
      <point x="447" y="844"/>
      <point x="372" y="729"/>
      <point x="372" y="511" type="curve" smooth="yes"/>
      <point x="372" y="290"/>
      <point x="445" y="178"/>
    </contour>
    <contour>
      <point x="596" y="-18" type="curve" smooth="yes"/>
      <point x="301" y="-18"/>
      <point x="116" y="190"/>
      <point x="116" y="512" type="curve" smooth="yes"/>
      <point x="116" y="843"/>
      <point x="288" y="1041"/>
      <point x="596" y="1041" type="curve" smooth="yes"/>
      <point x="893" y="1041"/>
      <point x="1076" y="835"/>
      <point x="1076" y="512" type="curve" smooth="yes"/>
      <point x="1076" y="185"/>
      <point x="904" y="-18"/>
    </contour>
  </outline>
</glyph>
<glyph name="p" format="1">
  <advance width="1223"/>
  <unicode hex="0070"/>
  <outline>
    <contour>
      <point x="638" y="179" type="curve" smooth="yes"/>
      <point x="494" y="179"/>
      <point x="413" y="277"/>
      <point x="413" y="530" type="curve" smooth="yes"/>
      <point x="415" y="755"/>
      <point x="498" y="844"/>
      <point x="634" y="844" type="curve" smooth="yes"/>
      <point x="761" y="844"/>
      <point x="848" y="746"/>
      <point x="848" y="515" type="curve" smooth="yes"/>
      <point x="848" y="291"/>
      <point x="764" y="179"/>
    </contour>
    <contour>
      <point x="159" y="1016" type="line"/>
      <point x="159" y="-408" type="line"/>
      <point x="415" y="-395" type="line"/>
      <point x="415" y="-15" type="line" smooth="yes"/>
      <point x="415" y="13"/>
      <point x="413" y="54"/>
      <point x="410" y="99" type="curve"/>
      <point x="477" y="28"/>
      <point x="571" y="-18"/>
      <point x="686" y="-18" type="curve" smooth="yes"/>
      <point x="946" y="-18"/>
      <point x="1104" y="207"/>
      <point x="1104" y="513" type="curve" smooth="yes"/>
      <point x="1104" y="806"/>
      <point x="955" y="1041"/>
      <point x="707" y="1041" type="curve" smooth="yes"/>
      <point x="579" y="1041"/>
      <point x="461" y="976"/>
      <point x="402" y="906" type="curve"/>
      <point x="380" y="1016" type="line"/>
    </contour>
  </outline>
</glyph>
<glyph name="q" format="1">
  <advance width="1220"/>
  <unicode hex="0071"/>
  <outline>
    <contour>
      <point x="593" y="177" type="curve" smooth="yes"/>
      <point x="732" y="177"/>
      <point x="813" y="263"/>
      <point x="816" y="495" type="curve" smooth="yes"/>
      <point x="816" y="746"/>
      <point x="735" y="843"/>
      <point x="590" y="843" type="curve" smooth="yes"/>
      <point x="463" y="843"/>
      <point x="372" y="744"/>
      <point x="372" y="511" type="curve" smooth="yes"/>
      <point x="372" y="283"/>
      <point x="460" y="177"/>
    </contour>
    <contour>
      <point x="1062" y="1016" type="line"/>
      <point x="1062" y="-393" type="line"/>
      <point x="806" y="-408" type="line"/>
      <point x="806" y="16" type="line" smooth="yes"/>
      <point x="806" y="46"/>
      <point x="807" y="71"/>
      <point x="809" y="107" type="curve"/>
      <point x="771" y="54"/>
      <point x="693" y="-18"/>
      <point x="547" y="-18" type="curve" smooth="yes"/>
      <point x="288" y="-18"/>
      <point x="116" y="202"/>
      <point x="116" y="513" type="curve" smooth="yes"/>
      <point x="116" y="817"/>
      <point x="271" y="1041"/>
      <point x="543" y="1041" type="curve" smooth="yes"/>
      <point x="685" y="1041"/>
      <point x="771" y="973"/>
      <point x="821" y="907" type="curve"/>
      <point x="837" y="1016" type="line"/>
    </contour>
  </outline>
</glyph>
<glyph name="r" format="1">
  <advance width="795"/>
  <unicode hex="0072"/>
  <outline>
    <contour>
      <point x="158" y="1016" type="line"/>
      <point x="158" y="0" type="line"/>
      <point x="414" y="0" type="line"/>
      <point x="414" y="551" type="line" smooth="yes"/>
      <point x="414" y="707"/>
      <point x="497" y="807"/>
      <point x="669" y="807" type="curve" smooth="yes"/>
      <point x="695" y="807"/>
      <point x="720" y="805"/>
      <point x="753" y="799" type="curve"/>
      <point x="757" y="1015" type="line"/>
      <point x="730" y="1021"/>
      <point x="709" y="1021"/>
      <point x="686" y="1021" type="curve" smooth="yes"/>
      <point x="568" y="1021"/>
      <point x="465" y="950"/>
      <point x="402" y="860" type="curve"/>
      <point x="374" y="1016" type="line"/>
    </contour>
  </outline>
</glyph>
<glyph name="s" format="1">
  <advance width="993"/>
  <unicode hex="0073"/>
  <outline>
    <contour>
      <point x="519" y="-17" type="curve" smooth="yes"/>
      <point x="757" y="-17"/>
      <point x="894" y="99"/>
      <point x="894" y="306" type="curve" smooth="yes"/>
      <point x="894" y="466"/>
      <point x="792" y="536"/>
      <point x="624" y="612" type="curve" smooth="yes"/>
      <point x="569" y="637" type="line" smooth="yes"/>
      <point x="443" y="694"/>
      <point x="396" y="709"/>
      <point x="396" y="768" type="curve" smooth="yes"/>
      <point x="396" y="827"/>
      <point x="450" y="854"/>
      <point x="536" y="854" type="curve" smooth="yes"/>
      <point x="625" y="854"/>
      <point x="730" y="818"/>
      <point x="804" y="781" type="curve"/>
      <point x="862" y="953" type="line"/>
      <point x="759" y="1005"/>
      <point x="649" y="1041"/>
      <point x="527" y="1041" type="curve" smooth="yes"/>
      <point x="303" y="1041"/>
      <point x="169" y="940"/>
      <point x="169" y="748" type="curve" smooth="yes"/>
      <point x="170" y="586"/>
      <point x="247" y="526"/>
      <point x="415" y="447" type="curve" smooth="yes"/>
      <point x="467" y="421" type="line" smooth="yes"/>
      <point x="587" y="361"/>
      <point x="652" y="340"/>
      <point x="652" y="275" type="curve"/>
      <point x="650" y="204"/>
      <point x="615" y="170"/>
      <point x="519" y="167" type="curve" smooth="yes"/>
      <point x="419" y="164"/>
      <point x="279" y="227"/>
      <point x="204" y="277" type="curve"/>
      <point x="159" y="99" type="line"/>
      <point x="179" y="83"/>
      <point x="324" y="-17"/>
    </contour>
  </outline>
</glyph>
<glyph name="t" format="1">
  <advance width="823"/>
  <unicode hex="0074"/>
  <outline>
    <contour>
      <point x="567" y="-13" type="curve" smooth="yes"/>
      <point x="300" y="-13"/>
      <point x="204" y="126"/>
      <point x="203" y="392" type="curve"/>
      <point x="203" y="853" type="line"/>
      <point x="42" y="853" type="line"/>
      <point x="56" y="1004" type="line"/>
      <point x="219" y="1016" type="line"/>
      <point x="277" y="1268" type="line"/>
      <point x="459" y="1268" type="line"/>
      <point x="459" y="1016" type="line"/>
      <point x="734" y="1016" type="line"/>
      <point x="734" y="852" type="line"/>
      <point x="459" y="852" type="line"/>
      <point x="459" y="386" type="line" smooth="yes"/>
      <point x="459" y="222"/>
      <point x="521" y="172"/>
      <point x="620" y="172" type="curve" smooth="yes"/>
      <point x="679" y="172"/>
      <point x="738" y="188"/>
      <point x="743" y="191" type="curve"/>
      <point x="776" y="20" type="line"/>
      <point x="768" y="17"/>
      <point x="671" y="-13"/>
    </contour>
  </outline>
</glyph>
<glyph name="u" format="1">
  <advance width="1197"/>
  <unicode hex="0075"/>
  <outline>
    <contour>
      <point x="1041" y="1016" type="line"/>
      <point x="1041" y="0" type="line"/>
      <point x="837" y="0" type="line"/>
      <point x="813" y="125" type="line"/>
      <point x="737" y="40"/>
      <point x="634" y="-24"/>
      <point x="493" y="-24" type="curve" smooth="yes"/>
      <point x="258" y="-24"/>
      <point x="145" y="126"/>
      <point x="145" y="377" type="curve" smooth="yes"/>
      <point x="145" y="1016" type="line"/>
      <point x="401" y="1016" type="line"/>
      <point x="401" y="404" type="line" smooth="yes"/>
      <point x="401" y="253"/>
      <point x="432" y="172"/>
      <point x="558" y="172" type="curve" smooth="yes"/>
      <point x="754.523986816" y="172"/>
      <point x="785.0" y="305.481994629"/>
      <point x="785.0" y="520.0" type="curve" smooth="yes"/>
      <point x="785.0" y="1016.0" type="line"/>
    </contour>
  </outline>
</glyph>
<glyph name="v" format="1">
  <advance width="1072"/>
  <unicode hex="0076"/>
  <outline>
    <contour>
      <point x="425" y="0" type="line"/>
      <point x="671" y="0" type="line"/>
      <point x="1046" y="1016" type="line"/>
      <point x="778" y="1016" type="line"/>
      <point x="602" y="471" type="line"/>
      <point x="595" y="453"/>
      <point x="565" y="331"/>
      <point x="551" y="275" type="curve"/>
      <point x="532" y="338"/>
      <point x="495" y="455"/>
      <point x="489" y="472" type="curve" smooth="yes"/>
      <point x="299" y="1016" type="line"/>
      <point x="28" y="1016" type="line"/>
    </contour>
  </outline>
</glyph>
<glyph name="w" format="1">
  <advance width="1605"/>
  <unicode hex="0077"/>
  <outline>
    <contour>
      <point x="52" y="1016" type="line"/>
      <point x="343" y="0" type="line"/>
      <point x="587" y="0" type="line"/>
      <point x="802" y="749" type="line"/>
      <point x="844" y="599"/>
      <point x="985" y="74"/>
      <point x="1004" y="0" type="curve"/>
      <point x="1250" y="0" type="line"/>
      <point x="1553" y="1016" type="line"/>
      <point x="1307" y="1016" type="line"/>
      <point x="1122" y="300" type="line"/>
      <point x="1082" y="446"/>
      <point x="933" y="1004"/>
      <point x="933" y="1016" type="curve"/>
      <point x="679" y="1016" type="line"/>
      <point x="480" y="298" type="line"/>
      <point x="301" y="1016" type="line"/>
    </contour>
  </outline>
</glyph>
<glyph name="x" format="1">
  <advance width="1135"/>
  <unicode hex="0078"/>
  <outline>
    <contour>
      <point x="568" y="688" type="line"/>
      <point x="361" y="1016" type="line"/>
      <point x="73" y="1016" type="line"/>
      <point x="409" y="520" type="line"/>
      <point x="56" y="0" type="line"/>
      <point x="343" y="0" type="line"/>
      <point x="568" y="355" type="line"/>
      <point x="788" y="0" type="line"/>
      <point x="1079" y="0" type="line"/>
      <point x="729" y="521" type="line"/>
      <point x="1068" y="1016" type="line"/>
      <point x="784" y="1016" type="line"/>
    </contour>
  </outline>
</glyph>
<glyph name="y" format="1">
  <advance width="1027"/>
  <unicode hex="0079"/>
  <outline>
    <contour>
      <point x="91" y="-392" type="line"/>
      <point x="138" y="-398"/>
      <point x="180" y="-404"/>
      <point x="220" y="-404" type="curve" smooth="yes"/>
      <point x="417" y="-404"/>
      <point x="525" y="-323"/>
      <point x="609" y="-99" type="curve" smooth="yes"/>
      <point x="613" y="-90"/>
      <point x="1010" y="1002"/>
      <point x="1014" y="1016" type="curve"/>
      <point x="748" y="1016" type="line"/>
      <point x="534" y="297" type="line"/>
      <point x="293" y="1016" type="line"/>
      <point x="28" y="1016" type="line"/>
      <point x="414" y="28" type="line"/>
      <point x="401" y="-11"/>
      <point x="385" y="-39"/>
      <point x="374" y="-68" type="curve" smooth="yes"/>
      <point x="332" y="-178"/>
      <point x="291" y="-209"/>
      <point x="191" y="-209" type="curve" smooth="yes"/>
      <point x="157" y="-209"/>
      <point x="109" y="-205"/>
      <point x="79" y="-201" type="curve"/>
    </contour>
  </outline>
</glyph>
<glyph name="z" format="1">
  <advance width="995"/>
  <unicode hex="007A"/>
  <outline>
    <contour>
      <point x="134" y="1016" type="line"/>
      <point x="866" y="1016" type="line"/>
      <point x="866" y="840" type="line"/>
      <point x="424" y="192" type="line"/>
      <point x="882" y="192" type="line"/>
      <point x="882" y="0" type="line"/>
      <point x="112" y="0" type="line"/>
      <point x="112" y="158" type="line"/>
      <point x="579" y="832" type="line"/>
      <point x="134" y="832" type="line"/>
    </contour>
  </outline>
</glyph>
<glyph name="braceleft" format="1">
  <advance width="691"/>
  <unicode hex="007B"/>
  <outline>
    <contour>
      <point x="240" y="-186"/>
      <point x="373" y="-245"/>
      <point x="630" y="-245" type="curve" smooth="yes"/>
      <point x="640" y="-245" type="line"/>
      <point x="640" y="-47" type="line"/>
      <point x="630" y="-47" type="line"/>
      <point x="503" y="-45"/>
      <point x="485" y="-16"/>
      <point x="485" y="97" type="curve" smooth="yes"/>
      <point x="485" y="340" type="line" smooth="yes"/>
      <point x="485" y="461"/>
      <point x="424" y="533"/>
      <point x="318" y="564" type="curve"/>
      <point x="432" y="613"/>
      <point x="483" y="676"/>
      <point x="485" y="796" type="curve"/>
      <point x="485" y="1037" type="line" smooth="yes"/>
      <point x="485" y="1150"/>
      <point x="504" y="1181"/>
      <point x="630" y="1183" type="curve"/>
      <point x="640" y="1183" type="line"/>
      <point x="640" y="1383" type="line"/>
      <point x="630" y="1383" type="line" smooth="yes"/>
      <point x="377" y="1383"/>
      <point x="240" y="1325"/>
      <point x="240" y="1112" type="curve" smooth="yes"/>
      <point x="240" y="849" type="line" smooth="yes"/>
      <point x="240" y="711"/>
      <point x="211" y="672"/>
      <point x="49" y="671" type="curve"/>
      <point x="39" y="671" type="line"/>
      <point x="39" y="458" type="line"/>
      <point x="49" y="458" type="line" smooth="yes"/>
      <point x="204" y="458"/>
      <point x="240" y="413"/>
      <point x="240" y="277" type="curve" smooth="yes"/>
      <point x="240" y="30" type="line" smooth="yes"/>
    </contour>
  </outline>
</glyph>
<glyph name="bar" format="1">
  <advance width="667"/>
  <unicode hex="007C"/>
  <outline>
    <contour>
      <point x="241" y="-338" type="line"/>
      <point x="241" y="1406" type="line"/>
      <point x="442" y="1406" type="line"/>
      <point x="442" y="-338" type="line"/>
    </contour>
  </outline>
</glyph>
<glyph name="sterling" format="1">
  <advance width="1006"/>
  <unicode hex="00A3"/>
  <outline>
    <contour>
      <point x="71" y="19" type="line"/>
      <point x="62" y="208" type="line"/>
      <point x="177" y="256"/>
      <point x="218" y="311"/>
      <point x="218" y="446" type="curve" smooth="yes"/>
      <point x="218" y="605" type="line"/>
      <point x="53" y="605" type="line"/>
      <point x="53" y="785" type="line"/>
      <point x="218" y="785" type="line"/>
      <point x="218" y="869" type="line" smooth="yes"/>
      <point x="218" y="1153"/>
      <point x="329" y="1361"/>
      <point x="623" y="1361" type="curve" smooth="yes"/>
      <point x="763" y="1361"/>
      <point x="880" y="1311"/>
      <point x="971" y="1234" type="curve"/>
      <point x="867" y="1069" type="line"/>
      <point x="790" y="1122"/>
      <point x="720" y="1155"/>
      <point x="633" y="1155" type="curve" smooth="yes"/>
      <point x="507" y="1155"/>
      <point x="457" y="1075"/>
      <point x="457" y="934" type="curve" smooth="yes"/>
      <point x="457" y="785" type="line"/>
      <point x="800" y="785" type="line"/>
      <point x="800" y="606" type="line"/>
      <point x="457" y="606" type="line"/>
      <point x="457" y="481" type="line" smooth="yes"/>
      <point x="457" y="377"/>
      <point x="436" y="293"/>
      <point x="374" y="229" type="curve"/>
      <point x="397" y="229"/>
      <point x="438" y="230"/>
      <point x="442" y="230" type="curve" smooth="yes"/>
      <point x="989" y="230" type="line"/>
      <point x="983" y="19" type="line"/>
    </contour>
  </outline>
</glyph>
<glyph name="dieresis" format="1">
  <advance width="679"/>
  <unicode hex="00A8"/>
  <outline>
    <contour>
      <point x="439" y="1119" type="line"/>
      <point x="439" y="1364" type="line"/>
      <point x="632" y="1364" type="line"/>
      <point x="632" y="1119" type="line"/>
    </contour>
    <contour>
      <point x="63" y="1119" type="line"/>
      <point x="63" y="1364" type="line"/>
      <point x="257" y="1364" type="line"/>
      <point x="257" y="1119" type="line"/>
    </contour>
  </outline>
</glyph>
<glyph name="copyright" format="1">
  <advance width="1533"/>
  <unicode hex="00A9"/>
  <outline>
    <contour>
      <point x="342" y="422"/>
      <point x="519" y="236"/>
      <point x="759" y="236" type="curve" smooth="yes"/>
      <point x="868" y="236"/>
      <point x="963" y="263"/>
      <point x="1035" y="310" type="curve"/>
      <point x="986" y="419" type="line"/>
      <point x="923" y="381"/>
      <point x="838" y="361"/>
      <point x="772" y="361" type="curve" smooth="yes"/>
      <point x="600" y="361"/>
      <point x="491" y="487"/>
      <point x="491" y="679" type="curve" smooth="yes"/>
      <point x="491" y="874"/>
      <point x="599" y="1003"/>
      <point x="769" y="1003" type="curve" smooth="yes"/>
      <point x="835" y="1003"/>
      <point x="917" y="984"/>
      <point x="981" y="946" type="curve"/>
      <point x="1034" y="1054" type="line"/>
      <point x="960" y="1104"/>
      <point x="867" y="1129"/>
      <point x="758" y="1129" type="curve" smooth="yes"/>
      <point x="511" y="1129"/>
      <point x="342" y="929"/>
      <point x="342" y="679" type="curve" smooth="yes"/>
    </contour>
    <contour>
      <point x="1350" y="367"/>
      <point x="1107" y="108"/>
      <point x="771" y="108" type="curve" smooth="yes"/>
      <point x="439" y="108"/>
      <point x="195" y="367"/>
      <point x="195" y="688" type="curve" smooth="yes"/>
      <point x="195" y="1007"/>
      <point x="439" y="1268"/>
      <point x="770" y="1268" type="curve" smooth="yes"/>
      <point x="1106" y="1268"/>
      <point x="1350" y="1007"/>
      <point x="1350" y="687" type="curve" smooth="yes"/>
    </contour>
    <contour>
      <point x="72" y="285"/>
      <point x="396" y="0"/>
      <point x="771" y="0" type="curve" smooth="yes"/>
      <point x="1150" y="0"/>
      <point x="1472" y="285"/>
      <point x="1472" y="688" type="curve" smooth="yes"/>
      <point x="1472" y="1090"/>
      <point x="1148" y="1377"/>
      <point x="770" y="1377" type="curve" smooth="yes"/>
      <point x="395" y="1377"/>
      <point x="72" y="1091"/>
      <point x="72" y="688" type="curve" smooth="yes"/>
    </contour>
  </outline>
</glyph>
<glyph name="logicalnot" format="1">
  <advance width="1129"/>
  <unicode hex="00AC"/>
  <outline>
    <contour>
      <point x="1031" y="771" type="line"/>
      <point x="112" y="771" type="line"/>
      <point x="112" y="580" type="line"/>
      <point x="841" y="580" type="line"/>
      <point x="841" y="229" type="line"/>
      <point x="1031" y="229" type="line"/>
    </contour>
  </outline>
</glyph>
<glyph name="uni00AD" format="1">
  <advance width="652"/>
  <unicode hex="00AD"/>
  <outline>
    <contour>
      <point x="61" y="349" type="line"/>
      <point x="608" y="349" type="line"/>
      <point x="608" y="551" type="line"/>
      <point x="61" y="551" type="line"/>
    </contour>
  </outline>
</glyph>
<glyph name="registered" format="1">
  <advance width="1526"/>
  <unicode hex="00AE"/>
  <outline>
    <contour>
      <point x="770" y="0" type="curve" smooth="yes"/>
      <point x="395" y="0"/>
      <point x="72" y="285"/>
      <point x="72" y="688" type="curve" smooth="yes"/>
      <point x="72" y="1091"/>
      <point x="394" y="1377"/>
      <point x="769" y="1377" type="curve" smooth="yes"/>
      <point x="1146" y="1377"/>
      <point x="1469" y="1090"/>
      <point x="1469" y="688" type="curve" smooth="yes"/>
      <point x="1469" y="285"/>
      <point x="1147" y="0"/>
    </contour>
    <contour>
      <point x="770" y="108" type="curve" smooth="yes"/>
      <point x="1104" y="108"/>
      <point x="1346" y="367"/>
      <point x="1346" y="687" type="curve" smooth="yes"/>
      <point x="1346" y="1007"/>
      <point x="1104" y="1268"/>
      <point x="769" y="1268" type="curve" smooth="yes"/>
      <point x="438" y="1268"/>
      <point x="195" y="1007"/>
      <point x="195" y="688" type="curve" smooth="yes"/>
      <point x="195" y="367"/>
      <point x="439" y="108"/>
    </contour>
    <contour>
      <point x="636" y="988" type="line"/>
      <point x="636" y="752" type="line"/>
      <point x="744" y="752" type="line" smooth="yes"/>
      <point x="868" y="752"/>
      <point x="935" y="768"/>
      <point x="935" y="875" type="curve" smooth="yes"/>
      <point x="935" y="984"/>
      <point x="873" y="988"/>
      <point x="736" y="988" type="curve" smooth="yes"/>
    </contour>
    <contour>
      <point x="487" y="251" type="line"/>
      <point x="487" y="1119" type="line"/>
      <point x="774" y="1119" type="line" smooth="yes"/>
      <point x="958" y="1119"/>
      <point x="1086" y="1052"/>
      <point x="1086" y="877" type="curve" smooth="yes"/>
      <point x="1086" y="750"/>
      <point x="1038" y="675"/>
      <point x="904" y="641" type="curve"/>
      <point x="958" y="569"/>
      <point x="1128" y="251"/>
      <point x="1128" y="251" type="curve"/>
      <point x="959" y="251" type="line"/>
      <point x="959" y="251"/>
      <point x="788" y="590"/>
      <point x="758" y="620" type="curve"/>
      <point x="637" y="620" type="line"/>
      <point x="637" y="251" type="line"/>
    </contour>
  </outline>
</glyph>
<glyph name="macron" format="1">
  <advance width="801"/>
  <unicode hex="00AF"/>
  <outline>
    <contour>
      <point x="89" y="1239" type="line"/>
      <point x="738" y="1239" type="line"/>
      <point x="738" y="1398" type="line"/>
      <point x="89" y="1398" type="line"/>
    </contour>
  </outline>
</glyph>
<glyph name="plusminus" format="1">
  <advance width="1131"/>
  <unicode hex="00B1"/>
  <outline>
    <contour>
      <point x="142" y="0" type="line"/>
      <point x="1006" y="0" type="line"/>
      <point x="1006" y="177" type="line"/>
      <point x="142" y="177" type="line"/>
    </contour>
    <contour>
      <point x="477" y="775" type="line"/>
      <point x="142" y="775" type="line"/>
      <point x="142" y="575" type="line"/>
      <point x="477" y="575" type="line"/>
      <point x="477" y="241" type="line"/>
      <point x="671" y="241" type="line"/>
      <point x="671" y="575" type="line"/>
      <point x="1006" y="575" type="line"/>
      <point x="1006" y="775" type="line"/>
      <point x="670" y="775" type="line"/>
      <point x="670" y="1101" type="line"/>
      <point x="477" y="1101" type="line"/>
    </contour>
  </outline>
</glyph>
<glyph name="uni00B3" format="1">
  <advance width="704"/>
  <unicode hex="00B3"/>
  <outline>
    <contour>
      <point x="178" y="562"/>
      <point x="262" y="536"/>
      <point x="343" y="536" type="curve" smooth="yes"/>
      <point x="491" y="536"/>
      <point x="623" y="622"/>
      <point x="623" y="788" type="curve" smooth="yes"/>
      <point x="623" y="872"/>
      <point x="568" y="938"/>
      <point x="508" y="971" type="curve"/>
      <point x="576" y="1003"/>
      <point x="604" y="1058"/>
      <point x="606" y="1122" type="curve"/>
      <point x="606" y="1279"/>
      <point x="484" y="1346"/>
      <point x="353" y="1346" type="curve" smooth="yes"/>
      <point x="262" y="1346"/>
      <point x="178" y="1315"/>
      <point x="115" y="1264" type="curve"/>
      <point x="110" y="1259" type="line"/>
      <point x="161" y="1143" type="line"/>
      <point x="170" y="1151" type="line"/>
      <point x="206" y="1177"/>
      <point x="281" y="1204"/>
      <point x="344" y="1204" type="curve" smooth="yes"/>
      <point x="409" y="1204"/>
      <point x="436" y="1168"/>
      <point x="436" y="1120" type="curve" smooth="yes"/>
      <point x="436" y="1068"/>
      <point x="405" y="1033"/>
      <point x="307" y="1033" type="curve" smooth="yes"/>
      <point x="226" y="1033" type="line"/>
      <point x="226" y="893" type="line"/>
      <point x="305" y="894" type="line"/>
      <point x="405" y="894"/>
      <point x="463" y="859"/>
      <point x="463" y="789" type="curve" smooth="yes"/>
      <point x="463" y="713"/>
      <point x="416" y="677"/>
      <point x="342" y="677" type="curve" smooth="yes"/>
      <point x="286" y="677"/>
      <point x="204" y="701"/>
      <point x="165" y="738" type="curve"/>
      <point x="155" y="747" type="line"/>
      <point x="104" y="615" type="line"/>
      <point x="110" y="611" type="line"/>
    </contour>
  </outline>
</glyph>
<glyph name="acute" format="1">
  <advance width="541"/>
  <unicode hex="00B4"/>
  <outline>
    <contour>
      <point x="163" y="1081" type="line"/>
      <point x="323" y="1442" type="line"/>
      <point x="615" y="1442" type="line"/>
      <point x="320" y="1081" type="line"/>
    </contour>
  </outline>
</glyph>
<glyph name="onequarter" format="1">
  <advance width="1525"/>
  <unicode hex="00BC"/>
  <outline>
    <contour>
      <point x="1064" y="301" type="line"/>
      <point x="1221" y="560" type="line"/>
      <point x="1221" y="301" type="line"/>
    </contour>
    <contour>
      <point x="1382" y="9" type="line"/>
      <point x="1383" y="161" type="line"/>
      <point x="1488" y="161" type="line"/>
      <point x="1485" y="301" type="line"/>
      <point x="1384" y="301" type="line"/>
      <point x="1384" y="798" type="line"/>
      <point x="1213" y="798" type="line"/>
      <point x="866" y="305" type="line"/>
      <point x="866" y="161" type="line"/>
      <point x="1223" y="161" type="line"/>
      <point x="1223" y="9" type="line"/>
    </contour>
    <contour>
      <point x="459" y="0" type="line"/>
      <point x="1370" y="1347" type="line"/>
      <point x="1174" y="1347" type="line"/>
      <point x="258" y="0" type="line"/>
    </contour>
    <contour>
      <point x="87" y="544" type="line"/>
      <point x="527" y="544" type="line"/>
      <point x="527" y="696" type="line"/>
      <point x="402" y="696" type="line"/>
      <point x="402" y="1358" type="line"/>
      <point x="261" y="1359" type="line"/>
      <point x="258" y="1354" type="line"/>
      <point x="242" y="1342"/>
      <point x="87" y="1267"/>
      <point x="75" y="1260" type="curve" smooth="yes"/>
      <point x="70" y="1257" type="line"/>
      <point x="70" y="1103" type="line"/>
      <point x="85" y="1111" type="line" smooth="yes"/>
      <point x="91" y="1114"/>
      <point x="180" y="1155"/>
      <point x="214" y="1171" type="curve"/>
      <point x="214" y="696" type="line"/>
      <point x="87" y="696" type="line"/>
    </contour>
  </outline>
</glyph>
<glyph name="onehalf" format="1">
  <advance width="1593"/>
  <unicode hex="00BD"/>
  <outline>
    <contour>
      <point x="1514" y="-26" type="line"/>
      <point x="1002" y="-26" type="line"/>
      <point x="1003" y="113" type="line"/>
      <point x="1006" y="115" type="line"/>
      <point x="1182" y="268"/>
      <point x="1360" y="388"/>
      <point x="1360" y="510" type="curve" smooth="yes"/>
      <point x="1360" y="579"/>
      <point x="1302" y="618"/>
      <point x="1246" y="618" type="curve" smooth="yes"/>
      <point x="1183" y="618"/>
      <point x="1109" y="591"/>
      <point x="1068" y="535" type="curve" smooth="yes"/>
      <point x="1059" y="523" type="line"/>
      <point x="991" y="646" type="line"/>
      <point x="994" y="651" type="line"/>
      <point x="1050" y="733"/>
      <point x="1150" y="772"/>
      <point x="1265" y="772" type="curve" smooth="yes"/>
      <point x="1402" y="772"/>
      <point x="1531" y="678"/>
      <point x="1531" y="515" type="curve" smooth="yes"/>
      <point x="1531" y="342"/>
      <point x="1411" y="249"/>
      <point x="1250" y="114" type="curve"/>
      <point x="1531" y="114" type="line"/>
    </contour>
    <contour>
      <point x="464" y="19" type="line"/>
      <point x="262" y="19" type="line"/>
      <point x="1178" y="1347" type="line"/>
      <point x="1378" y="1347" type="line"/>
    </contour>
    <contour>
      <point x="232" y="1186" type="line"/>
      <point x="199" y="1167"/>
      <point x="111" y="1116"/>
      <point x="102" y="1112" type="curve" smooth="yes"/>
      <point x="89" y="1105" type="line"/>
      <point x="89" y="1258" type="line"/>
      <point x="94" y="1261" type="line"/>
      <point x="106" y="1267"/>
      <point x="248" y="1350"/>
      <point x="254" y="1356" type="curve" smooth="yes"/>
      <point x="257" y="1359" type="line"/>
      <point x="421" y="1358" type="line"/>
      <point x="421" y="691" type="line"/>
      <point x="545" y="691" type="line"/>
      <point x="545" y="553" type="line"/>
      <point x="106" y="553" type="line"/>
      <point x="106" y="691" type="line"/>
      <point x="232" y="691" type="line"/>
    </contour>
  </outline>
</glyph>
<glyph name="Agrave" format="1">
  <advance width="1427"/>
  <unicode hex="00C0"/>
  <outline>
    <contour>
      <point x="90" y="0" type="line"/>
      <point x="378" y="0" type="line"/>
      <point x="498" y="365" type="line"/>
      <point x="924" y="365" type="line"/>
      <point x="1051" y="0" type="line"/>
      <point x="1337" y="0" type="line"/>
      <point x="883" y="1336" type="line"/>
      <point x="545" y="1336" type="line"/>
    </contour>
    <contour>
      <point x="631" y="1479" type="line"/>
      <point x="796" y="1479" type="line"/>
      <point x="619" y="1840" type="line"/>
      <point x="320" y="1840" type="line"/>
    </contour>
    <contour>
      <point x="556" y="555" type="line"/>
      <point x="718" y="1093" type="line"/>
      <point x="868" y="555" type="line"/>
    </contour>
  </outline>
</glyph>
<glyph name="Acircumflex" format="1">
  <advance width="1427"/>
  <unicode hex="00C2"/>
  <outline>
    <contour>
      <point x="90" y="0" type="line"/>
      <point x="378" y="0" type="line"/>
      <point x="498" y="365" type="line"/>
      <point x="924" y="365" type="line"/>
      <point x="1051" y="0" type="line"/>
      <point x="1337" y="0" type="line"/>
      <point x="883" y="1336" type="line"/>
      <point x="545" y="1336" type="line"/>
    </contour>
    <contour>
      <point x="380" y="1479" type="line"/>
      <point x="561" y="1479" type="line"/>
      <point x="703" y="1673" type="line"/>
      <point x="861" y="1479" type="line"/>
      <point x="1047" y="1479" type="line"/>
      <point x="811" y="1847" type="line"/>
      <point x="615" y="1847" type="line"/>
    </contour>
    <contour>
      <point x="556" y="555" type="line"/>
      <point x="718" y="1093" type="line"/>
      <point x="868" y="555" type="line"/>
    </contour>
  </outline>
</glyph>
<glyph name="Atilde" format="1">
  <advance width="1427"/>
  <unicode hex="00C3"/>
  <outline>
    <contour>
      <point x="90" y="0" type="line"/>
      <point x="378" y="0" type="line"/>
      <point x="498" y="365" type="line"/>
      <point x="924" y="365" type="line"/>
      <point x="1051" y="0" type="line"/>
      <point x="1337" y="0" type="line"/>
      <point x="883" y="1336" type="line"/>
      <point x="545" y="1336" type="line"/>
    </contour>
    <contour>
      <point x="545" y="1479" type="line"/>
      <point x="545" y="1479"/>
      <point x="559" y="1569"/>
      <point x="580" y="1569" type="curve" smooth="yes"/>
      <point x="637" y="1569"/>
      <point x="770" y="1479"/>
      <point x="871" y="1479" type="curve" smooth="yes"/>
      <point x="1019" y="1479"/>
      <point x="1029" y="1721"/>
      <point x="1029" y="1721" type="curve"/>
      <point x="879" y="1721" type="line"/>
      <point x="879" y="1721"/>
      <point x="867" y="1637"/>
      <point x="847" y="1636" type="curve"/>
      <point x="816" y="1636"/>
      <point x="681" y="1721"/>
      <point x="560" y="1721" type="curve" smooth="yes"/>
      <point x="412" y="1721"/>
      <point x="398" y="1583"/>
      <point x="398" y="1489" type="curve"/>
    </contour>
    <contour>
      <point x="556" y="555" type="line"/>
      <point x="718" y="1093" type="line"/>
      <point x="868" y="555" type="line"/>
    </contour>
  </outline>
</glyph>
<glyph name="Ccedilla" format="1">
  <advance width="1253"/>
  <unicode hex="00C7"/>
  <outline>
    <contour>
      <point x="464" y="-363.099609375" type="line"/>
      <point x="673" y="-363.099609375" type="line"/>
      <point x="727" y="-6.099609375" type="line"/>
      <point x="580" y="-6.099609375" type="line"/>
    </contour>
    <contour>
      <point x="788" y="-18.0" type="curve" smooth="yes"/>
      <point x="406" y="-18.0"/>
      <point x="132" y="236.0"/>
      <point x="132" y="677.0" type="curve" smooth="yes"/>
      <point x="132" y="1114.0"/>
      <point x="404" y="1357.0"/>
      <point x="779" y="1357.0" type="curve" smooth="yes"/>
      <point x="918" y="1357.0"/>
      <point x="1053" y="1318.0"/>
      <point x="1175" y="1247.0" type="curve"/>
      <point x="1092" y="1033.0" type="line"/>
      <point x="996" y="1088.0"/>
      <point x="883" y="1132.0"/>
      <point x="765" y="1123.0" type="curve" smooth="yes"/>
      <point x="598" y="1110.0"/>
      <point x="420" y="963.0"/>
      <point x="420" y="671.0" type="curve" smooth="yes"/>
      <point x="420" y="380.0"/>
      <point x="568" y="220.0"/>
      <point x="803" y="213.0" type="curve" smooth="yes"/>
      <point x="902" y="210.0"/>
      <point x="994" y="236.0"/>
      <point x="1094" y="293.0" type="curve"/>
      <point x="1149" y="75.0" type="line"/>
      <point x="1025" y="13.0"/>
      <point x="933" y="-18.0"/>
    </contour>
  </outline>
</glyph>
<glyph name="Egrave" format="1">
  <advance width="1164"/>
  <unicode hex="00C8"/>
  <outline>
    <contour>
      <point x="539.5" y="1479" type="line"/>
      <point x="704.5" y="1479" type="line"/>
      <point x="527.5" y="1840" type="line"/>
      <point x="228.5" y="1840" type="line"/>
    </contour>
    <contour>
      <point x="490.0" y="1126" type="line"/>
      <point x="1021.0" y="1126" type="line"/>
      <point x="1032.0" y="1336" type="line"/>
      <point x="202.0" y="1336" type="line"/>
      <point x="202.0" y="0" type="line"/>
      <point x="1025.0" y="0" type="line"/>
      <point x="1042.0" y="216" type="line"/>
      <point x="490.0" y="216" type="line"/>
      <point x="490.0" y="595" type="line"/>
      <point x="994.0" y="595" type="line"/>
      <point x="994.0" y="805" type="line"/>
      <point x="490.0" y="805" type="line"/>
    </contour>
  </outline>
</glyph>
<glyph name="Ecircumflex" format="1">
  <advance width="1164"/>
  <unicode hex="00CA"/>
  <outline>
    <contour>
      <point x="202" y="0" type="line"/>
      <point x="1025" y="0" type="line"/>
      <point x="1042" y="216" type="line"/>
      <point x="490" y="216" type="line"/>
      <point x="490" y="595" type="line"/>
      <point x="994" y="595" type="line"/>
      <point x="994" y="805" type="line"/>
      <point x="490" y="805" type="line"/>
      <point x="490" y="1126" type="line"/>
      <point x="1021" y="1126" type="line"/>
      <point x="1032" y="1336" type="line"/>
      <point x="202" y="1336" type="line"/>
    </contour>
    <contour>
      <point x="288" y="1479" type="line"/>
      <point x="470" y="1479" type="line"/>
      <point x="612" y="1673" type="line"/>
      <point x="770" y="1479" type="line"/>
      <point x="956" y="1479" type="line"/>
      <point x="720" y="1847" type="line"/>
      <point x="524" y="1847" type="line"/>
    </contour>
  </outline>
</glyph>
<glyph name="Igrave" format="1">
  <advance width="692"/>
  <unicode hex="00CC"/>
  <outline>
    <contour>
      <point x="263.5" y="1479" type="line"/>
      <point x="428.5" y="1479" type="line"/>
      <point x="251.5" y="1840" type="line"/>
      <point x="-47.5" y="1840" type="line"/>
    </contour>
    <contour>
      <point x="202.0" y="0" type="line"/>
      <point x="490.0" y="0" type="line"/>
      <point x="490.0" y="1336" type="line"/>
      <point x="202.0" y="1336" type="line"/>
    </contour>
  </outline>
</glyph>
<glyph name="Iacute" format="1">
  <advance width="692"/>
  <unicode hex="00CD"/>
  <outline>
    <contour>
      <point x="267.5" y="1479" type="line"/>
      <point x="424.5" y="1479" type="line"/>
      <point x="719.5" y="1840" type="line"/>
      <point x="427.5" y="1840" type="line"/>
    </contour>
    <contour>
      <point x="202.0" y="0" type="line"/>
      <point x="490.0" y="0" type="line"/>
      <point x="490.0" y="1336" type="line"/>
      <point x="202.0" y="1336" type="line"/>
    </contour>
  </outline>
</glyph>
<glyph name="Icircumflex" format="1">
  <advance width="692"/>
  <unicode hex="00CE"/>
  <outline>
    <contour>
      <point x="12.5" y="1479" type="line"/>
      <point x="193.5" y="1479" type="line"/>
      <point x="335.5" y="1673" type="line"/>
      <point x="493.5" y="1479" type="line"/>
      <point x="679.5" y="1479" type="line"/>
      <point x="443.5" y="1847" type="line"/>
      <point x="247.5" y="1847" type="line"/>
    </contour>
    <contour>
      <point x="202.0" y="0" type="line"/>
      <point x="490.0" y="0" type="line"/>
      <point x="490.0" y="1336" type="line"/>
      <point x="202.0" y="1336" type="line"/>
    </contour>
  </outline>
</glyph>
<glyph name="Idieresis" format="1">
  <advance width="692"/>
  <unicode hex="00CF"/>
  <outline>
    <contour>
      <point x="62" y="1479" type="line"/>
      <point x="256" y="1479" type="line"/>
      <point x="256" y="1724" type="line"/>
      <point x="62" y="1724" type="line"/>
    </contour>
    <contour>
      <point x="202" y="0" type="line"/>
      <point x="490" y="0" type="line"/>
      <point x="490" y="1336" type="line"/>
      <point x="202" y="1336" type="line"/>
    </contour>
    <contour>
      <point x="438" y="1479" type="line"/>
      <point x="630" y="1479" type="line"/>
      <point x="630" y="1724" type="line"/>
      <point x="438" y="1724" type="line"/>
    </contour>
  </outline>
</glyph>
<glyph name="Eth" format="1">
  <advance width="1340"/>
  <unicode hex="00D0"/>
  <outline>
    <contour>
      <point x="110" y="768" type="line"/>
      <point x="110" y="1340" type="line"/>
      <point x="467" y="1340" type="line" smooth="yes"/>
      <point x="948" y="1340"/>
      <point x="1288" y="1163"/>
      <point x="1288" y="668" type="curve" smooth="yes"/>
      <point x="1288" y="230"/>
      <point x="984" y="1"/>
      <point x="549" y="1" type="curve" smooth="yes"/>
      <point x="110" y="1" type="line"/>
      <point x="110" y="586" type="line"/>
      <point x="-1" y="586" type="line"/>
      <point x="-1" y="768" type="line"/>
    </contour>
    <contour>
      <point x="367" y="590" type="line"/>
      <point x="367" y="211" type="line"/>
      <point x="565" y="211" type="line" smooth="yes"/>
      <point x="862" y="211"/>
      <point x="1027" y="372"/>
      <point x="1027" y="669" type="curve" smooth="yes"/>
      <point x="1027" y="1025"/>
      <point x="842" y="1135"/>
      <point x="484" y="1135" type="curve" smooth="yes"/>
      <point x="367" y="1135" type="line"/>
      <point x="367" y="772" type="line"/>
      <point x="542" y="772" type="line"/>
      <point x="542" y="590" type="line"/>
    </contour>
  </outline>
</glyph>
<glyph name="Ntilde" format="1">
  <advance width="1541"/>
  <unicode hex="00D1"/>
  <outline>
    <contour>
      <point x="455" y="1489" type="line"/>
      <point x="455" y="1583"/>
      <point x="469" y="1721"/>
      <point x="617" y="1721" type="curve" smooth="yes"/>
      <point x="738" y="1721"/>
      <point x="873" y="1636"/>
      <point x="904" y="1636" type="curve" smooth="yes"/>
      <point x="924" y="1637"/>
      <point x="936" y="1721"/>
      <point x="936" y="1721" type="curve"/>
      <point x="1086" y="1721" type="line"/>
      <point x="1086" y="1721"/>
      <point x="1076" y="1479"/>
      <point x="928" y="1479" type="curve" smooth="yes"/>
      <point x="827" y="1479"/>
      <point x="694" y="1569"/>
      <point x="637" y="1569" type="curve" smooth="yes"/>
      <point x="616" y="1569"/>
      <point x="602" y="1479"/>
      <point x="602" y="1479" type="curve"/>
    </contour>
    <contour>
      <point x="1087" y="350" type="curve"/>
      <point x="494" y="1336" type="line"/>
      <point x="202" y="1336" type="line"/>
      <point x="202" y="0" type="line"/>
      <point x="479" y="0" type="line"/>
      <point x="479" y="409" type="line" smooth="yes"/>
      <point x="479" y="430"/>
      <point x="451" y="961"/>
      <point x="451" y="961" type="curve"/>
      <point x="1036" y="0" type="line"/>
      <point x="1339" y="0" type="line"/>
      <point x="1339" y="1336" type="line"/>
      <point x="1068" y="1336" type="line"/>
      <point x="1068" y="795" type="line" smooth="yes"/>
      <point x="1068" y="787"/>
      <point x="1087" y="350"/>
    </contour>
  </outline>
</glyph>
<glyph name="Oacute" format="1">
  <advance width="1566"/>
  <unicode hex="00D3"/>
  <outline>
    <contour>
      <point x="1146" y="393"/>
      <point x="1012" y="210"/>
      <point x="784" y="210" type="curve" smooth="yes"/>
      <point x="556" y="210"/>
      <point x="420" y="393"/>
      <point x="420" y="667" type="curve" smooth="yes"/>
      <point x="420" y="946"/>
      <point x="557" y="1127"/>
      <point x="784" y="1127" type="curve" smooth="yes"/>
      <point x="1011" y="1127"/>
      <point x="1146" y="946"/>
      <point x="1146" y="667" type="curve" smooth="yes"/>
    </contour>
    <contour>
      <point x="132" y="237"/>
      <point x="391" y="-18"/>
      <point x="784" y="-18" type="curve" smooth="yes"/>
      <point x="1177" y="-18"/>
      <point x="1434" y="237"/>
      <point x="1434" y="669" type="curve" smooth="yes"/>
      <point x="1434" y="1105"/>
      <point x="1175" y="1357"/>
      <point x="784" y="1357" type="curve" smooth="yes"/>
      <point x="393" y="1357"/>
      <point x="132" y="1105"/>
      <point x="132" y="669" type="curve" smooth="yes"/>
    </contour>
    <contour>
      <point x="704" y="1479" type="line"/>
      <point x="862" y="1479" type="line"/>
      <point x="1156" y="1840" type="line"/>
      <point x="864" y="1840" type="line"/>
    </contour>
  </outline>
</glyph>
<glyph name="Otilde" format="1">
  <advance width="1566"/>
  <unicode hex="00D5"/>
  <outline>
    <contour>
      <point x="614" y="1479" type="line"/>
      <point x="614" y="1479"/>
      <point x="629" y="1569"/>
      <point x="650" y="1569" type="curve" smooth="yes"/>
      <point x="707" y="1569"/>
      <point x="839" y="1479"/>
      <point x="940" y="1479" type="curve" smooth="yes"/>
      <point x="1088" y="1479"/>
      <point x="1098" y="1721"/>
      <point x="1098" y="1721" type="curve"/>
      <point x="948" y="1721" type="line"/>
      <point x="948" y="1721"/>
      <point x="936" y="1637"/>
      <point x="916" y="1636" type="curve"/>
      <point x="885" y="1636"/>
      <point x="751" y="1721"/>
      <point x="630" y="1721" type="curve" smooth="yes"/>
      <point x="482" y="1721"/>
      <point x="468" y="1583"/>
      <point x="468" y="1489" type="curve"/>
    </contour>
    <contour>
      <point x="1146" y="393"/>
      <point x="1012" y="210"/>
      <point x="784" y="210" type="curve" smooth="yes"/>
      <point x="556" y="210"/>
      <point x="420" y="393"/>
      <point x="420" y="667" type="curve" smooth="yes"/>
      <point x="420" y="946"/>
      <point x="557" y="1127"/>
      <point x="784" y="1127" type="curve" smooth="yes"/>
      <point x="1011" y="1127"/>
      <point x="1146" y="946"/>
      <point x="1146" y="667" type="curve" smooth="yes"/>
    </contour>
    <contour>
      <point x="132" y="237"/>
      <point x="391" y="-18"/>
      <point x="784" y="-18" type="curve" smooth="yes"/>
      <point x="1177" y="-18"/>
      <point x="1434" y="237"/>
      <point x="1434" y="669" type="curve" smooth="yes"/>
      <point x="1434" y="1105"/>
      <point x="1175" y="1357"/>
      <point x="784" y="1357" type="curve" smooth="yes"/>
      <point x="393" y="1357"/>
      <point x="132" y="1105"/>
      <point x="132" y="669" type="curve" smooth="yes"/>
    </contour>
  </outline>
</glyph>
<glyph name="multiply" format="1">
  <advance width="1230"/>
  <unicode hex="00D7"/>
  <outline>
    <contour>
      <point x="373" y="130" type="line"/>
      <point x="639" y="397" type="line"/>
      <point x="903" y="130" type="line"/>
      <point x="1038" y="272" type="line"/>
      <point x="1038" y="272"/>
      <point x="842" y="473"/>
      <point x="777" y="538" type="curve"/>
      <point x="1038" y="809" type="line"/>
      <point x="902" y="947" type="line"/>
      <point x="639" y="678" type="line"/>
      <point x="373" y="947" type="line"/>
      <point x="241" y="810" type="line"/>
      <point x="499" y="538" type="line"/>
      <point x="241" y="271" type="line"/>
    </contour>
  </outline>
</glyph>
<glyph name="Ugrave" format="1">
  <advance width="1440"/>
  <unicode hex="00D9"/>
  <outline>
    <contour>
      <point x="169" y="170"/>
      <point x="372" y="-18"/>
      <point x="720" y="-18" type="curve" smooth="yes"/>
      <point x="1067" y="-18"/>
      <point x="1271" y="172"/>
      <point x="1271" y="484" type="curve" smooth="yes"/>
      <point x="1271" y="1336" type="line"/>
      <point x="983" y="1336" type="line"/>
      <point x="983" y="505" type="line" smooth="yes"/>
      <point x="983" y="310"/>
      <point x="902" y="213"/>
      <point x="720" y="213" type="curve" smooth="yes"/>
      <point x="544" y="213"/>
      <point x="457" y="309"/>
      <point x="457" y="504" type="curve" smooth="yes"/>
      <point x="457" y="1336" type="line"/>
      <point x="169" y="1336" type="line"/>
      <point x="169" y="485" type="line" smooth="yes"/>
    </contour>
    <contour>
      <point x="638" y="1479" type="line"/>
      <point x="802" y="1479" type="line"/>
      <point x="626" y="1840" type="line"/>
      <point x="326" y="1840" type="line"/>
    </contour>
  </outline>
</glyph>
<glyph name="Uacute" format="1">
  <advance width="1440"/>
  <unicode hex="00DA"/>
  <outline>
    <contour>
      <point x="641.5" y="1479" type="line"/>
      <point x="798.5" y="1479" type="line"/>
      <point x="1093.5" y="1840" type="line"/>
      <point x="801.5" y="1840" type="line"/>
    </contour>
    <contour>
      <point x="720.0" y="-18" type="curve" smooth="yes"/>
      <point x="1067.0" y="-18"/>
      <point x="1271.0" y="172"/>
      <point x="1271.0" y="484" type="curve" smooth="yes"/>
      <point x="1271.0" y="1336" type="line"/>
      <point x="983.0" y="1336" type="line"/>
      <point x="983.0" y="505" type="line" smooth="yes"/>
      <point x="983.0" y="310"/>
      <point x="902.0" y="213"/>
      <point x="720.0" y="213" type="curve" smooth="yes"/>
      <point x="544.0" y="213"/>
      <point x="457.0" y="309"/>
      <point x="457.0" y="504" type="curve" smooth="yes"/>
      <point x="457.0" y="1336" type="line"/>
      <point x="169.0" y="1336" type="line"/>
      <point x="169.0" y="485" type="line" smooth="yes"/>
      <point x="169.0" y="170"/>
      <point x="372.0" y="-18"/>
    </contour>
  </outline>
</glyph>
<glyph name="Udieresis" format="1">
  <advance width="1440"/>
  <unicode hex="00DC"/>
  <outline>
    <contour>
      <point x="811.5" y="1479" type="line"/>
      <point x="1004.5" y="1479" type="line"/>
      <point x="1004.5" y="1724" type="line"/>
      <point x="811.5" y="1724" type="line"/>
    </contour>
    <contour>
      <point x="435.5" y="1479" type="line"/>
      <point x="629.5" y="1479" type="line"/>
      <point x="629.5" y="1724" type="line"/>
      <point x="435.5" y="1724" type="line"/>
    </contour>
    <contour>
      <point x="720.0" y="-18" type="curve" smooth="yes"/>
      <point x="1067.0" y="-18"/>
      <point x="1271.0" y="172"/>
      <point x="1271.0" y="484" type="curve" smooth="yes"/>
      <point x="1271.0" y="1336" type="line"/>
      <point x="983.0" y="1336" type="line"/>
      <point x="983.0" y="505" type="line" smooth="yes"/>
      <point x="983.0" y="310"/>
      <point x="902.0" y="213"/>
      <point x="720.0" y="213" type="curve" smooth="yes"/>
      <point x="544.0" y="213"/>
      <point x="457.0" y="309"/>
      <point x="457.0" y="504" type="curve" smooth="yes"/>
      <point x="457.0" y="1336" type="line"/>
      <point x="169.0" y="1336" type="line"/>
      <point x="169.0" y="485" type="line" smooth="yes"/>
      <point x="169.0" y="170"/>
      <point x="372.0" y="-18"/>
    </contour>
  </outline>
</glyph>
<glyph name="Yacute" format="1">
  <advance width="1231"/>
  <unicode hex="00DD"/>
  <outline>
    <contour>
      <point x="545" y="1479" type="line"/>
      <point x="702" y="1479" type="line"/>
      <point x="997" y="1840" type="line"/>
      <point x="705" y="1840" type="line"/>
    </contour>
    <contour>
      <point x="623" y="749" type="line"/>
      <point x="342" y="1336" type="line"/>
      <point x="39" y="1336" type="line"/>
      <point x="482" y="495" type="line"/>
      <point x="482" y="0" type="line"/>
      <point x="764" y="0" type="line"/>
      <point x="764" y="499" type="line"/>
      <point x="1208" y="1336" type="line"/>
      <point x="910" y="1336" type="line"/>
    </contour>
  </outline>
</glyph>
<glyph name="germandbls" format="1">
  <advance width="1104"/>
  <unicode hex="00DF"/>
  <outline>
    <contour>
      <point x="462" y="172" type="line"/>
      <point x="462" y="172"/>
      <point x="443" y="26"/>
      <point x="440" y="13" type="curve"/>
      <point x="439" y="11" type="line"/>
      <point x="445" y="0" type="line"/>
      <point x="704" y="0" type="line" smooth="yes"/>
      <point x="912" y="0"/>
      <point x="1076" y="100"/>
      <point x="1076" y="320" type="curve" smooth="yes"/>
      <point x="1076" y="545"/>
      <point x="842" y="646"/>
      <point x="690" y="733" type="curve"/>
      <point x="798" y="802"/>
      <point x="927" y="884"/>
      <point x="927" y="1046" type="curve" smooth="yes"/>
      <point x="927" y="1261"/>
      <point x="734" y="1363"/>
      <point x="519" y="1363" type="curve" smooth="yes"/>
      <point x="242" y="1363"/>
      <point x="89" y="1202"/>
      <point x="89" y="934" type="curve" smooth="yes"/>
      <point x="89" y="0" type="line"/>
      <point x="338" y="0" type="line"/>
      <point x="338" y="929" type="line" smooth="yes"/>
      <point x="338" y="1083"/>
      <point x="369" y="1175"/>
      <point x="519" y="1175" type="curve" smooth="yes"/>
      <point x="619" y="1175"/>
      <point x="687" y="1127"/>
      <point x="687" y="1046" type="curve" smooth="yes"/>
      <point x="687" y="946"/>
      <point x="589" y="899"/>
      <point x="505" y="835" type="curve" smooth="yes"/>
      <point x="472" y="808"/>
      <point x="438" y="772"/>
      <point x="438" y="722" type="curve" smooth="yes"/>
      <point x="438" y="661"/>
      <point x="483" y="623"/>
      <point x="520" y="600" type="curve" smooth="yes"/>
      <point x="649" y="518"/>
      <point x="825" y="459"/>
      <point x="825" y="320" type="curve" smooth="yes"/>
      <point x="825" y="233"/>
      <point x="775" y="180"/>
      <point x="680" y="180" type="curve" smooth="yes"/>
      <point x="463" y="180" type="line"/>
    </contour>
  </outline>
</glyph>
<glyph name="ccedilla" format="1">
  <advance width="993"/>
  <unicode hex="00E7"/>
  <outline>
    <contour>
      <point x="322.5" y="-363.099609375" type="line"/>
      <point x="531.5" y="-363.099609375" type="line"/>
      <point x="585.5" y="-6.099609375" type="line"/>
      <point x="438.5" y="-6.099609375" type="line"/>
    </contour>
    <contour>
      <point x="601.0" y="-18.0" type="curve" smooth="yes"/>
      <point x="792.0" y="-18.0"/>
      <point x="859.0" y="45.0"/>
      <point x="895.0" y="64.0" type="curve"/>
      <point x="862.0" y="247.0" type="line"/>
      <point x="791.0" y="207.0"/>
      <point x="717.0" y="178.0"/>
      <point x="627.0" y="183.0" type="curve" smooth="yes"/>
      <point x="482.0" y="190.0"/>
      <point x="375.0" y="292.0"/>
      <point x="375.0" y="513.0" type="curve" smooth="yes"/>
      <point x="375.0" y="735.0"/>
      <point x="490.0" y="833.0"/>
      <point x="634.0" y="840.0" type="curve" smooth="yes"/>
      <point x="768.0" y="840.0"/>
      <point x="807.0" y="797.0"/>
      <point x="845.0" y="781.0" type="curve"/>
      <point x="905.0" y="959.0" type="line"/>
      <point x="819.0" y="1013.0"/>
      <point x="722.0" y="1041.0"/>
      <point x="604.0" y="1041.0" type="curve" smooth="yes"/>
      <point x="327.0" y="1041.0"/>
      <point x="119.0" y="856.0"/>
      <point x="119.0" y="516.0" type="curve" smooth="yes"/>
      <point x="119.0" y="170.0"/>
      <point x="306.0" y="-18.0"/>
    </contour>
  </outline>
</glyph>
<glyph name="igrave" format="1">
  <advance width="480"/>
  <unicode hex="00EC"/>
  <outline>
    <contour>
      <point x="150" y="1163" type="line"/>
      <point x="315" y="1163" type="line"/>
      <point x="138" y="1524" type="line"/>
      <point x="-161" y="1524" type="line"/>
    </contour>
    <contour>
      <point x="109" y="0" type="line"/>
      <point x="356" y="0" type="line"/>
      <point x="356" y="1016" type="line"/>
      <point x="109" y="1016" type="line"/>
    </contour>
  </outline>
</glyph>
<glyph name="icircumflex" format="1">
  <advance width="480"/>
  <unicode hex="00EE"/>
  <outline>
    <contour>
      <point x="-101" y="1163" type="line"/>
      <point x="80" y="1163" type="line"/>
      <point x="222" y="1357" type="line"/>
      <point x="380" y="1163" type="line"/>
      <point x="566" y="1163" type="line"/>
      <point x="330" y="1531" type="line"/>
      <point x="134" y="1531" type="line"/>
    </contour>
    <contour>
      <point x="109" y="0" type="line"/>
      <point x="356" y="0" type="line"/>
      <point x="356" y="1016" type="line"/>
      <point x="109" y="1016" type="line"/>
    </contour>
  </outline>
</glyph>
<glyph name="idieresis" format="1">
  <advance width="480"/>
  <unicode hex="00EF"/>
  <outline>
    <contour>
      <point x="324" y="1163" type="line"/>
      <point x="517" y="1163" type="line"/>
      <point x="517" y="1408" type="line"/>
      <point x="324" y="1408" type="line"/>
    </contour>
    <contour>
      <point x="-52" y="1163" type="line"/>
      <point x="142" y="1163" type="line"/>
      <point x="142" y="1408" type="line"/>
      <point x="-52" y="1408" type="line"/>
    </contour>
    <contour>
      <point x="109" y="0" type="line"/>
      <point x="356" y="0" type="line"/>
      <point x="356" y="1016" type="line"/>
      <point x="109" y="1016" type="line"/>
    </contour>
  </outline>
</glyph>
<glyph name="ntilde" format="1">
  <advance width="1203"/>
  <unicode hex="00F1"/>
  <outline>
    <contour>
      <point x="294" y="1173" type="line"/>
      <point x="294" y="1267"/>
      <point x="308" y="1405"/>
      <point x="456" y="1405" type="curve" smooth="yes"/>
      <point x="577" y="1405"/>
      <point x="712" y="1320"/>
      <point x="743" y="1320" type="curve" smooth="yes"/>
      <point x="763" y="1321"/>
      <point x="775" y="1405"/>
      <point x="775" y="1405" type="curve"/>
      <point x="925" y="1405" type="line"/>
      <point x="925" y="1405"/>
      <point x="915" y="1163"/>
      <point x="767" y="1163" type="curve" smooth="yes"/>
      <point x="666" y="1163"/>
      <point x="533" y="1253"/>
      <point x="476" y="1253" type="curve" smooth="yes"/>
      <point x="455" y="1253"/>
      <point x="441" y="1163"/>
      <point x="441" y="1163" type="curve"/>
    </contour>
    <contour>
      <point x="159" y="0" type="line"/>
      <point x="159" y="1016" type="line"/>
      <point x="367" y="1016" type="line"/>
      <point x="391" y="902" type="line"/>
      <point x="471" y="979"/>
      <point x="571" y="1041"/>
      <point x="712" y="1041" type="curve" smooth="yes"/>
      <point x="947" y="1041"/>
      <point x="1060" y="891"/>
      <point x="1060" y="640" type="curve" smooth="yes"/>
      <point x="1060" y="0" type="line"/>
      <point x="804" y="0" type="line"/>
      <point x="804" y="612" type="line" smooth="yes"/>
      <point x="803" y="761"/>
      <point x="773" y="844"/>
      <point x="647" y="844" type="curve" smooth="yes"/>
      <point x="451.9609375" y="844"/>
      <point x="415.0" y="708.946289062"/>
      <point x="415.0" y="496.0" type="curve" smooth="yes"/>
      <point x="415.0" y="0.0" type="line"/>
    </contour>
  </outline>
</glyph>
<glyph name="oacute" format="1">
  <advance width="1198"/>
  <unicode hex="00F3"/>
  <outline>
    <contour>
      <point x="823" y="289"/>
      <point x="749" y="178"/>
      <point x="599" y="178" type="curve" smooth="yes"/>
      <point x="448" y="178"/>
      <point x="375" y="290"/>
      <point x="375" y="511" type="curve" smooth="yes"/>
      <point x="375" y="729"/>
      <point x="450" y="844"/>
      <point x="599" y="844" type="curve" smooth="yes"/>
      <point x="750" y="844"/>
      <point x="823" y="730"/>
      <point x="823" y="512" type="curve" smooth="yes"/>
    </contour>
    <contour>
      <point x="119" y="190"/>
      <point x="304" y="-18"/>
      <point x="599" y="-18" type="curve" smooth="yes"/>
      <point x="907" y="-18"/>
      <point x="1079" y="185"/>
      <point x="1079" y="512" type="curve" smooth="yes"/>
      <point x="1079" y="835"/>
      <point x="896" y="1041"/>
      <point x="599" y="1041" type="curve" smooth="yes"/>
      <point x="291" y="1041"/>
      <point x="119" y="843"/>
      <point x="119" y="512" type="curve" smooth="yes"/>
    </contour>
    <contour>
      <point x="520" y="1163" type="line"/>
      <point x="678" y="1163" type="line"/>
      <point x="972" y="1524" type="line"/>
      <point x="680" y="1524" type="line"/>
    </contour>
  </outline>
</glyph>
<glyph name="otilde" format="1">
  <advance width="1198"/>
  <unicode hex="00F5"/>
  <outline>
    <contour>
      <point x="283.5" y="1173" type="line"/>
      <point x="283.5" y="1267"/>
      <point x="297.5" y="1405"/>
      <point x="445.5" y="1405" type="curve" smooth="yes"/>
      <point x="566.5" y="1405"/>
      <point x="701.5" y="1320"/>
      <point x="732.5" y="1320" type="curve" smooth="yes"/>
      <point x="752.5" y="1321"/>
      <point x="764.5" y="1405"/>
      <point x="764.5" y="1405" type="curve"/>
      <point x="914.5" y="1405" type="line"/>
      <point x="914.5" y="1405"/>
      <point x="904.5" y="1163"/>
      <point x="756.5" y="1163" type="curve" smooth="yes"/>
      <point x="655.5" y="1163"/>
      <point x="522.5" y="1253"/>
      <point x="465.5" y="1253" type="curve" smooth="yes"/>
      <point x="444.5" y="1253"/>
      <point x="430.5" y="1163"/>
      <point x="430.5" y="1163" type="curve"/>
    </contour>
    <contour>
      <point x="599.0" y="178" type="curve" smooth="yes"/>
      <point x="749.0" y="178"/>
      <point x="823.0" y="289"/>
      <point x="823.0" y="512" type="curve" smooth="yes"/>
      <point x="823.0" y="730"/>
      <point x="750.0" y="844"/>
      <point x="599.0" y="844" type="curve" smooth="yes"/>
      <point x="450.0" y="844"/>
      <point x="375.0" y="729"/>
      <point x="375.0" y="511" type="curve" smooth="yes"/>
      <point x="375.0" y="290"/>
      <point x="448.0" y="178"/>
    </contour>
    <contour>
      <point x="599.0" y="-18" type="curve" smooth="yes"/>
      <point x="304.0" y="-18"/>
      <point x="119.0" y="190"/>
      <point x="119.0" y="512" type="curve" smooth="yes"/>
      <point x="119.0" y="843"/>
      <point x="291.0" y="1041"/>
      <point x="599.0" y="1041" type="curve" smooth="yes"/>
      <point x="896.0" y="1041"/>
      <point x="1079.0" y="835"/>
      <point x="1079.0" y="512" type="curve" smooth="yes"/>
      <point x="1079.0" y="185"/>
      <point x="907.0" y="-18"/>
    </contour>
  </outline>
</glyph>
<glyph name="oslash" format="1">
  <advance width="1039"/>
  <unicode hex="00F8"/>
  <outline>
    <contour>
      <point x="531" y="164" type="curve" smooth="yes"/>
      <point x="498" y="164"/>
      <point x="468" y="170"/>
      <point x="443" y="181" type="curve"/>
      <point x="695" y="765" type="line"/>
      <point x="743" y="705"/>
      <point x="766" y="615"/>
      <point x="766" y="500" type="curve" smooth="yes"/>
      <point x="766" y="291"/>
      <point x="683" y="164"/>
    </contour>
    <contour>
      <point x="372" y="248" type="line"/>
      <point x="319" y="307"/>
      <point x="293" y="400"/>
      <point x="293" y="516" type="curve" smooth="yes"/>
      <point x="293" y="729"/>
      <point x="379" y="853"/>
      <point x="530" y="853" type="curve" smooth="yes"/>
      <point x="567" y="853"/>
      <point x="597" y="847"/>
      <point x="624" y="834" type="curve"/>
    </contour>
    <contour>
      <point x="276" y="-203" type="line"/>
      <point x="367" y="9" type="line"/>
      <point x="416" y="-6"/>
      <point x="469" y="-14"/>
      <point x="529" y="-14" type="curve" smooth="yes"/>
      <point x="840" y="-14"/>
      <point x="1006" y="212"/>
      <point x="1006" y="510" type="curve" smooth="yes"/>
      <point x="1006" y="721"/>
      <point x="928" y="889"/>
      <point x="779" y="975" type="curve"/>
      <point x="865" y="1152" type="line"/>
      <point x="785" y="1177" type="line"/>
      <point x="700" y="1010" type="line"/>
      <point x="648" y="1026"/>
      <point x="596" y="1034"/>
      <point x="533" y="1034" type="curve" smooth="yes"/>
      <point x="221" y="1034"/>
      <point x="54" y="815"/>
      <point x="54" y="510" type="curve" smooth="yes"/>
      <point x="54" y="299"/>
      <point x="136" y="128"/>
      <point x="291" y="43" type="curve"/>
      <point x="203" y="-165" type="line"/>
    </contour>
  </outline>
</glyph>
<glyph name="Abreve" format="1">
  <advance width="1427"/>
  <unicode hex="0102"/>
  <outline>
    <contour>
      <point x="982.5" y="1722" type="line"/>
      <point x="982.5" y="1556"/>
      <point x="865.5" y="1479"/>
      <point x="712.5" y="1479" type="curve" smooth="yes"/>
      <point x="560.5" y="1479"/>
      <point x="444.5" y="1557"/>
      <point x="444.5" y="1722" type="curve"/>
      <point x="612.5" y="1722" type="line"/>
      <point x="612.5" y="1661"/>
      <point x="638.5" y="1637"/>
      <point x="712.5" y="1637" type="curve" smooth="yes"/>
      <point x="786.5" y="1637"/>
      <point x="813.5" y="1661"/>
      <point x="813.5" y="1722" type="curve"/>
    </contour>
    <contour>
      <point x="90.0" y="0" type="line"/>
      <point x="545.0" y="1336" type="line"/>
      <point x="883.0" y="1336" type="line"/>
      <point x="1337.0" y="0" type="line"/>
      <point x="1051.0" y="0" type="line"/>
      <point x="924.0" y="365" type="line"/>
      <point x="498.0" y="365" type="line"/>
      <point x="378.0" y="0" type="line"/>
    </contour>
    <contour>
      <point x="556.0" y="555" type="line"/>
      <point x="868.0" y="555" type="line"/>
      <point x="718.0" y="1093" type="line"/>
    </contour>
  </outline>
</glyph>
<glyph name="Aogonek" format="1">
  <advance width="1427"/>
  <unicode hex="0104"/>
  <outline>
    <contour>
      <point x="734.5" y="-393.43359375" type="curve" smooth="yes"/>
      <point x="793.5" y="-393.43359375"/>
      <point x="854.5" y="-378.43359375"/>
      <point x="909.5" y="-357.43359375" type="curve"/>
      <point x="909.5" y="-357.43359375"/>
      <point x="902.5" y="-216.43359375"/>
      <point x="901.5" y="-216.43359375" type="curve"/>
      <point x="889.5" y="-221.43359375"/>
      <point x="830.5" y="-247.43359375"/>
      <point x="778.5" y="-247.43359375" type="curve" smooth="yes"/>
      <point x="740.5" y="-247.43359375"/>
      <point x="714.5" y="-212.43359375"/>
      <point x="714.5" y="-178.43359375" type="curve" smooth="yes"/>
      <point x="714.5" y="-123.43359375"/>
      <point x="746.5" y="-59.43359375"/>
      <point x="820.5" y="-2.43359375" type="curve"/>
      <point x="713.5" y="13.56640625" type="line"/>
      <point x="642.5" y="-27.43359375"/>
      <point x="539.5" y="-102.43359375"/>
      <point x="539.5" y="-225.43359375" type="curve" smooth="yes"/>
      <point x="539.5" y="-339.43359375"/>
      <point x="630.5" y="-393.43359375"/>
    </contour>
    <contour>
      <point x="90.0" y="0.0" type="line"/>
      <point x="545.0" y="1336.0" type="line"/>
      <point x="883.0" y="1336.0" type="line"/>
      <point x="1337.0" y="0.0" type="line"/>
      <point x="1051.0" y="0.0" type="line"/>
      <point x="924.0" y="365.0" type="line"/>
      <point x="498.0" y="365.0" type="line"/>
      <point x="378.0" y="0.0" type="line"/>
    </contour>
    <contour>
      <point x="556.0" y="555.0" type="line"/>
      <point x="868.0" y="555.0" type="line"/>
      <point x="718.0" y="1093.0" type="line"/>
    </contour>
  </outline>
</glyph>
<glyph name="cacute" format="1">
  <advance width="993"/>
  <unicode hex="0107"/>
  <outline>
    <contour>
      <point x="433.5" y="1163" type="line"/>
      <point x="590.5" y="1163" type="line"/>
      <point x="885.5" y="1524" type="line"/>
      <point x="593.5" y="1524" type="line"/>
    </contour>
    <contour>
      <point x="601.0" y="-18" type="curve" smooth="yes"/>
      <point x="792.0" y="-18"/>
      <point x="859.0" y="45"/>
      <point x="895.0" y="64" type="curve"/>
      <point x="862.0" y="247" type="line"/>
      <point x="791.0" y="207"/>
      <point x="717.0" y="178"/>
      <point x="627.0" y="183" type="curve" smooth="yes"/>
      <point x="482.0" y="190"/>
      <point x="375.0" y="292"/>
      <point x="375.0" y="513" type="curve" smooth="yes"/>
      <point x="375.0" y="735"/>
      <point x="490.0" y="833"/>
      <point x="634.0" y="840" type="curve" smooth="yes"/>
      <point x="768.0" y="840"/>
      <point x="807.0" y="797"/>
      <point x="845.0" y="781" type="curve"/>
      <point x="905.0" y="959" type="line"/>
      <point x="819.0" y="1013"/>
      <point x="722.0" y="1041"/>
      <point x="604.0" y="1041" type="curve" smooth="yes"/>
      <point x="327.0" y="1041"/>
      <point x="119.0" y="856"/>
      <point x="119.0" y="516" type="curve" smooth="yes"/>
      <point x="119.0" y="170"/>
      <point x="306.0" y="-18"/>
    </contour>
  </outline>
</glyph>
<glyph name="Ccircumflex" format="1">
  <advance width="1253"/>
  <unicode hex="0108"/>
  <outline>
    <contour>
      <point x="320" y="1479" type="line"/>
      <point x="501" y="1479" type="line"/>
      <point x="643" y="1673" type="line"/>
      <point x="801" y="1479" type="line"/>
      <point x="987" y="1479" type="line"/>
      <point x="751" y="1847" type="line"/>
      <point x="555" y="1847" type="line"/>
    </contour>
    <contour>
      <point x="788" y="-18" type="curve" smooth="yes"/>
      <point x="406" y="-18"/>
      <point x="132" y="236"/>
      <point x="132" y="677" type="curve" smooth="yes"/>
      <point x="132" y="1114"/>
      <point x="404" y="1357"/>
      <point x="779" y="1357" type="curve" smooth="yes"/>
      <point x="918" y="1357"/>
      <point x="1053" y="1318"/>
      <point x="1175" y="1247" type="curve"/>
      <point x="1092" y="1033" type="line"/>
      <point x="996" y="1088"/>
      <point x="883" y="1132"/>
      <point x="765" y="1123" type="curve" smooth="yes"/>
      <point x="598" y="1110"/>
      <point x="420" y="963"/>
      <point x="420" y="671" type="curve" smooth="yes"/>
      <point x="420" y="380"/>
      <point x="568" y="220"/>
      <point x="803" y="213" type="curve" smooth="yes"/>
      <point x="902" y="210"/>
      <point x="994" y="236"/>
      <point x="1094" y="293" type="curve"/>
      <point x="1149" y="75" type="line"/>
      <point x="1025" y="13"/>
      <point x="933" y="-18"/>
    </contour>
  </outline>
</glyph>
<glyph name="Ccaron" format="1">
  <advance width="1253"/>
  <unicode hex="010C"/>
  <outline>
    <contour>
      <point x="558.5" y="1479" type="line"/>
      <point x="748.5" y="1479" type="line"/>
      <point x="996.5" y="1816" type="line"/>
      <point x="791.5" y="1816" type="line"/>
      <point x="641.5" y="1645" type="line"/>
      <point x="511.5" y="1816" type="line"/>
      <point x="310.5" y="1816" type="line"/>
    </contour>
    <contour>
      <point x="788.0" y="-18" type="curve" smooth="yes"/>
      <point x="406.0" y="-18"/>
      <point x="132.0" y="236"/>
      <point x="132.0" y="677" type="curve" smooth="yes"/>
      <point x="132.0" y="1114"/>
      <point x="404.0" y="1357"/>
      <point x="779.0" y="1357" type="curve" smooth="yes"/>
      <point x="918.0" y="1357"/>
      <point x="1053.0" y="1318"/>
      <point x="1175.0" y="1247" type="curve"/>
      <point x="1092.0" y="1033" type="line"/>
      <point x="996.0" y="1088"/>
      <point x="883.0" y="1132"/>
      <point x="765.0" y="1123" type="curve" smooth="yes"/>
      <point x="598.0" y="1110"/>
      <point x="420.0" y="963"/>
      <point x="420.0" y="671" type="curve" smooth="yes"/>
      <point x="420.0" y="380"/>
      <point x="568.0" y="220"/>
      <point x="803.0" y="213" type="curve" smooth="yes"/>
      <point x="902.0" y="210"/>
      <point x="994.0" y="236"/>
      <point x="1094.0" y="293" type="curve"/>
      <point x="1149.0" y="75" type="line"/>
      <point x="1025.0" y="13"/>
      <point x="933.0" y="-18"/>
    </contour>
  </outline>
</glyph>
<glyph name="Dcaron" format="1">
  <advance width="1486"/>
  <unicode hex="010E"/>
  <outline>
    <contour>
      <point x="683" y="1479" type="line"/>
      <point x="873" y="1479" type="line"/>
      <point x="1121" y="1816" type="line"/>
      <point x="916" y="1816" type="line"/>
      <point x="766" y="1645" type="line"/>
      <point x="636" y="1816" type="line"/>
      <point x="435" y="1816" type="line"/>
    </contour>
    <contour>
      <point x="202" y="0" type="line"/>
      <point x="623" y="0" type="line" smooth="yes"/>
      <point x="1066" y="0"/>
      <point x="1354" y="238"/>
      <point x="1354" y="676" type="curve" smooth="yes"/>
      <point x="1354" y="1130"/>
      <point x="1049" y="1336"/>
      <point x="600" y="1336" type="curve" smooth="yes"/>
      <point x="202" y="1336" type="line"/>
    </contour>
    <contour>
      <point x="490" y="1126" type="line"/>
      <point x="611" y="1126" type="line" smooth="yes"/>
      <point x="919" y="1126"/>
      <point x="1067" y="992"/>
      <point x="1067" y="671" type="curve" smooth="yes"/>
      <point x="1067" y="377"/>
      <point x="927" y="216"/>
      <point x="637" y="216" type="curve" smooth="yes"/>
      <point x="490" y="216" type="line"/>
    </contour>
  </outline>
</glyph>
<glyph name="Emacron" format="1">
  <advance width="1164"/>
  <unicode hex="0112"/>
  <outline>
    <contour>
      <point x="202" y="0" type="line"/>
      <point x="1025" y="0" type="line"/>
      <point x="1042" y="216" type="line"/>
      <point x="490" y="216" type="line"/>
      <point x="490" y="595" type="line"/>
      <point x="994" y="595" type="line"/>
      <point x="994" y="805" type="line"/>
      <point x="490" y="805" type="line"/>
      <point x="490" y="1126" type="line"/>
      <point x="1021" y="1126" type="line"/>
      <point x="1032" y="1336" type="line"/>
      <point x="202" y="1336" type="line"/>
    </contour>
    <contour>
      <point x="298" y="1479" type="line"/>
      <point x="946" y="1479" type="line"/>
      <point x="946" y="1638" type="line"/>
      <point x="298" y="1638" type="line"/>
    </contour>
  </outline>
</glyph>
<glyph name="Ebreve" format="1">
  <advance width="1164"/>
  <unicode hex="0114"/>
  <outline>
    <contour>
      <point x="202" y="0" type="line"/>
      <point x="1025" y="0" type="line"/>
      <point x="1042" y="216" type="line"/>
      <point x="490" y="216" type="line"/>
      <point x="490" y="595" type="line"/>
      <point x="994" y="595" type="line"/>
      <point x="994" y="805" type="line"/>
      <point x="490" y="805" type="line"/>
      <point x="490" y="1126" type="line"/>
      <point x="1021" y="1126" type="line"/>
      <point x="1032" y="1336" type="line"/>
      <point x="202" y="1336" type="line"/>
    </contour>
    <contour>
      <point x="353" y="1557"/>
      <point x="469" y="1479"/>
      <point x="621" y="1479" type="curve" smooth="yes"/>
      <point x="774" y="1479"/>
      <point x="891" y="1556"/>
      <point x="891" y="1722" type="curve"/>
      <point x="722" y="1722" type="line"/>
      <point x="722" y="1661"/>
      <point x="695" y="1637"/>
      <point x="621" y="1637" type="curve" smooth="yes"/>
      <point x="547" y="1637"/>
      <point x="521" y="1661"/>
      <point x="521" y="1722" type="curve"/>
      <point x="353" y="1722" type="line"/>
    </contour>
  </outline>
</glyph>
<glyph name="Edotaccent" format="1">
  <advance width="1164"/>
  <unicode hex="0116"/>
  <outline>
    <contour>
      <point x="523" y="1479" type="line"/>
      <point x="721" y="1479" type="line"/>
      <point x="721" y="1691" type="line"/>
      <point x="523" y="1691" type="line"/>
    </contour>
    <contour>
      <point x="490" y="1126" type="line"/>
      <point x="1021" y="1126" type="line"/>
      <point x="1032" y="1336" type="line"/>
      <point x="202" y="1336" type="line"/>
      <point x="202" y="0" type="line"/>
      <point x="1025" y="0" type="line"/>
      <point x="1042" y="216" type="line"/>
      <point x="490" y="216" type="line"/>
      <point x="490" y="595" type="line"/>
      <point x="994" y="595" type="line"/>
      <point x="994" y="805" type="line"/>
      <point x="490" y="805" type="line"/>
    </contour>
  </outline>
</glyph>
<glyph name="Eogonek" format="1">
  <advance width="1164"/>
  <unicode hex="0118"/>
  <outline>
    <contour>
      <point x="448" y="-339"/>
      <point x="539" y="-393"/>
      <point x="643" y="-393" type="curve" smooth="yes"/>
      <point x="702" y="-393"/>
      <point x="763" y="-378"/>
      <point x="818" y="-357" type="curve"/>
      <point x="818" y="-357"/>
      <point x="811" y="-216"/>
      <point x="810" y="-216" type="curve" smooth="yes"/>
      <point x="798" y="-221"/>
      <point x="739" y="-247"/>
      <point x="687" y="-247" type="curve" smooth="yes"/>
      <point x="649" y="-247"/>
      <point x="623" y="-212"/>
      <point x="623" y="-178" type="curve" smooth="yes"/>
      <point x="623" y="-123"/>
      <point x="655" y="-59"/>
      <point x="729" y="-2" type="curve"/>
      <point x="713" y="0" type="line"/>
      <point x="1025" y="0" type="line"/>
      <point x="1042" y="216" type="line"/>
      <point x="490" y="216" type="line"/>
      <point x="490" y="595" type="line"/>
      <point x="994" y="595" type="line"/>
      <point x="994" y="805" type="line"/>
      <point x="490" y="805" type="line"/>
      <point x="490" y="1126" type="line"/>
      <point x="1021" y="1126" type="line"/>
      <point x="1032" y="1336" type="line"/>
      <point x="202" y="1336" type="line"/>
      <point x="202" y="0" type="line"/>
      <point x="600" y="0" type="line"/>
      <point x="532" y="-43"/>
      <point x="448" y="-114"/>
      <point x="448" y="-225" type="curve" smooth="yes"/>
    </contour>
  </outline>
</glyph>
<glyph name="eogonek" format="1">
  <advance width="1119"/>
  <unicode hex="0119"/>
  <outline>
    <contour>
      <point x="536" y="-411.43359375" type="curve" smooth="yes"/>
      <point x="595" y="-411.43359375"/>
      <point x="656" y="-396.43359375"/>
      <point x="711" y="-375.43359375" type="curve"/>
      <point x="711" y="-375.43359375"/>
      <point x="704" y="-234.43359375"/>
      <point x="703" y="-234.43359375" type="curve"/>
      <point x="691" y="-239.43359375"/>
      <point x="632" y="-265.43359375"/>
      <point x="580" y="-265.43359375" type="curve" smooth="yes"/>
      <point x="542" y="-265.43359375"/>
      <point x="516" y="-230.43359375"/>
      <point x="516" y="-196.43359375" type="curve" smooth="yes"/>
      <point x="516" y="-141.43359375"/>
      <point x="548" y="-77.43359375"/>
      <point x="622" y="-20.43359375" type="curve"/>
      <point x="515" y="-4.43359375" type="line"/>
      <point x="444" y="-45.43359375"/>
      <point x="341" y="-120.43359375"/>
      <point x="341" y="-243.43359375" type="curve" smooth="yes"/>
      <point x="341" y="-357.43359375"/>
      <point x="432" y="-411.43359375"/>
    </contour>
    <contour>
      <point x="623" y="-18.0" type="curve" smooth="yes"/>
      <point x="308" y="-18.0"/>
      <point x="119" y="183.0"/>
      <point x="119" y="512.0" type="curve" smooth="yes"/>
      <point x="119" y="830.0"/>
      <point x="297" y="1040.0"/>
      <point x="586" y="1041.0" type="curve" smooth="yes"/>
      <point x="865" y="1041.0"/>
      <point x="1018" y="840.0"/>
      <point x="1018" y="558.0" type="curve" smooth="yes"/>
      <point x="1018" y="543.0"/>
      <point x="1011" y="448.0"/>
      <point x="1011" y="448.0" type="curve"/>
      <point x="378" y="448.0" type="line"/>
      <point x="391" y="273.0"/>
      <point x="474" y="174.0"/>
      <point x="647" y="174.0" type="curve" smooth="yes"/>
      <point x="810" y="174.0"/>
      <point x="902" y="224.0"/>
      <point x="944" y="243.0" type="curve"/>
      <point x="979" y="63.0" type="line"/>
      <point x="883" y="2.0"/>
      <point x="779" y="-18.0"/>
    </contour>
    <contour>
      <point x="384" y="613.0" type="curve"/>
      <point x="778" y="613.0" type="line"/>
      <point x="774" y="760.0"/>
      <point x="704" y="854.0"/>
      <point x="587" y="854.0" type="curve" smooth="yes"/>
      <point x="484" y="854.0"/>
      <point x="403" y="774.0"/>
    </contour>
  </outline>
</glyph>
<glyph name="Gcircumflex" format="1">
  <advance width="1391"/>
  <unicode hex="011C"/>
  <outline>
    <contour>
      <point x="353" y="1479" type="line"/>
      <point x="534" y="1479" type="line"/>
      <point x="676" y="1673" type="line"/>
      <point x="834" y="1479" type="line"/>
      <point x="1020" y="1479" type="line"/>
      <point x="784" y="1847" type="line"/>
      <point x="588" y="1847" type="line"/>
    </contour>
    <contour>
      <point x="778" y="-18" type="curve" smooth="yes"/>
      <point x="378" y="-18"/>
      <point x="132" y="248"/>
      <point x="132" y="672" type="curve" smooth="yes"/>
      <point x="132" y="1105"/>
      <point x="382" y="1357"/>
      <point x="804" y="1357" type="curve" smooth="yes"/>
      <point x="968" y="1357"/>
      <point x="1095" y="1317"/>
      <point x="1223" y="1253" type="curve"/>
      <point x="1134" y="1042" type="line"/>
      <point x="1037" y="1090"/>
      <point x="933" y="1124"/>
      <point x="809" y="1129" type="curve" smooth="yes"/>
      <point x="547" y="1139"/>
      <point x="420" y="964"/>
      <point x="420" y="670" type="curve" smooth="yes"/>
      <point x="420" y="383"/>
      <point x="534" y="213"/>
      <point x="789" y="213" type="curve" smooth="yes"/>
      <point x="868" y="213"/>
      <point x="931" y="222"/>
      <point x="994" y="245" type="curve"/>
      <point x="994" y="519" type="line"/>
      <point x="725" y="519" type="line"/>
      <point x="725" y="727" type="line"/>
      <point x="1241" y="727" type="line"/>
      <point x="1241" y="82" type="line"/>
      <point x="1093" y="17"/>
      <point x="961" y="-18"/>
    </contour>
  </outline>
</glyph>
<glyph name="Gbreve" format="1">
  <advance width="1391"/>
  <unicode hex="011E"/>
  <outline>
    <contour>
      <point x="955.5" y="1722" type="line"/>
      <point x="955.5" y="1556"/>
      <point x="838.5" y="1479"/>
      <point x="685.5" y="1479" type="curve" smooth="yes"/>
      <point x="533.5" y="1479"/>
      <point x="417.5" y="1557"/>
      <point x="417.5" y="1722" type="curve"/>
      <point x="585.5" y="1722" type="line"/>
      <point x="585.5" y="1661"/>
      <point x="611.5" y="1637"/>
      <point x="685.5" y="1637" type="curve" smooth="yes"/>
      <point x="759.5" y="1637"/>
      <point x="786.5" y="1661"/>
      <point x="786.5" y="1722" type="curve"/>
    </contour>
    <contour>
      <point x="778.0" y="-18" type="curve" smooth="yes"/>
      <point x="378.0" y="-18"/>
      <point x="132.0" y="248"/>
      <point x="132.0" y="672" type="curve" smooth="yes"/>
      <point x="132.0" y="1105"/>
      <point x="382.0" y="1357"/>
      <point x="804.0" y="1357" type="curve" smooth="yes"/>
      <point x="968.0" y="1357"/>
      <point x="1095.0" y="1317"/>
      <point x="1223.0" y="1253" type="curve"/>
      <point x="1134.0" y="1042" type="line"/>
      <point x="1037.0" y="1090"/>
      <point x="933.0" y="1124"/>
      <point x="809.0" y="1129" type="curve" smooth="yes"/>
      <point x="547.0" y="1139"/>
      <point x="420.0" y="964"/>
      <point x="420.0" y="670" type="curve" smooth="yes"/>
      <point x="420.0" y="383"/>
      <point x="534.0" y="213"/>
      <point x="789.0" y="213" type="curve" smooth="yes"/>
      <point x="868.0" y="213"/>
      <point x="931.0" y="222"/>
      <point x="994.0" y="245" type="curve"/>
      <point x="994.0" y="519" type="line"/>
      <point x="725.0" y="519" type="line"/>
      <point x="725.0" y="727" type="line"/>
      <point x="1241.0" y="727" type="line"/>
      <point x="1241.0" y="82" type="line"/>
      <point x="1093.0" y="17"/>
      <point x="961.0" y="-18"/>
    </contour>
  </outline>
</glyph>
<glyph name="Gdotaccent" format="1">
  <advance width="1391"/>
  <unicode hex="0120"/>
  <outline>
    <contour>
      <point x="587.5" y="1479" type="line"/>
      <point x="785.5" y="1479" type="line"/>
      <point x="785.5" y="1691" type="line"/>
      <point x="587.5" y="1691" type="line"/>
    </contour>
    <contour>
      <point x="778.0" y="-18" type="curve" smooth="yes"/>
      <point x="378.0" y="-18"/>
      <point x="132.0" y="248"/>
      <point x="132.0" y="672" type="curve" smooth="yes"/>
      <point x="132.0" y="1105"/>
      <point x="382.0" y="1357"/>
      <point x="804.0" y="1357" type="curve" smooth="yes"/>
      <point x="968.0" y="1357"/>
      <point x="1095.0" y="1317"/>
      <point x="1223.0" y="1253" type="curve"/>
      <point x="1134.0" y="1042" type="line"/>
      <point x="1037.0" y="1090"/>
      <point x="933.0" y="1124"/>
      <point x="809.0" y="1129" type="curve" smooth="yes"/>
      <point x="547.0" y="1139"/>
      <point x="420.0" y="964"/>
      <point x="420.0" y="670" type="curve" smooth="yes"/>
      <point x="420.0" y="383"/>
      <point x="534.0" y="213"/>
      <point x="789.0" y="213" type="curve" smooth="yes"/>
      <point x="868.0" y="213"/>
      <point x="931.0" y="222"/>
      <point x="994.0" y="245" type="curve"/>
      <point x="994.0" y="519" type="line"/>
      <point x="725.0" y="519" type="line"/>
      <point x="725.0" y="727" type="line"/>
      <point x="1241.0" y="727" type="line"/>
      <point x="1241.0" y="82" type="line"/>
      <point x="1093.0" y="17"/>
      <point x="961.0" y="-18"/>
    </contour>
  </outline>
</glyph>
<glyph name="gcommaaccent" format="1">
  <advance width="1120"/>
  <unicode hex="0123"/>
  <outline>
    <contour>
      <point x="256" y="-405"/>
      <point x="369" y="-439"/>
      <point x="516" y="-439" type="curve" smooth="yes"/>
      <point x="896" y="-439"/>
      <point x="1034" y="-166"/>
      <point x="1034" y="185" type="curve" smooth="yes"/>
      <point x="1034" y="1017" type="line"/>
      <point x="807" y="1017" type="line"/>
      <point x="793" y="903" type="line"/>
      <point x="737" y="991"/>
      <point x="643" y="1041"/>
      <point x="511" y="1041" type="curve" smooth="yes"/>
      <point x="276" y="1041"/>
      <point x="72" y="854"/>
      <point x="72" y="519" type="curve" smooth="yes"/>
      <point x="72" y="213"/>
      <point x="263" y="0"/>
      <point x="523" y="0" type="curve" smooth="yes"/>
      <point x="661" y="0"/>
      <point x="745" y="68"/>
      <point x="783" y="136" type="curve"/>
      <point x="785" y="119"/>
      <point x="786" y="103"/>
      <point x="786" y="87" type="curve" smooth="yes"/>
      <point x="786" y="-85"/>
      <point x="709" y="-237"/>
      <point x="491" y="-237" type="curve" smooth="yes"/>
      <point x="393" y="-237"/>
      <point x="275" y="-209"/>
      <point x="275" y="-209" type="curve"/>
      <point x="264" y="-207" type="line"/>
      <point x="248" y="-402" type="line"/>
      <point x="255" y="-405" type="line" smooth="yes"/>
    </contour>
    <contour>
      <point x="787" y="323"/>
      <point x="729" y="195"/>
      <point x="559" y="195" type="curve" smooth="yes"/>
      <point x="410" y="195"/>
      <point x="327" y="343"/>
      <point x="327" y="526" type="curve" smooth="yes"/>
      <point x="327" y="716"/>
      <point x="406" y="843"/>
      <point x="572" y="843" type="curve"/>
      <point x="715" y="841"/>
      <point x="789" y="733"/>
      <point x="789" y="536" type="curve" smooth="yes"/>
      <point x="789" y="508" type="line"/>
    </contour>
    <contour>
      <point x="388" y="1098" type="line"/>
      <point x="606" y="1098" type="line"/>
      <point x="707" y="1577" type="line"/>
      <point x="540" y="1577" type="line"/>
    </contour>
  </outline>
</glyph>
<glyph name="Hcircumflex" format="1">
  <advance width="1547"/>
  <unicode hex="0124"/>
  <outline>
    <contour>
      <point x="440" y="1479" type="line"/>
      <point x="621" y="1479" type="line"/>
      <point x="763" y="1673" type="line"/>
      <point x="921" y="1479" type="line"/>
      <point x="1107" y="1479" type="line"/>
      <point x="871" y="1847" type="line"/>
      <point x="675" y="1847" type="line"/>
    </contour>
    <contour>
      <point x="490" y="793" type="line"/>
      <point x="1057" y="793" type="line"/>
      <point x="1057" y="1336" type="line"/>
      <point x="1345" y="1336" type="line"/>
      <point x="1345" y="0" type="line"/>
      <point x="1057" y="0" type="line"/>
      <point x="1057" y="578" type="line"/>
      <point x="490" y="578" type="line"/>
      <point x="490" y="0" type="line"/>
      <point x="202" y="0" type="line"/>
      <point x="202" y="1336" type="line"/>
      <point x="490" y="1336" type="line"/>
    </contour>
  </outline>
</glyph>
<glyph name="hcircumflex" format="1">
  <advance width="1200"/>
  <unicode hex="0125"/>
  <outline>
    <contour>
      <point x="274.5" y="1515" type="line"/>
      <point x="455.5" y="1515" type="line"/>
      <point x="597.5" y="1709" type="line"/>
      <point x="755.5" y="1515" type="line"/>
      <point x="941.5" y="1515" type="line"/>
      <point x="705.5" y="1883" type="line"/>
      <point x="509.5" y="1883" type="line"/>
    </contour>
    <contour>
      <point x="159.0" y="1376" type="line"/>
      <point x="415.0" y="1393" type="line"/>
      <point x="415.0" y="1102" type="line" smooth="yes"/>
      <point x="415.0" y="1074"/>
      <point x="410.0" y="970"/>
      <point x="408.0" y="918" type="curve"/>
      <point x="466.0" y="979"/>
      <point x="560.0" y="1041"/>
      <point x="704.0" y="1041" type="curve" smooth="yes"/>
      <point x="918.0" y="1041"/>
      <point x="1057.0" y="918"/>
      <point x="1057.0" y="641" type="curve" smooth="yes"/>
      <point x="1057.0" y="0" type="line"/>
      <point x="801.0" y="0" type="line"/>
      <point x="801.0" y="618" type="line" smooth="yes"/>
      <point x="801.0" y="775"/>
      <point x="763.0" y="844"/>
      <point x="648.0" y="844" type="curve" smooth="yes"/>
      <point x="459.084960938" y="844"/>
      <point x="412.0" y="699.134765625"/>
      <point x="412.0" y="491.0" type="curve" smooth="yes"/>
      <point x="412.0" y="0.0" type="line"/>
      <point x="159.0" y="0.0" type="line"/>
    </contour>
  </outline>
</glyph>
<glyph name="Itilde" format="1">
  <advance width="692"/>
  <unicode hex="0128"/>
  <outline>
    <contour>
      <point x="178" y="1479" type="line"/>
      <point x="178" y="1479"/>
      <point x="191" y="1569"/>
      <point x="212" y="1569" type="curve" smooth="yes"/>
      <point x="269" y="1569"/>
      <point x="403" y="1479"/>
      <point x="504" y="1479" type="curve" smooth="yes"/>
      <point x="652" y="1479"/>
      <point x="662" y="1721"/>
      <point x="662" y="1721" type="curve"/>
      <point x="512" y="1721" type="line"/>
      <point x="512" y="1721"/>
      <point x="500" y="1637"/>
      <point x="480" y="1636" type="curve"/>
      <point x="449" y="1636"/>
      <point x="313" y="1721"/>
      <point x="192" y="1721" type="curve" smooth="yes"/>
      <point x="44" y="1721"/>
      <point x="30" y="1583"/>
      <point x="30" y="1489" type="curve"/>
    </contour>
    <contour>
      <point x="202" y="0" type="line"/>
      <point x="490" y="0" type="line"/>
      <point x="490" y="1336" type="line"/>
      <point x="202" y="1336" type="line"/>
    </contour>
  </outline>
</glyph>
<glyph name="itilde" format="1">
  <advance width="480"/>
  <unicode hex="0129"/>
  <outline>
    <contour>
      <point x="-83" y="1173" type="line"/>
      <point x="-83" y="1267"/>
      <point x="-69" y="1405"/>
      <point x="79" y="1405" type="curve" smooth="yes"/>
      <point x="200" y="1405"/>
      <point x="335" y="1320"/>
      <point x="366" y="1320" type="curve" smooth="yes"/>
      <point x="386" y="1321"/>
      <point x="398" y="1405"/>
      <point x="398" y="1405" type="curve"/>
      <point x="548" y="1405" type="line"/>
      <point x="548" y="1405"/>
      <point x="538" y="1163"/>
      <point x="390" y="1163" type="curve" smooth="yes"/>
      <point x="289" y="1163"/>
      <point x="156" y="1253"/>
      <point x="99" y="1253" type="curve" smooth="yes"/>
      <point x="78" y="1253"/>
      <point x="64" y="1163"/>
      <point x="64" y="1163" type="curve"/>
    </contour>
    <contour>
      <point x="109" y="0" type="line"/>
      <point x="356" y="0" type="line"/>
      <point x="356" y="1016" type="line"/>
      <point x="109" y="1016" type="line"/>
    </contour>
  </outline>
</glyph>
<glyph name="Imacron" format="1">
  <advance width="692"/>
  <unicode hex="012A"/>
  <outline>
    <contour>
      <point x="202" y="0" type="line"/>
      <point x="490" y="0" type="line"/>
      <point x="490" y="1336" type="line"/>
      <point x="202" y="1336" type="line"/>
    </contour>
    <contour>
      <point x="22" y="1479" type="line"/>
      <point x="670" y="1479" type="line"/>
      <point x="670" y="1638" type="line"/>
      <point x="22" y="1638" type="line"/>
    </contour>
  </outline>
</glyph>
<glyph name="Ibreve" format="1">
  <advance width="692"/>
  <unicode hex="012C"/>
  <outline>
    <contour>
      <point x="615" y="1722" type="line"/>
      <point x="615" y="1556"/>
      <point x="498" y="1479"/>
      <point x="345" y="1479" type="curve" smooth="yes"/>
      <point x="193" y="1479"/>
      <point x="77" y="1557"/>
      <point x="77" y="1722" type="curve"/>
      <point x="245" y="1722" type="line"/>
      <point x="245" y="1661"/>
      <point x="271" y="1637"/>
      <point x="345" y="1637" type="curve" smooth="yes"/>
      <point x="419" y="1637"/>
      <point x="446" y="1661"/>
      <point x="446" y="1722" type="curve"/>
    </contour>
    <contour>
      <point x="202" y="0" type="line"/>
      <point x="490" y="0" type="line"/>
      <point x="490" y="1336" type="line"/>
      <point x="202" y="1336" type="line"/>
    </contour>
  </outline>
</glyph>
<glyph name="ibreve" format="1">
  <advance width="480"/>
  <unicode hex="012D"/>
  <outline>
    <contour>
      <point x="501.5" y="1406" type="line"/>
      <point x="501.5" y="1240"/>
      <point x="384.5" y="1163"/>
      <point x="231.5" y="1163" type="curve" smooth="yes"/>
      <point x="79.5" y="1163"/>
      <point x="-36.5" y="1241"/>
      <point x="-36.5" y="1406" type="curve"/>
      <point x="131.5" y="1406" type="line"/>
      <point x="131.5" y="1345"/>
      <point x="157.5" y="1321"/>
      <point x="231.5" y="1321" type="curve" smooth="yes"/>
      <point x="305.5" y="1321"/>
      <point x="332.5" y="1345"/>
      <point x="332.5" y="1406" type="curve"/>
    </contour>
    <contour>
      <point x="109.0" y="0" type="line"/>
      <point x="356.0" y="0" type="line"/>
      <point x="356.0" y="1016" type="line"/>
      <point x="109.0" y="1016" type="line"/>
    </contour>
  </outline>
</glyph>
<glyph name="Iogonek" format="1">
  <advance width="692"/>
  <unicode hex="012E"/>
  <outline>
    <contour>
      <point x="313.5" y="-393.43359375" type="curve" smooth="yes"/>
      <point x="372.5" y="-393.43359375"/>
      <point x="433.5" y="-378.43359375"/>
      <point x="488.5" y="-357.43359375" type="curve"/>
      <point x="488.5" y="-357.43359375"/>
      <point x="481.5" y="-216.43359375"/>
      <point x="480.5" y="-216.43359375" type="curve"/>
      <point x="468.5" y="-221.43359375"/>
      <point x="409.5" y="-247.43359375"/>
      <point x="357.5" y="-247.43359375" type="curve" smooth="yes"/>
      <point x="319.5" y="-247.43359375"/>
      <point x="293.5" y="-212.43359375"/>
      <point x="293.5" y="-178.43359375" type="curve" smooth="yes"/>
      <point x="293.5" y="-123.43359375"/>
      <point x="325.5" y="-59.43359375"/>
      <point x="399.5" y="-2.43359375" type="curve"/>
      <point x="292.5" y="13.56640625" type="line"/>
      <point x="221.5" y="-27.43359375"/>
      <point x="118.5" y="-102.43359375"/>
      <point x="118.5" y="-225.43359375" type="curve" smooth="yes"/>
      <point x="118.5" y="-339.43359375"/>
      <point x="209.5" y="-393.43359375"/>
    </contour>
    <contour>
      <point x="202.0" y="0.0" type="line"/>
      <point x="490.0" y="0.0" type="line"/>
      <point x="490.0" y="1336.0" type="line"/>
      <point x="202.0" y="1336.0" type="line"/>
    </contour>
  </outline>
</glyph>
<glyph name="iogonek" format="1">
  <advance width="574"/>
  <unicode hex="012F"/>
  <outline>
    <contour>
      <point x="254.5" y="-393.43359375" type="curve" smooth="yes"/>
      <point x="313.5" y="-393.43359375"/>
      <point x="374.5" y="-378.43359375"/>
      <point x="429.5" y="-357.43359375" type="curve"/>
      <point x="429.5" y="-357.43359375"/>
      <point x="422.5" y="-216.43359375"/>
      <point x="421.5" y="-216.43359375" type="curve"/>
      <point x="409.5" y="-221.43359375"/>
      <point x="350.5" y="-247.43359375"/>
      <point x="298.5" y="-247.43359375" type="curve" smooth="yes"/>
      <point x="260.5" y="-247.43359375"/>
      <point x="234.5" y="-212.43359375"/>
      <point x="234.5" y="-178.43359375" type="curve" smooth="yes"/>
      <point x="234.5" y="-123.43359375"/>
      <point x="266.5" y="-59.43359375"/>
      <point x="340.5" y="-2.43359375" type="curve"/>
      <point x="233.5" y="13.56640625" type="line"/>
      <point x="162.5" y="-27.43359375"/>
      <point x="59.5" y="-102.43359375"/>
      <point x="59.5" y="-225.43359375" type="curve" smooth="yes"/>
      <point x="59.5" y="-339.43359375"/>
      <point x="150.5" y="-393.43359375"/>
    </contour>
    <contour>
      <point x="159.0" y="1157.0" type="line"/>
      <point x="415.0" y="1157.0" type="line"/>
      <point x="415.0" y="1375.0" type="line"/>
      <point x="159.0" y="1375.0" type="line"/>
    </contour>
    <contour>
      <point x="159.0" y="0.0" type="line"/>
      <point x="415.0" y="0.0" type="line"/>
      <point x="415.0" y="1016.0" type="line"/>
      <point x="159.0" y="1016.0" type="line"/>
    </contour>
  </outline>
</glyph>
<glyph name="Idotaccent" format="1">
  <advance width="692"/>
  <unicode hex="0130"/>
  <outline>
    <contour>
      <point x="202" y="0" type="line"/>
      <point x="490" y="0" type="line"/>
      <point x="490" y="1336" type="line"/>
      <point x="202" y="1336" type="line"/>
    </contour>
    <contour>
      <point x="247" y="1479" type="line"/>
      <point x="445" y="1479" type="line"/>
      <point x="445" y="1691" type="line"/>
      <point x="247" y="1691" type="line"/>
    </contour>
  </outline>
</glyph>
<glyph name="dotlessi" format="1">
  <advance width="480"/>
  <unicode hex="0131"/>
  <outline>
    <contour>
      <point x="109" y="0" type="line"/>
      <point x="109" y="1016" type="line"/>
      <point x="356" y="1016" type="line"/>
      <point x="356" y="0" type="line"/>
    </contour>
  </outline>
</glyph>
<glyph name="IJ" format="1">
  <advance width="1083"/>
  <unicode hex="0132"/>
  <outline>
    <contour>
      <point x="501" y="-285" type="curve"/>
      <point x="489" y="-75" type="line"/>
      <point x="528" y="-82"/>
      <point x="569" y="-84"/>
      <point x="592" y="-84" type="curve" smooth="yes"/>
      <point x="724" y="-84"/>
      <point x="751" y="-21"/>
      <point x="751" y="126" type="curve" smooth="yes"/>
      <point x="751" y="1342" type="line"/>
      <point x="1039" y="1342" type="line"/>
      <point x="1039" y="144" type="line" smooth="yes"/>
      <point x="1039" y="-153"/>
      <point x="910" y="-293"/>
      <point x="594" y="-293" type="curve" smooth="yes"/>
      <point x="564" y="-293"/>
      <point x="532" y="-292"/>
    </contour>
    <contour>
      <point x="130" y="0" type="line"/>
      <point x="130" y="1342" type="line"/>
      <point x="418" y="1342" type="line"/>
      <point x="418" y="0" type="line"/>
    </contour>
  </outline>
</glyph>
<glyph name="ij" format="1">
  <advance width="908"/>
  <unicode hex="0133"/>
  <outline>
    <contour>
      <point x="130" y="0" type="line"/>
      <point x="384" y="0" type="line"/>
      <point x="384" y="1017" type="line"/>
      <point x="130" y="1017" type="line"/>
    </contour>
    <contour>
      <point x="471" y="-379" type="line" smooth="yes"/>
      <point x="789" y="-379"/>
      <point x="851" y="-240"/>
      <point x="851" y="40" type="curve" smooth="yes"/>
      <point x="851" y="1017" type="line"/>
      <point x="598" y="1017" type="line"/>
      <point x="598" y="-4" type="line" smooth="yes"/>
      <point x="598" y="-149"/>
      <point x="585" y="-187"/>
      <point x="444" y="-187" type="curve" smooth="yes"/>
      <point x="382" y="-187" type="line"/>
      <point x="411" y="-379" type="line"/>
    </contour>
    <contour>
      <point x="130" y="1139" type="line"/>
      <point x="384" y="1139" type="line"/>
      <point x="384" y="1357" type="line"/>
      <point x="130" y="1357" type="line"/>
    </contour>
    <contour>
      <point x="851" y="1139" type="line"/>
      <point x="851" y="1357" type="line"/>
      <point x="598" y="1357" type="line"/>
      <point x="598" y="1139" type="line"/>
    </contour>
  </outline>
</glyph>
<glyph name="Jcircumflex" format="1">
  <advance width="780"/>
  <unicode hex="0134"/>
  <outline>
    <contour>
      <point x="-30.5" y="1479" type="line"/>
      <point x="150.5" y="1479" type="line"/>
      <point x="292.5" y="1673" type="line"/>
      <point x="450.5" y="1479" type="line"/>
      <point x="636.5" y="1479" type="line"/>
      <point x="400.5" y="1847" type="line"/>
      <point x="204.5" y="1847" type="line"/>
    </contour>
    <contour>
      <point x="40.0" y="-285" type="curve"/>
      <point x="28.0" y="-75" type="line"/>
      <point x="207.0" y="-69"/>
      <point x="290.0" y="-21"/>
      <point x="290.0" y="126" type="curve" smooth="yes"/>
      <point x="290.0" y="1336" type="line"/>
      <point x="578.0" y="1336" type="line"/>
      <point x="578.0" y="144" type="line" smooth="yes"/>
      <point x="578.0" y="-153"/>
      <point x="401.0" y="-282"/>
    </contour>
  </outline>
</glyph>
<glyph name="Kcommaaccent" format="1">
  <advance width="1361"/>
  <unicode hex="0136"/>
  <outline>
    <contour>
      <point x="202" y="0" type="line"/>
      <point x="490" y="0" type="line"/>
      <point x="490" y="537" type="line"/>
      <point x="561" y="611" type="line"/>
      <point x="974" y="0" type="line"/>
      <point x="1300" y="0" type="line"/>
      <point x="798" y="732" type="line"/>
      <point x="1290" y="1336" type="line"/>
      <point x="958" y="1336" type="line"/>
      <point x="490" y="775" type="line"/>
      <point x="490" y="1336" type="line"/>
      <point x="202" y="1336" type="line"/>
    </contour>
    <contour>
      <point x="590" y="-601" type="line"/>
      <point x="758" y="-601" type="line"/>
      <point x="912" y="-122" type="line"/>
      <point x="690" y="-122" type="line"/>
    </contour>
  </outline>
</glyph>
<glyph name="kcommaaccent" format="1">
  <advance width="1158"/>
  <unicode hex="0137"/>
  <outline>
    <contour>
      <point x="477.5" y="-601" type="line"/>
      <point x="645.5" y="-601" type="line"/>
      <point x="800.5" y="-122" type="line"/>
      <point x="578.5" y="-122" type="line"/>
    </contour>
    <contour>
      <point x="159.0" y="1376" type="line"/>
      <point x="159.0" y="0" type="line"/>
      <point x="415.0" y="0" type="line"/>
      <point x="415.0" y="354" type="line"/>
      <point x="499.0" y="432" type="line"/>
      <point x="818.0" y="0" type="line"/>
      <point x="1119.0" y="0" type="line"/>
      <point x="706.0" y="555" type="line"/>
      <point x="1095.0" y="1016" type="line"/>
      <point x="772.0" y="1016" type="line"/>
      <point x="410.0" y="582" type="line"/>
      <point x="415.0" y="785" type="line"/>
      <point x="415.0" y="1392" type="line"/>
    </contour>
  </outline>
</glyph>
<glyph name="Lacute" format="1">
  <advance width="1103"/>
  <unicode hex="0139"/>
  <outline>
    <contour>
      <point x="202" y="0" type="line"/>
      <point x="1009" y="0" type="line"/>
      <point x="1023" y="216" type="line"/>
      <point x="490" y="216" type="line"/>
      <point x="490" y="1336" type="line"/>
      <point x="202" y="1336" type="line"/>
    </contour>
    <contour>
      <point x="534" y="1479" type="line"/>
      <point x="691" y="1479" type="line"/>
      <point x="986" y="1840" type="line"/>
      <point x="694" y="1840" type="line"/>
    </contour>
  </outline>
</glyph>
<glyph name="Lcommaaccent" format="1">
  <advance width="1103"/>
  <unicode hex="013B"/>
  <outline>
    <contour>
      <point x="451" y="-601" type="line"/>
      <point x="619" y="-601" type="line"/>
      <point x="774" y="-122" type="line"/>
      <point x="552" y="-122" type="line"/>
    </contour>
    <contour>
      <point x="1023" y="216" type="line"/>
      <point x="490" y="216" type="line"/>
      <point x="490" y="1336" type="line"/>
      <point x="202" y="1336" type="line"/>
      <point x="202" y="0" type="line"/>
      <point x="1009" y="0" type="line"/>
    </contour>
  </outline>
</glyph>
<glyph name="Lcaron" format="1">
  <advance width="1103"/>
  <unicode hex="013D"/>
  <outline>
    <contour>
      <point x="202" y="0" type="line"/>
      <point x="1009" y="0" type="line"/>
      <point x="1023" y="216" type="line"/>
      <point x="490" y="216" type="line"/>
      <point x="490" y="1336" type="line"/>
      <point x="202" y="1336" type="line"/>
    </contour>
    <contour>
      <point x="1212" y="877" type="line"/>
      <point x="1357" y="877" type="line"/>
      <point x="1408" y="1357" type="line"/>
      <point x="1206" y="1357" type="line"/>
    </contour>
  </outline>
</glyph>
<glyph name="Ldot" format="1">
  <advance width="937"/>
  <unicode hex="013F"/>
  <outline>
    <contour>
      <point x="128" y="0" type="line"/>
      <point x="128" y="1342" type="line"/>
      <point x="416" y="1342" type="line"/>
      <point x="416" y="213" type="line"/>
      <point x="953" y="213" type="line"/>
      <point x="946" y="0" type="line"/>
    </contour>
  </outline>
</glyph>
<glyph name="lslash" format="1">
  <advance width="597"/>
  <unicode hex="0142"/>
  <outline>
    <contour>
      <point x="120" y="131"/>
      <point x="174" y="-13"/>
      <point x="464" y="-13" type="curve" smooth="yes"/>
      <point x="506" y="-13"/>
      <point x="601" y="-2"/>
      <point x="612" y="-1" type="curve" smooth="yes"/>
      <point x="621" y="0" type="line"/>
      <point x="605" y="189" type="line"/>
      <point x="595" y="188" type="line" smooth="yes"/>
      <point x="584" y="187"/>
      <point x="515" y="181"/>
      <point x="505" y="181" type="curve" smooth="yes"/>
      <point x="372" y="181"/>
      <point x="367" y="226"/>
      <point x="367" y="404" type="curve" smooth="yes"/>
      <point x="367" y="771" type="line"/>
      <point x="507" y="859" type="line"/>
      <point x="507" y="1049" type="line"/>
      <point x="367" y="963" type="line"/>
      <point x="367" y="1384" type="line"/>
      <point x="366" y="1385"/>
      <point x="366" y="1386"/>
      <point x="365" y="1387" type="curve"/>
      <point x="120" y="1368" type="line"/>
      <point x="120" y="807" type="line"/>
      <point x="21" y="747" type="line"/>
      <point x="21" y="559" type="line"/>
      <point x="120" y="619" type="line"/>
      <point x="120" y="424" type="line" smooth="yes"/>
    </contour>
  </outline>
</glyph>
<glyph name="Nacute" format="1">
  <advance width="1541"/>
  <unicode hex="0143"/>
  <outline>
    <contour>
      <point x="692" y="1479" type="line"/>
      <point x="849" y="1479" type="line"/>
      <point x="1144" y="1840" type="line"/>
      <point x="852" y="1840" type="line"/>
    </contour>
    <contour>
      <point x="1087" y="350" type="curve"/>
      <point x="494" y="1336" type="line"/>
      <point x="202" y="1336" type="line"/>
      <point x="202" y="0" type="line"/>
      <point x="479" y="0" type="line"/>
      <point x="479" y="409" type="line" smooth="yes"/>
      <point x="479" y="430"/>
      <point x="451" y="961"/>
      <point x="451" y="961" type="curve"/>
      <point x="1036" y="0" type="line"/>
      <point x="1339" y="0" type="line"/>
      <point x="1339" y="1336" type="line"/>
      <point x="1068" y="1336" type="line"/>
      <point x="1068" y="795" type="line" smooth="yes"/>
      <point x="1068" y="787"/>
      <point x="1087" y="350"/>
    </contour>
  </outline>
</glyph>
<glyph name="nacute" format="1">
  <advance width="1203"/>
  <unicode hex="0144"/>
  <outline>
    <contour>
      <point x="531" y="1163" type="line"/>
      <point x="688" y="1163" type="line"/>
      <point x="983" y="1524" type="line"/>
      <point x="691" y="1524" type="line"/>
    </contour>
    <contour>
      <point x="159" y="0" type="line"/>
      <point x="159" y="1016" type="line"/>
      <point x="367" y="1016" type="line"/>
      <point x="391" y="902" type="line"/>
      <point x="471" y="979"/>
      <point x="571" y="1041"/>
      <point x="712" y="1041" type="curve" smooth="yes"/>
      <point x="947" y="1041"/>
      <point x="1060" y="891"/>
      <point x="1060" y="640" type="curve" smooth="yes"/>
      <point x="1060" y="0" type="line"/>
      <point x="804" y="0" type="line"/>
      <point x="804" y="612" type="line" smooth="yes"/>
      <point x="803" y="761"/>
      <point x="773" y="844"/>
      <point x="647" y="844" type="curve" smooth="yes"/>
      <point x="451.9609375" y="844"/>
      <point x="415.0" y="708.946289062"/>
      <point x="415.0" y="496.0" type="curve" smooth="yes"/>
      <point x="415.0" y="0.0" type="line"/>
    </contour>
  </outline>
</glyph>
<glyph name="Ncommaaccent" format="1">
  <advance width="1541"/>
  <unicode hex="0145"/>
  <outline>
    <contour>
      <point x="609" y="-601" type="line"/>
      <point x="777" y="-601" type="line"/>
      <point x="932" y="-122" type="line"/>
      <point x="710" y="-122" type="line"/>
    </contour>
    <contour>
      <point x="1087" y="350" type="curve"/>
      <point x="494" y="1336" type="line"/>
      <point x="202" y="1336" type="line"/>
      <point x="202" y="0" type="line"/>
      <point x="479" y="0" type="line"/>
      <point x="479" y="409" type="line" smooth="yes"/>
      <point x="479" y="430"/>
      <point x="451" y="961"/>
      <point x="451" y="961" type="curve"/>
      <point x="1036" y="0" type="line"/>
      <point x="1339" y="0" type="line"/>
      <point x="1339" y="1336" type="line"/>
      <point x="1068" y="1336" type="line"/>
      <point x="1068" y="795" type="line" smooth="yes"/>
      <point x="1068" y="787"/>
      <point x="1087" y="350"/>
    </contour>
  </outline>
</glyph>
<glyph name="Ncaron" format="1">
  <advance width="1541"/>
  <unicode hex="0147"/>
  <outline>
    <contour>
      <point x="675.5" y="1479" type="line"/>
      <point x="865.5" y="1479" type="line"/>
      <point x="1113.5" y="1816" type="line"/>
      <point x="908.5" y="1816" type="line"/>
      <point x="758.5" y="1645" type="line"/>
      <point x="628.5" y="1816" type="line"/>
      <point x="427.5" y="1816" type="line"/>
    </contour>
    <contour>
      <point x="1087.0" y="350" type="curve"/>
      <point x="494.0" y="1336" type="line"/>
      <point x="202.0" y="1336" type="line"/>
      <point x="202.0" y="0" type="line"/>
      <point x="479.0" y="0" type="line"/>
      <point x="479.0" y="409" type="line" smooth="yes"/>
      <point x="479.0" y="430"/>
      <point x="451.0" y="961"/>
      <point x="451.0" y="961" type="curve"/>
      <point x="1036.0" y="0" type="line"/>
      <point x="1339.0" y="0" type="line"/>
      <point x="1339.0" y="1336" type="line"/>
      <point x="1068.0" y="1336" type="line"/>
      <point x="1068.0" y="795" type="line" smooth="yes"/>
      <point x="1068.0" y="787"/>
      <point x="1087.0" y="350"/>
    </contour>
  </outline>
</glyph>
<glyph name="Eng" format="1">
  <advance width="1246"/>
  <unicode hex="014A"/>
  <outline>
    <contour>
      <point x="738" y="-305" type="curve" smooth="yes"/>
      <point x="1082" y="-305"/>
      <point x="1216" y="-148"/>
      <point x="1216" y="143" type="curve" smooth="yes"/>
      <point x="1216" y="874" type="line" smooth="yes"/>
      <point x="1216" y="1177"/>
      <point x="1071" y="1363"/>
      <point x="782" y="1363" type="curve" smooth="yes"/>
      <point x="640" y="1363"/>
      <point x="467" y="1297"/>
      <point x="374" y="1195" type="curve"/>
      <point x="352" y="1342" type="line"/>
      <point x="96" y="1342" type="line"/>
      <point x="96" y="0" type="line"/>
      <point x="384" y="0" type="line"/>
      <point x="384" y="963" type="line"/>
      <point x="463" y="1099"/>
      <point x="616" y="1155"/>
      <point x="722" y="1155" type="curve" smooth="yes"/>
      <point x="869" y="1155"/>
      <point x="928" y="1077"/>
      <point x="928" y="864" type="curve" smooth="yes"/>
      <point x="928" y="139" type="line" smooth="yes"/>
      <point x="928" y="-27"/>
      <point x="901" y="-79"/>
      <point x="742" y="-79" type="curve" smooth="yes"/>
      <point x="737" y="-79"/>
      <point x="677" y="-78"/>
      <point x="637" y="-75" type="curve"/>
      <point x="657" y="-301" type="line"/>
      <point x="692" y="-305"/>
      <point x="732" y="-305"/>
    </contour>
  </outline>
</glyph>
<glyph name="Obreve" format="1">
  <advance width="1566"/>
  <unicode hex="014E"/>
  <outline>
    <contour>
      <point x="514" y="1557"/>
      <point x="630" y="1479"/>
      <point x="782" y="1479" type="curve" smooth="yes"/>
      <point x="935" y="1479"/>
      <point x="1052" y="1556"/>
      <point x="1052" y="1722" type="curve"/>
      <point x="883" y="1722" type="line"/>
      <point x="883" y="1661"/>
      <point x="856" y="1637"/>
      <point x="782" y="1637" type="curve" smooth="yes"/>
      <point x="708" y="1637"/>
      <point x="682" y="1661"/>
      <point x="682" y="1722" type="curve"/>
      <point x="514" y="1722" type="line"/>
    </contour>
    <contour>
      <point x="1146" y="393"/>
      <point x="1012" y="210"/>
      <point x="784" y="210" type="curve" smooth="yes"/>
      <point x="556" y="210"/>
      <point x="420" y="393"/>
      <point x="420" y="667" type="curve" smooth="yes"/>
      <point x="420" y="946"/>
      <point x="557" y="1127"/>
      <point x="784" y="1127" type="curve" smooth="yes"/>
      <point x="1011" y="1127"/>
      <point x="1146" y="946"/>
      <point x="1146" y="667" type="curve" smooth="yes"/>
    </contour>
    <contour>
      <point x="132" y="237"/>
      <point x="391" y="-18"/>
      <point x="784" y="-18" type="curve" smooth="yes"/>
      <point x="1177" y="-18"/>
      <point x="1434" y="237"/>
      <point x="1434" y="669" type="curve" smooth="yes"/>
      <point x="1434" y="1105"/>
      <point x="1175" y="1357"/>
      <point x="784" y="1357" type="curve" smooth="yes"/>
      <point x="393" y="1357"/>
      <point x="132" y="1105"/>
      <point x="132" y="669" type="curve" smooth="yes"/>
    </contour>
  </outline>
</glyph>
<glyph name="ohungarumlaut" format="1">
  <advance width="1198"/>
  <unicode hex="0151"/>
  <outline>
    <contour>
      <point x="665.5" y="1163" type="line"/>
      <point x="806.5" y="1163" type="line"/>
      <point x="1131.5" y="1503" type="line"/>
      <point x="902.5" y="1503" type="line"/>
    </contour>
    <contour>
      <point x="391.5" y="1163" type="line"/>
      <point x="534.5" y="1163" type="line"/>
      <point x="849.5" y="1503" type="line"/>
      <point x="623.5" y="1503" type="line"/>
    </contour>
    <contour>
      <point x="599.0" y="178" type="curve" smooth="yes"/>
      <point x="749.0" y="178"/>
      <point x="823.0" y="289"/>
      <point x="823.0" y="512" type="curve" smooth="yes"/>
      <point x="823.0" y="730"/>
      <point x="750.0" y="844"/>
      <point x="599.0" y="844" type="curve" smooth="yes"/>
      <point x="450.0" y="844"/>
      <point x="375.0" y="729"/>
      <point x="375.0" y="511" type="curve" smooth="yes"/>
      <point x="375.0" y="290"/>
      <point x="448.0" y="178"/>
    </contour>
    <contour>
      <point x="599.0" y="-18" type="curve" smooth="yes"/>
      <point x="304.0" y="-18"/>
      <point x="119.0" y="190"/>
      <point x="119.0" y="512" type="curve" smooth="yes"/>
      <point x="119.0" y="843"/>
      <point x="291.0" y="1041"/>
      <point x="599.0" y="1041" type="curve" smooth="yes"/>
      <point x="896.0" y="1041"/>
      <point x="1079.0" y="835"/>
      <point x="1079.0" y="512" type="curve" smooth="yes"/>
      <point x="1079.0" y="185"/>
      <point x="907.0" y="-18"/>
    </contour>
  </outline>
</glyph>
<glyph name="OE" format="1">
  <advance width="1922"/>
  <unicode hex="0152"/>
  <outline>
    <contour>
      <point x="65" y="274"/>
      <point x="338" y="-17"/>
      <point x="727" y="-17" type="curve" smooth="yes"/>
      <point x="842" y="-17"/>
      <point x="954" y="19"/>
      <point x="1030" y="67" type="curve"/>
      <point x="1030" y="4" type="line"/>
      <point x="1887" y="4" type="line"/>
      <point x="1905" y="208" type="line"/>
      <point x="1277" y="208" type="line"/>
      <point x="1277" y="596" type="line"/>
      <point x="1835" y="596" type="line"/>
      <point x="1835" y="798" type="line"/>
      <point x="1277" y="798" type="line"/>
      <point x="1277" y="1133" type="line"/>
      <point x="1861" y="1133" type="line"/>
      <point x="1879" y="1338" type="line"/>
      <point x="1030" y="1338" type="line"/>
      <point x="1030" y="1278" type="line"/>
      <point x="945" y="1332"/>
      <point x="844" y="1363"/>
      <point x="722" y="1363" type="curve" smooth="yes"/>
      <point x="349" y="1363"/>
      <point x="68" y="1073"/>
      <point x="65" y="676" type="curve"/>
    </contour>
    <contour>
      <point x="969" y="235"/>
      <point x="863" y="187"/>
      <point x="725" y="187" type="curve" smooth="yes"/>
      <point x="451" y="188"/>
      <point x="318" y="415"/>
      <point x="318" y="672" type="curve"/>
      <point x="320" y="928"/>
      <point x="461" y="1160"/>
      <point x="722" y="1160" type="curve" smooth="yes"/>
      <point x="863" y="1160"/>
      <point x="966" y="1111"/>
      <point x="1030" y="1048" type="curve"/>
      <point x="1030" y="289" type="line"/>
    </contour>
    <contour>
      <point x="961" y="0" type="move" name="top"/>
    </contour>
  </outline>
</glyph>
<glyph name="oe" format="1">
  <advance width="1657"/>
  <unicode hex="0153"/>
  <outline>
    <contour>
      <point x="531" y="159" type="curve" smooth="yes"/>
      <point x="672" y="159"/>
      <point x="768" y="288"/>
      <point x="768" y="511" type="curve" smooth="yes"/>
      <point x="768" y="742"/>
      <point x="675" y="856"/>
      <point x="530" y="856" type="curve" smooth="yes"/>
      <point x="386" y="856"/>
      <point x="295" y="733"/>
      <point x="295" y="510" type="curve" smooth="yes"/>
      <point x="295" y="292"/>
      <point x="388" y="159"/>
    </contour>
    <contour>
      <point x="1000" y="614" type="curve"/>
      <point x="1399" y="614" type="line"/>
      <point x="1398" y="781"/>
      <point x="1333" y="857"/>
      <point x="1211" y="857" type="curve" smooth="yes"/>
      <point x="1119" y="857"/>
      <point x="1018" y="804"/>
    </contour>
    <contour>
      <point x="882" y="872" type="curve"/>
      <point x="949" y="977"/>
      <point x="1068" y="1033"/>
      <point x="1225" y="1034" type="curve"/>
      <point x="1511" y="1034"/>
      <point x="1626" y="816"/>
      <point x="1626" y="540" type="curve" smooth="yes"/>
      <point x="1626" y="517"/>
      <point x="1625" y="466"/>
      <point x="1625" y="461" type="curve" smooth="yes"/>
      <point x="1625" y="451" type="line"/>
      <point x="997" y="451" type="line"/>
      <point x="1004" y="266"/>
      <point x="1096" y="161"/>
      <point x="1257" y="161" type="curve" smooth="yes"/>
      <point x="1379" y="161"/>
      <point x="1462" y="204"/>
      <point x="1522" y="249" type="curve"/>
      <point x="1532" y="256" type="line"/>
      <point x="1604" y="100" type="line"/>
      <point x="1598" y="95" type="line"/>
      <point x="1513" y="30"/>
      <point x="1414" y="-18"/>
      <point x="1252" y="-18" type="curve" smooth="yes"/>
      <point x="1076" y="-18"/>
      <point x="951" y="39"/>
      <point x="880" y="148" type="curve"/>
      <point x="815" y="52"/>
      <point x="694" y="-18"/>
      <point x="531" y="-18" type="curve" smooth="yes"/>
      <point x="208" y="-18"/>
      <point x="55" y="224"/>
      <point x="55" y="511" type="curve" smooth="yes"/>
      <point x="55" y="806"/>
      <point x="208" y="1034"/>
      <point x="532" y="1034" type="curve" smooth="yes"/>
      <point x="694" y="1034"/>
      <point x="810" y="973"/>
    </contour>
  </outline>
</glyph>
<glyph name="Rcommaaccent" format="1">
  <advance width="1406"/>
  <unicode hex="0156"/>
  <outline>
    <contour>
      <point x="593.5" y="-601" type="line"/>
      <point x="761.5" y="-601" type="line"/>
      <point x="916.5" y="-122" type="line"/>
      <point x="694.5" y="-122" type="line"/>
    </contour>
    <contour>
      <point x="202.0" y="0" type="line"/>
      <point x="490.0" y="0" type="line"/>
      <point x="490.0" y="531" type="line"/>
      <point x="670.0" y="531" type="line" smooth="yes"/>
      <point x="703.0" y="531"/>
      <point x="725.0" y="531"/>
      <point x="742.0" y="530" type="curve"/>
      <point x="757.0" y="501"/>
      <point x="812.0" y="395"/>
      <point x="842.0" y="331" type="curve" smooth="yes"/>
      <point x="1005.0" y="0" type="line"/>
      <point x="1308.0" y="0" type="line"/>
      <point x="1111.0" y="391" type="line" smooth="yes"/>
      <point x="1075.0" y="465"/>
      <point x="1038.0" y="539"/>
      <point x="1001.0" y="587" type="curve"/>
      <point x="1148.0" y="646"/>
      <point x="1258.0" y="770"/>
      <point x="1258.0" y="947" type="curve" smooth="yes"/>
      <point x="1258.0" y="1258"/>
      <point x="1027.0" y="1336"/>
      <point x="721.0" y="1336" type="curve" smooth="yes"/>
      <point x="202.0" y="1336" type="line"/>
    </contour>
    <contour>
      <point x="724.0" y="742" type="curve" smooth="yes"/>
      <point x="490.0" y="742" type="line"/>
      <point x="490.0" y="1126" type="line"/>
      <point x="734.0" y="1126" type="line" smooth="yes"/>
      <point x="898.0" y="1126"/>
      <point x="970.0" y="1064"/>
      <point x="970.0" y="943" type="curve" smooth="yes"/>
      <point x="970.0" y="804"/>
      <point x="905.0" y="742"/>
    </contour>
  </outline>
</glyph>
<glyph name="rcommaaccent" format="1">
  <advance width="796"/>
  <unicode hex="0157"/>
  <outline>
    <contour>
      <point x="297" y="-601" type="line"/>
      <point x="465" y="-601" type="line"/>
      <point x="620" y="-122" type="line"/>
      <point x="398" y="-122" type="line"/>
    </contour>
    <contour>
      <point x="159" y="1016" type="line"/>
      <point x="159" y="0" type="line"/>
      <point x="415" y="0" type="line"/>
      <point x="415" y="551" type="line" smooth="yes"/>
      <point x="415" y="707"/>
      <point x="498" y="807"/>
      <point x="670" y="807" type="curve" smooth="yes"/>
      <point x="696" y="807"/>
      <point x="721" y="805"/>
      <point x="754" y="799" type="curve"/>
      <point x="758" y="1015" type="line"/>
      <point x="731" y="1021"/>
      <point x="710" y="1021"/>
      <point x="687" y="1021" type="curve" smooth="yes"/>
      <point x="569" y="1021"/>
      <point x="466" y="950"/>
      <point x="403" y="860" type="curve"/>
      <point x="375" y="1016" type="line"/>
    </contour>
  </outline>
</glyph>
<glyph name="Rcaron" format="1">
  <advance width="1406"/>
  <unicode hex="0158"/>
  <outline>
    <contour>
      <point x="202" y="0" type="line"/>
      <point x="490" y="0" type="line"/>
      <point x="490" y="531" type="line"/>
      <point x="670" y="531" type="line" smooth="yes"/>
      <point x="703" y="531"/>
      <point x="725" y="531"/>
      <point x="742" y="530" type="curve"/>
      <point x="757" y="501"/>
      <point x="812" y="395"/>
      <point x="842" y="331" type="curve"/>
      <point x="1005" y="0" type="line"/>
      <point x="1308" y="0" type="line"/>
      <point x="1111" y="391" type="line"/>
      <point x="1075" y="465"/>
      <point x="1038" y="539"/>
      <point x="1001" y="587" type="curve"/>
      <point x="1148" y="646"/>
      <point x="1258" y="770"/>
      <point x="1258" y="947" type="curve" smooth="yes"/>
      <point x="1258" y="1258"/>
      <point x="1027" y="1336"/>
      <point x="721" y="1336" type="curve" smooth="yes"/>
      <point x="202" y="1336" type="line"/>
    </contour>
    <contour>
      <point x="660" y="1479" type="line"/>
      <point x="850" y="1479" type="line"/>
      <point x="1098" y="1816" type="line"/>
      <point x="893" y="1816" type="line"/>
      <point x="743" y="1645" type="line"/>
      <point x="613" y="1816" type="line"/>
      <point x="412" y="1816" type="line"/>
    </contour>
    <contour>
      <point x="490" y="742" type="line"/>
      <point x="490" y="1126" type="line"/>
      <point x="734" y="1126" type="line" smooth="yes"/>
      <point x="898" y="1126"/>
      <point x="970" y="1064"/>
      <point x="970" y="943" type="curve" smooth="yes"/>
      <point x="970" y="804"/>
      <point x="905" y="742"/>
      <point x="724" y="742" type="curve" smooth="yes"/>
    </contour>
  </outline>
</glyph>
<glyph name="rcaron" format="1">
  <advance width="796"/>
  <unicode hex="0159"/>
  <outline>
    <contour>
      <point x="363.5" y="1163" type="line"/>
      <point x="553.5" y="1163" type="line"/>
      <point x="801.5" y="1500" type="line"/>
      <point x="596.5" y="1500" type="line"/>
      <point x="446.5" y="1329" type="line"/>
      <point x="316.5" y="1500" type="line"/>
      <point x="115.5" y="1500" type="line"/>
    </contour>
    <contour>
      <point x="159.0" y="1016" type="line"/>
      <point x="159.0" y="0" type="line"/>
      <point x="415.0" y="0" type="line"/>
      <point x="415.0" y="551" type="line" smooth="yes"/>
      <point x="415.0" y="707"/>
      <point x="498.0" y="807"/>
      <point x="670.0" y="807" type="curve" smooth="yes"/>
      <point x="696.0" y="807"/>
      <point x="721.0" y="805"/>
      <point x="754.0" y="799" type="curve"/>
      <point x="758.0" y="1015" type="line"/>
      <point x="731.0" y="1021"/>
      <point x="710.0" y="1021"/>
      <point x="687.0" y="1021" type="curve" smooth="yes"/>
      <point x="569.0" y="1021"/>
      <point x="466.0" y="950"/>
      <point x="403.0" y="860" type="curve"/>
      <point x="375.0" y="1016" type="line"/>
    </contour>
  </outline>
</glyph>
<glyph name="Scircumflex" format="1">
  <advance width="1182"/>
  <unicode hex="015C"/>
  <outline>
    <contour>
      <point x="260.5" y="1480" type="line"/>
      <point x="441.5" y="1480" type="line"/>
      <point x="583.5" y="1674" type="line"/>
      <point x="741.5" y="1480" type="line"/>
      <point x="927.5" y="1480" type="line"/>
      <point x="691.5" y="1848" type="line"/>
      <point x="495.5" y="1848" type="line"/>
    </contour>
    <contour>
      <point x="570.0" y="-18" type="curve" smooth="yes"/>
      <point x="394.0" y="-18"/>
      <point x="241.0" y="21"/>
      <point x="125.0" y="87" type="curve"/>
      <point x="208.0" y="303" type="line"/>
      <point x="285.0" y="253"/>
      <point x="448.0" y="210"/>
      <point x="580.0" y="210" type="curve" smooth="yes"/>
      <point x="721.0" y="210"/>
      <point x="790.0" y="262"/>
      <point x="790.0" y="385" type="curve" smooth="yes"/>
      <point x="790.0" y="464"/>
      <point x="735.0" y="512"/>
      <point x="638.0" y="544" type="curve" smooth="yes"/>
      <point x="414.0" y="617" type="line" smooth="yes"/>
      <point x="252.0" y="670"/>
      <point x="148.0" y="785"/>
      <point x="148.0" y="975" type="curve" smooth="yes"/>
      <point x="148.0" y="1227"/>
      <point x="345.0" y="1358"/>
      <point x="613.0" y="1358" type="curve" smooth="yes"/>
      <point x="773.0" y="1358"/>
      <point x="923.0" y="1320"/>
      <point x="1044.0" y="1251" type="curve"/>
      <point x="962.0" y="1035" type="line"/>
      <point x="870.0" y="1075"/>
      <point x="743.0" y="1128"/>
      <point x="624.0" y="1128" type="curve" smooth="yes"/>
      <point x="491.0" y="1128"/>
      <point x="417.0" y="1087"/>
      <point x="417.0" y="980" type="curve" smooth="yes"/>
      <point x="417.0" y="915"/>
      <point x="454.0" y="873"/>
      <point x="515.0" y="853" type="curve" smooth="yes"/>
      <point x="723.0" y="783" type="line" smooth="yes"/>
      <point x="958.0" y="705"/>
      <point x="1063.0" y="598"/>
      <point x="1063.0" y="381" type="curve" smooth="yes"/>
      <point x="1063.0" y="119"/>
      <point x="859.0" y="-18"/>
    </contour>
  </outline>
</glyph>
<glyph name="Scedilla" format="1">
  <advance width="1182"/>
  <unicode hex="015E"/>
  <outline>
    <contour>
      <point x="404.5" y="-363.099609375" type="line"/>
      <point x="613.5" y="-363.099609375" type="line"/>
      <point x="667.5" y="-6.099609375" type="line"/>
      <point x="520.5" y="-6.099609375" type="line"/>
    </contour>
    <contour>
      <point x="570.0" y="-18.0" type="curve" smooth="yes"/>
      <point x="394.0" y="-18.0"/>
      <point x="241.0" y="21.0"/>
      <point x="125.0" y="87.0" type="curve"/>
      <point x="208.0" y="303.0" type="line"/>
      <point x="285.0" y="253.0"/>
      <point x="448.0" y="210.0"/>
      <point x="580.0" y="210.0" type="curve" smooth="yes"/>
      <point x="721.0" y="210.0"/>
      <point x="790.0" y="262.0"/>
      <point x="790.0" y="385.0" type="curve" smooth="yes"/>
      <point x="790.0" y="464.0"/>
      <point x="735.0" y="512.0"/>
      <point x="638.0" y="544.0" type="curve" smooth="yes"/>
      <point x="414.0" y="617.0" type="line" smooth="yes"/>
      <point x="252.0" y="670.0"/>
      <point x="148.0" y="785.0"/>
      <point x="148.0" y="975.0" type="curve" smooth="yes"/>
      <point x="148.0" y="1227.0"/>
      <point x="345.0" y="1358.0"/>
      <point x="613.0" y="1358.0" type="curve" smooth="yes"/>
      <point x="773.0" y="1358.0"/>
      <point x="923.0" y="1320.0"/>
      <point x="1044.0" y="1251.0" type="curve"/>
      <point x="962.0" y="1035.0" type="line"/>
      <point x="870.0" y="1075.0"/>
      <point x="743.0" y="1128.0"/>
      <point x="624.0" y="1128.0" type="curve" smooth="yes"/>
      <point x="491.0" y="1128.0"/>
      <point x="417.0" y="1087.0"/>
      <point x="417.0" y="980.0" type="curve" smooth="yes"/>
      <point x="417.0" y="915.0"/>
      <point x="454.0" y="873.0"/>
      <point x="515.0" y="853.0" type="curve" smooth="yes"/>
      <point x="723.0" y="783.0" type="line" smooth="yes"/>
      <point x="958.0" y="705.0"/>
      <point x="1063.0" y="598.0"/>
      <point x="1063.0" y="381.0" type="curve" smooth="yes"/>
      <point x="1063.0" y="119.0"/>
      <point x="859.0" y="-18.0"/>
    </contour>
  </outline>
</glyph>
<glyph name="Scaron" format="1">
  <advance width="1182"/>
  <unicode hex="0160"/>
  <outline>
    <contour>
      <point x="499" y="1480" type="line"/>
      <point x="689" y="1480" type="line"/>
      <point x="937" y="1817" type="line"/>
      <point x="732" y="1817" type="line"/>
      <point x="582" y="1646" type="line"/>
      <point x="452" y="1817" type="line"/>
      <point x="251" y="1817" type="line"/>
    </contour>
    <contour>
      <point x="570" y="-18" type="curve" smooth="yes"/>
      <point x="394" y="-18"/>
      <point x="241" y="21"/>
      <point x="125" y="87" type="curve"/>
      <point x="208" y="303" type="line"/>
      <point x="285" y="253"/>
      <point x="448" y="210"/>
      <point x="580" y="210" type="curve" smooth="yes"/>
      <point x="721" y="210"/>
      <point x="790" y="262"/>
      <point x="790" y="385" type="curve" smooth="yes"/>
      <point x="790" y="464"/>
      <point x="735" y="512"/>
      <point x="638" y="544" type="curve" smooth="yes"/>
      <point x="414" y="617" type="line" smooth="yes"/>
      <point x="252" y="670"/>
      <point x="148" y="785"/>
      <point x="148" y="975" type="curve" smooth="yes"/>
      <point x="148" y="1227"/>
      <point x="345" y="1358"/>
      <point x="613" y="1358" type="curve" smooth="yes"/>
      <point x="773" y="1358"/>
      <point x="923" y="1320"/>
      <point x="1044" y="1251" type="curve"/>
      <point x="962" y="1035" type="line"/>
      <point x="870" y="1075"/>
      <point x="743" y="1128"/>
      <point x="624" y="1128" type="curve" smooth="yes"/>
      <point x="491" y="1128"/>
      <point x="417" y="1087"/>
      <point x="417" y="980" type="curve" smooth="yes"/>
      <point x="417" y="915"/>
      <point x="454" y="873"/>
      <point x="515" y="853" type="curve" smooth="yes"/>
      <point x="723" y="783" type="line" smooth="yes"/>
      <point x="958" y="705"/>
      <point x="1063" y="598"/>
      <point x="1063" y="381" type="curve" smooth="yes"/>
      <point x="1063" y="119"/>
      <point x="859" y="-18"/>
    </contour>
  </outline>
</glyph>
